<svg xmlns="http://www.w3.org/2000/svg" width="912.384" height="605.197" viewBox="0 0 912.384 605.197">
  <g id="Group_11393" data-name="Group 11393" transform="translate(-1311.308 -344.138)">
    <path id="Path_19368" data-name="Path 19368" d="M2111.769,598.088c-3.338-2.471-6.68-4.838-10.018-7.061-43.562-29.009-88.829-53.236-116-100.294-17.511-30.333-25.7-63.248-49.3-89.992-51.772-58.671-145.242-68.407-216.111-44.419a232.213,232.213,0,0,0-97.4,64.392c-12.93,14.35-23.685,29.085-29.92,47.244-5.964,17.372-10.131,36.342-22.417,50.579-14.868,17.23-33.986,30.387-54,40.954-39.065,20.629-80.873,27.485-117.647,51.436-47.032,30.632-81.915,77.432-87.026,134.635-5.5,61.517,25.317,128.137,80.521,157.41,25.5,13.522,53.683,17.113,79.489,28.416,61.441,26.908,125.184,9.678,189.8,9.924l360.751,1.369h.042c23.741,0,35.772,9.2,55.987-4.738,18.105-12.485,35.578-22.388,49.541-40.054,15.358-19.429,34.653-30.3,51.281-48.531a179.574,179.574,0,0,0,35.556-58.077c5.293-14.081,9.157-28.945,8.76-43.984-.481-18.232-7.215-35.819-16.227-51.676-13.352-23.491-31.6-44.152-52.141-61.61C2141.509,622.291,2126.694,609.142,2111.769,598.088Z" fill="#eef4fc"/>
    <g id="Group_11347" data-name="Group 11347">
      <path id="Path_19369" data-name="Path 19369" d="M1738.54,459.029a12.015,12.015,0,0,0-12.015-12.015,11.8,11.8,0,0,0-5.089,1.223,16.8,16.8,0,0,0-11.815-9,18.95,18.95,0,0,0,.723-3.585,19.845,19.845,0,0,0-33.454-14.591,36.547,36.547,0,0,0-71.729-7.239,25.1,25.1,0,0,0-29.312,18.308,22.757,22.757,0,0,0-31.418,21.22,22.3,22.3,0,0,0,3.548,11.515h188.839A11.7,11.7,0,0,0,1738.54,459.029Z" fill="#f9fbff"/>
      <g id="Group_11344" data-name="Group 11344">
        <path id="Path_19370" data-name="Path 19370" d="M1738.539,466.123h-138.9a1.263,1.263,0,0,1,0-2.526h138.9a1.263,1.263,0,1,1,0,2.526Z" fill="#f7be1c"/>
      </g>
      <g id="Group_11345" data-name="Group 11345">
        <path id="Path_19371" data-name="Path 19371" d="M1611.787,466.124h-63.179a1.263,1.263,0,1,1,0-2.526h63.179a1.263,1.263,0,1,1,0,2.526Z" fill="#f7be1c"/>
      </g>
      <path id="Path_19372" data-name="Path 19372" d="M1596.621,418.4a21.9,21.9,0,0,1,21.837,21.836,21.44,21.44,0,0,1-1.276,7.042,21.644,21.644,0,0,0,3.653-12.022A21.9,21.9,0,0,0,1599,413.42h0a21.844,21.844,0,0,0-20.562,14.795A21.844,21.844,0,0,1,1596.621,418.4Z" fill="#b3cdfa"/>
      <path id="Path_19373" data-name="Path 19373" d="M1704.829,442.115a12,12,0,0,1-16.68-2.867,11.78,11.78,0,0,1-1.657-3.555,11.868,11.868,0,0,0,2.167,6.536,12,12,0,0,0,16.681,2.867h0a11.971,11.971,0,0,0,4.524-13.125A11.976,11.976,0,0,1,1704.829,442.115Z" fill="#b3cdfa"/>
      <g id="Group_11346" data-name="Group 11346">
        <path id="Path_19374" data-name="Path 19374" d="M1710.344,436.911a1.263,1.263,0,0,1-1.263-1.263,18.582,18.582,0,0,0-31.335-13.662l-1.932,1.782-.184-2.622a35.284,35.284,0,0,0-69.252-6.99,1.263,1.263,0,1,1-2.434-.677,38.045,38.045,0,0,1,36.463-27.858,37.569,37.569,0,0,1,25.885,10.28,38.026,38.026,0,0,1,11.615,22.677,20.91,20.91,0,0,1,12.444-4.185,21.279,21.279,0,0,1,21.256,21.255A1.262,1.262,0,0,1,1710.344,436.911Z" fill="#f7be1c"/>
      </g>
    </g>
    <g id="Group_11351" data-name="Group 11351">
      <path id="Path_19375" data-name="Path 19375" d="M2168.231,515.45a14.173,14.173,0,0,0-14.172-14.172,13.937,13.937,0,0,0-6,1.442,19.816,19.816,0,0,0-13.936-10.621,22.4,22.4,0,0,0,.853-4.228,23.41,23.41,0,0,0-39.463-17.212,43.11,43.11,0,0,0-84.611-8.539,29.616,29.616,0,0,0-34.577,21.6,26.843,26.843,0,0,0-37.06,25.031,26.3,26.3,0,0,0,4.185,13.583H2166.2A13.8,13.8,0,0,0,2168.231,515.45Z" fill="#f9fbff"/>
      <g id="Group_11348" data-name="Group 11348">
        <path id="Path_19376" data-name="Path 19376" d="M2168.231,523.592h-163.85a1.263,1.263,0,0,1,0-2.526h163.85a1.263,1.263,0,0,1,0,2.526Z" fill="#f7be1c"/>
      </g>
      <g id="Group_11349" data-name="Group 11349">
        <path id="Path_19377" data-name="Path 19377" d="M2018.714,523.593h-74.527a1.263,1.263,0,1,1,0-2.526h74.527a1.263,1.263,0,1,1,0,2.526Z" fill="#f7be1c"/>
      </g>
      <path id="Path_19378" data-name="Path 19378" d="M2000.824,467.525a25.834,25.834,0,0,1,25.759,25.758,25.3,25.3,0,0,1-1.505,8.307,25.534,25.534,0,0,0,4.309-14.181,25.834,25.834,0,0,0-25.758-25.759h0a25.766,25.766,0,0,0-24.255,17.452A25.768,25.768,0,0,1,2000.824,467.525Z" fill="#b3cdfa"/>
      <path id="Path_19379" data-name="Path 19379" d="M2128.466,495.5a14.158,14.158,0,0,1-19.676-3.382,13.865,13.865,0,0,1-1.954-4.194,14,14,0,0,0,2.556,7.71,14.159,14.159,0,0,0,19.677,3.382h0a14.12,14.12,0,0,0,5.336-15.482A14.123,14.123,0,0,1,2128.466,495.5Z" fill="#b3cdfa"/>
      <g id="Group_11350" data-name="Group 11350">
        <path id="Path_19380" data-name="Path 19380" d="M2134.972,489.134a1.263,1.263,0,0,1-1.263-1.263,22.147,22.147,0,0,0-37.344-16.283l-1.932,1.782-.184-2.622a41.847,41.847,0,0,0-82.134-8.29,1.263,1.263,0,0,1-2.434-.677,45.188,45.188,0,0,1,15.675-23.4,44.242,44.242,0,0,1,57.5,2.767,44.624,44.624,0,0,1,13.681,27,24.477,24.477,0,0,1,14.855-5.126,24.875,24.875,0,0,1,24.847,24.846A1.263,1.263,0,0,1,2134.972,489.134Z" fill="#f7be1c"/>
      </g>
    </g>
    <g id="Group_11352" data-name="Group 11352">
      <rect id="Rectangle_2671" data-name="Rectangle 2671" width="200.187" height="119.473" transform="translate(1885.196 828.313)" fill="#c2d7fb"/>
      <rect id="Rectangle_2672" data-name="Rectangle 2672" width="7.467" height="119.473" transform="translate(2077.916 828.313)" fill="#d1e1fc"/>
      <rect id="Rectangle_2673" data-name="Rectangle 2673" width="7.468" height="119.473" transform="translate(2062.919 828.313)" fill="#d1e1fc"/>
      <rect id="Rectangle_2674" data-name="Rectangle 2674" width="7.467" height="119.473" transform="translate(2047.922 828.313)" fill="#d1e1fc"/>
      <rect id="Rectangle_2675" data-name="Rectangle 2675" width="7.468" height="119.473" transform="translate(2032.925 828.313)" fill="#d1e1fc"/>
      <rect id="Rectangle_2676" data-name="Rectangle 2676" width="7.467" height="119.473" transform="translate(2017.929 828.313)" fill="#d1e1fc"/>
      <rect id="Rectangle_2677" data-name="Rectangle 2677" width="7.467" height="119.474" transform="translate(2002.932 829.861)" fill="#d1e1f2"/>
      <rect id="Rectangle_2678" data-name="Rectangle 2678" width="7.468" height="119.473" transform="translate(1987.934 828.313)" fill="#d1e1fc"/>
      <rect id="Rectangle_2679" data-name="Rectangle 2679" width="7.467" height="119.473" transform="translate(1972.938 828.313)" fill="#d1e1fc"/>
      <rect id="Rectangle_2680" data-name="Rectangle 2680" width="7.468" height="119.473" transform="translate(1957.941 828.313)" fill="#d1e1fc"/>
      <rect id="Rectangle_2681" data-name="Rectangle 2681" width="7.467" height="119.473" transform="translate(1942.944 828.313)" fill="#d1e1fc"/>
      <rect id="Rectangle_2682" data-name="Rectangle 2682" width="54.151" height="119.473" transform="translate(1885.196 828.313)" fill="#a7c1ee"/>
      <rect id="Rectangle_2683" data-name="Rectangle 2683" width="7.468" height="119.473" transform="translate(1927.947 828.313)" fill="#d1e1fc"/>
      <rect id="Rectangle_2684" data-name="Rectangle 2684" width="7.468" height="119.473" transform="translate(1912.949 828.313)" fill="#d1e1fc"/>
      <rect id="Rectangle_2685" data-name="Rectangle 2685" width="7.467" height="119.473" transform="translate(1897.953 828.313)" fill="#d1e1fc"/>
      <rect id="Rectangle_2686" data-name="Rectangle 2686" width="5.227" height="119.473" transform="translate(1885.196 828.313)" fill="#d1e1fc"/>
      <rect id="Rectangle_2687" data-name="Rectangle 2687" width="200.187" height="31.971" transform="translate(1885.196 832.559)" fill="#1067db" opacity="0.3"/>
      <rect id="Rectangle_2688" data-name="Rectangle 2688" width="206.006" height="31.972" transform="translate(1882.287 827.409)" fill="#d1e1fc"/>
      <rect id="Rectangle_2689" data-name="Rectangle 2689" width="57.06" height="31.972" transform="translate(1882.287 827.409)" fill="#c2d7fb"/>
      <rect id="Rectangle_2690" data-name="Rectangle 2690" width="121.9" height="14.792" transform="translate(1901.734 949.309) rotate(-90)" fill="#fff"/>
      <rect id="Rectangle_2691" data-name="Rectangle 2691" width="121.9" height="18.166" transform="translate(1997.559 949.309) rotate(-90)" fill="#fff"/>
    </g>
    <g id="Group_11355" data-name="Group 11355">
      <g id="Group_11353" data-name="Group 11353">
        <path id="Path_19381" data-name="Path 19381" d="M1423.021,879.788a.464.464,0,0,0,.462-.463V848.882a30.049,30.049,0,0,1,60.1,0v30.443a.464.464,0,0,0,.462.463h2.05a.464.464,0,0,0,.461-.463V848.882a33.023,33.023,0,0,0-66.047,0v30.443a.464.464,0,0,0,.462.463Z" fill="#89ade9"/>
        <path id="Rectangle_2692" data-name="Rectangle 2692" d="M0,0H39.549a0,0,0,0,1,0,0V91.6a0,0,0,0,1,0,0H1.482A1.482,1.482,0,0,1,0,90.122V0A0,0,0,0,1,0,0Z" transform="translate(1519.735 947.341) rotate(180)" fill="#a7c1ee"/>
        <path id="Rectangle_2693" data-name="Rectangle 2693" d="M.967,0H110.712a0,0,0,0,1,0,0V91.6a0,0,0,0,1,0,0H.984A.984.984,0,0,1,0,90.619V.967A.967.967,0,0,1,.967,0Z" transform="translate(1370.524 855.738)" fill="#c4d6f4"/>
        <path id="Rectangle_2694" data-name="Rectangle 2694" d="M0,0H19.775a0,0,0,0,1,0,0V91.6a0,0,0,0,1,0,0H.982A.982.982,0,0,1,0,90.622V0A0,0,0,0,1,0,0Z" transform="translate(1519.735 947.341) rotate(180)" fill="#89ade9"/>
        <path id="Path_19382" data-name="Path 19382" d="M1480.187,947.341h39.548l-19.775-23.4-19.774,23.4Z" fill="#89ade9"/>
        <path id="Path_19383" data-name="Path 19383" d="M1448.651,879.047a6.85,6.85,0,1,0,6.85-6.851A6.849,6.849,0,0,0,1448.651,879.047Z" fill="#a7c1ee"/>
        <path id="Path_19384" data-name="Path 19384" d="M1385.578,879.047a6.85,6.85,0,1,0,6.849-6.851A6.849,6.849,0,0,0,1385.578,879.047Z" fill="#a7c1ee"/>
        <path id="Path_19385" data-name="Path 19385" d="M1393.454,879.788a.464.464,0,0,0,.462-.463V848.882a30.049,30.049,0,0,1,60.1,0v30.443a.464.464,0,0,0,.462.463h2.049a.464.464,0,0,0,.462-.463V848.882a33.023,33.023,0,0,0-66.047,0v30.443a.463.463,0,0,0,.461.463Z" fill="#89ade9"/>
      </g>
      <path id="Path_19386" data-name="Path 19386" d="M1519.735,856.151a.413.413,0,0,0-.413-.413h-32.767v-6.856a33.074,33.074,0,0,0-25.859-32.23V819.7a30.1,30.1,0,0,1,22.886,29.178v6.856H1460.7v91.189a.414.414,0,0,0,.414.414h58.625v-91.19Z" fill="#6c98e3"/>
      <g id="Group_11354" data-name="Group 11354">
        <path id="Path_19387" data-name="Path 19387" d="M1519.509,824.953a.463.463,0,0,0,.462-.462V794.048a30.049,30.049,0,0,1,60.1,0v30.443a.463.463,0,0,0,.462.462h2.049a.463.463,0,0,0,.462-.462V794.048a33.024,33.024,0,0,0-66.048,0v30.443a.463.463,0,0,0,.462.462Z" fill="#89ade9"/>
        <path id="Rectangle_2695" data-name="Rectangle 2695" d="M0,0H39.548a0,0,0,0,1,0,0V146.437a0,0,0,0,1,0,0H1.482A1.482,1.482,0,0,1,0,144.956V0A0,0,0,0,1,0,0Z" transform="translate(1616.223 947.341) rotate(180)" fill="#a7c1ee"/>
        <path id="Rectangle_2696" data-name="Rectangle 2696" d="M.967,0H110.712a0,0,0,0,1,0,0V146.437a0,0,0,0,1,0,0H.984A.984.984,0,0,1,0,145.453V.967A.967.967,0,0,1,.967,0Z" transform="translate(1467.012 800.904)" fill="#c4d6f4"/>
        <path id="Rectangle_2697" data-name="Rectangle 2697" d="M0,0H19.775a0,0,0,0,1,0,0V146.437a0,0,0,0,1,0,0H.982A.982.982,0,0,1,0,145.456V0A0,0,0,0,1,0,0Z" transform="translate(1616.223 947.341) rotate(180)" fill="#89ade9"/>
        <path id="Path_19388" data-name="Path 19388" d="M1576.675,947.341h39.548l-19.775-23.4-19.773,23.4Z" fill="#89ade9"/>
        <path id="Path_19389" data-name="Path 19389" d="M1545.139,824.213a6.849,6.849,0,1,0,6.849-6.851A6.85,6.85,0,0,0,1545.139,824.213Z" fill="#a7c1ee"/>
        <path id="Path_19390" data-name="Path 19390" d="M1482.065,824.213a6.85,6.85,0,1,0,6.85-6.851A6.85,6.85,0,0,0,1482.065,824.213Z" fill="#a7c1ee"/>
        <path id="Path_19391" data-name="Path 19391" d="M1489.942,824.953a.463.463,0,0,0,.462-.462V794.048a30.049,30.049,0,0,1,60.1,0v30.443a.463.463,0,0,0,.462.462h2.05a.463.463,0,0,0,.462-.462V794.048a33.024,33.024,0,0,0-66.048,0v30.443a.463.463,0,0,0,.462.462Z" fill="#89ade9"/>
      </g>
    </g>
    <g id="Group_11358" data-name="Group 11358">
      <path id="Path_19392" data-name="Path 19392" d="M1904.969,947.341H1694.013a42.96,42.96,0,0,1-42.96-42.96l67.527-493.42a28.281,28.281,0,0,1,28.282-28.281H1952.8a47.975,47.975,0,0,1,47.975,47.975l-67.528,488.4C1931.168,934.96,1920.588,947.341,1904.969,947.341Z" fill="#fff"/>
      <g id="Group_11356" data-name="Group 11356">
        <path id="Path_19393" data-name="Path 19393" d="M1904.969,948.6H1694.013a44.274,44.274,0,0,1-44.224-44.223l.012-.171,67.516-493.336a29.578,29.578,0,0,1,29.545-29.457H1952.8a49.294,49.294,0,0,1,49.238,49.238l-.012.173-67.528,488.4C1932.2,936.8,1920.333,948.6,1904.969,948.6Zm-252.653-44.137a41.742,41.742,0,0,0,41.7,41.611h210.956c14.038,0,24.9-10.924,27.029-27.182l67.517-488.328a46.763,46.763,0,0,0-46.712-46.625H1746.862a27.049,27.049,0,0,0-27.019,27.018l-.011.172Z" fill="#f7be1c"/>
      </g>
      <path id="Path_19394" data-name="Path 19394" d="M1894.622,936.143h-215a28.282,28.282,0,0,1-28.282-28.282l67.528-496.522a28.281,28.281,0,0,1,28.281-28.281h215a28.281,28.281,0,0,1,28.282,28.281L1922.9,907.861C1919.8,922.765,1910.241,936.143,1894.622,936.143Z" fill="#f7be1c"/>
      <g id="Group_11357" data-name="Group 11357">
        <path id="Path_19395" data-name="Path 19395" d="M1894.622,937.406h-215a29.578,29.578,0,0,1-29.545-29.545l.011-.17L1717.6,411.253a29.578,29.578,0,0,1,29.544-29.459h215a29.578,29.578,0,0,1,29.545,29.545l-.011.17-67.534,496.566-.009.044C1921.188,922.277,1911.884,937.406,1894.622,937.406ZM1652.6,907.946a27.05,27.05,0,0,0,27.019,26.934h215c15.73,0,24.277-14.059,27.036-27.233l67.51-496.393a27.049,27.049,0,0,0-27.019-26.933h-215a27.048,27.048,0,0,0-27.018,27.018l-.012.17Z" fill="#f7be1c"/>
      </g>
      <path id="Path_19396" data-name="Path 19396" d="M1881.135,407.7h-69.286a1.843,1.843,0,0,1-1.6-2.757h0a1.845,1.845,0,0,1,1.6-.928h69.286a1.842,1.842,0,0,1,1.6,2.756h0A1.842,1.842,0,0,1,1881.135,407.7Z" fill="#002280"/>
      <path id="Path_19397" data-name="Path 19397" d="M1962.772,409.423c-1.059,5.916-6.223,9.942-11.533,8.991s-8.755-6.518-7.7-12.435,6.224-9.942,11.534-8.992S1963.832,403.506,1962.772,409.423Z" fill="#002280"/>
    </g>
    <path id="Path_19398" data-name="Path 19398" d="M1780.054,599.673l-77.448.726a20.717,20.717,0,0,0-20.239,17.306l-13.411,80.352a17.94,17.94,0,0,0,17.864,20.892l77.447-.727a20.717,20.717,0,0,0,20.24-17.3l13.41-80.352A17.939,17.939,0,0,0,1780.054,599.673Z" fill="#cc8c2f"/>
    <path id="Path_19399" data-name="Path 19399" d="M1767.423,582.831l-77.448.727a20.715,20.715,0,0,0-20.239,17.3l-13.411,80.352a17.941,17.941,0,0,0,17.864,20.893l77.447-.727a20.718,20.718,0,0,0,20.24-17.3l13.41-80.352A17.939,17.939,0,0,0,1767.423,582.831Z" fill="#e3edfe"/>
    <path id="Path_19400" data-name="Path 19400" d="M1927.416,599.673l-77.448.726a20.717,20.717,0,0,0-20.239,17.306l-13.411,80.352a17.94,17.94,0,0,0,17.863,20.892l77.448-.727a20.717,20.717,0,0,0,20.24-17.3l13.41-80.352A17.939,17.939,0,0,0,1927.416,599.673Z" fill="#cc8c2f"/>
    <path id="Path_19401" data-name="Path 19401" d="M1914.785,582.831l-77.448.727a20.715,20.715,0,0,0-20.239,17.3l-13.411,80.352a17.94,17.94,0,0,0,17.863,20.893l77.448-.727a20.718,20.718,0,0,0,20.24-17.3l13.41-80.352A17.939,17.939,0,0,0,1914.785,582.831Z" fill="#ff5722"/>
    <path id="Path_19402" data-name="Path 19402" d="M1755.435,751.067l-77.448.726a20.717,20.717,0,0,0-20.239,17.306l-13.411,80.352a17.94,17.94,0,0,0,17.864,20.892l77.447-.726a20.718,20.718,0,0,0,20.24-17.306l13.411-80.352A17.94,17.94,0,0,0,1755.435,751.067Z" fill="#cc8c2f"/>
    <path id="Path_19403" data-name="Path 19403" d="M1742.8,734.226l-77.448.726a20.718,20.718,0,0,0-20.239,17.306l-13.411,80.352A17.94,17.94,0,0,0,1649.57,853.5l77.447-.727a20.716,20.716,0,0,0,20.24-17.305l13.411-80.352A17.94,17.94,0,0,0,1742.8,734.226Z" fill="#b3cdfa"/>
    <path id="Path_19404" data-name="Path 19404" d="M1902.8,751.067l-77.448.726A20.717,20.717,0,0,0,1805.11,769.1L1791.7,849.451a17.94,17.94,0,0,0,17.864,20.892l77.447-.726a20.719,20.719,0,0,0,20.24-17.306l13.41-80.352A17.939,17.939,0,0,0,1902.8,751.067Z" fill="#cc8c2f"/>
    <path id="Path_19405" data-name="Path 19405" d="M1890.166,734.226l-77.448.726a20.717,20.717,0,0,0-20.239,17.306l-13.411,80.352a17.94,17.94,0,0,0,17.864,20.892l77.447-.727a20.717,20.717,0,0,0,20.24-17.305l13.41-80.352A17.939,17.939,0,0,0,1890.166,734.226Z" fill="#e3edfe"/>
    <g id="Group_11366" data-name="Group 11366">
      <path id="Path_19421" data-name="Path 19421" d="M1640.587,564.123l-48.772.458a6.194,6.194,0,0,1-6.094-6.943l8.554-50.5a4.724,4.724,0,0,1,4.731-3.96l48.841-.521h0a6.2,6.2,0,0,1,6.043,6.944l-8.565,50.558A4.724,4.724,0,0,1,1640.587,564.123Z" fill="#ff5722"/>
      <g id="Group_11365" data-name="Group 11365">
        <path id="Path_19422" data-name="Path 19422" d="M1613.721,554.019l.72-3.619a17.844,17.844,0,0,1-10.464-5.7l5.724-5.6a15.323,15.323,0,0,0,6.131,4.313l1.469-7.386q-4.938-1.338-6.918-3.593t-1.138-6.494a11.813,11.813,0,0,1,4.166-6.989,14.921,14.921,0,0,1,7.943-3.3l.483-2.429h5.254l-.5,2.529a18.441,18.441,0,0,1,9.046,4.114l-5.228,5.849a14.844,14.844,0,0,0-5.208-2.974l-1.42,7.138q5.078,1.387,7.167,3.717t1.241,6.593a11.806,11.806,0,0,1-4.251,7.039,15.483,15.483,0,0,1-8.269,3.32l-.69,3.471Zm6.262-31.477a3.565,3.565,0,0,0-2.674,2.727,2.613,2.613,0,0,0,1.53,3.024Zm4.193,18.043a2.418,2.418,0,0,0-.2-1.735,3.713,3.713,0,0,0-1.727-1.288l-1.213,6.1A3.993,3.993,0,0,0,1624.176,540.585Z" fill="#fff"/>
      </g>
    </g>
    <g id="Group_11378" data-name="Group 11378">
      <g id="Group_11375" data-name="Group 11375">
        <g id="Group_11374" data-name="Group 11374">
          <path id="Path_19451" data-name="Path 19451" d="M1802.329,442.551a16.029,16.029,0,0,1-7.067,1.666l.776-4.014c3.91-.128,6.4-1.537,7.81-4.4h4.909l-5.665,29.29h-5.123Z" fill="#fff"/>
          <path id="Path_19452" data-name="Path 19452" d="M1810.322,450.45c1.884-9.735,7.09-15.243,14.433-15.243,7.386,0,10.462,5.508,8.579,15.243s-7.09,15.243-14.476,15.243C1811.515,465.693,1808.439,460.185,1810.322,450.45Zm17.889,0c1.412-7.3-.488-10.717-4.331-10.717-4.312,0-7.187,4.27-8.435,10.717-1.412,7.3.489,10.717,4.289,10.717C1824.088,461.167,1826.964,456.9,1828.211,450.45Z" fill="#fff"/>
          <path id="Path_19453" data-name="Path 19453" d="M1835.225,458.776h6.319l-1.223,6.319H1834Zm2.907-15.029h6.319l-1.222,6.319h-6.319Z" fill="#fff"/>
          <path id="Path_19454" data-name="Path 19454" d="M1845.5,456.428h4.91c-.554,2.861,1.6,4.739,5.4,4.739,4.1,0,7.186-1.836,7.715-4.568s-1.849-4.569-5.947-4.569h-2.733l.876-4.526h2.732c3.544,0,6.232-1.537,6.678-3.843.454-2.348-1.631-3.928-5.174-3.928a6.634,6.634,0,0,0-6.736,5.466H1848.4a12.225,12.225,0,0,1,12.435-9.992c6.617,0,10.412,3.117,9.5,7.814-.471,2.434-2.733,5.081-5.626,6.575a6.716,6.716,0,0,1,3.7,7.558c-.991,5.124-6.391,8.539-13.478,8.539C1848.189,465.693,1844.425,461.979,1845.5,456.428Z" fill="#fff"/>
          <path id="Path_19455" data-name="Path 19455" d="M1871.213,460.783l16.047-9.906a9.619,9.619,0,0,0,4.161-6.063c.587-3.031-1.407-5.081-5.036-5.081s-6.549,2.733-7.35,6.875h-4.824c1.321-6.832,6.56-11.4,13.049-11.4,6.7,0,10.4,3.843,9.285,9.607a15.513,15.513,0,0,1-7.024,9.821l-9.686,5.935h13.619l-.875,4.525h-22.2Z" fill="#fff"/>
        </g>
      </g>
      <g id="Group_11377" data-name="Group 11377">
        <g id="Group_11376" data-name="Group 11376">
          <path id="Path_19456" data-name="Path 19456" d="M1815.034,474.419h7.309l-.255,1.32h-5.825l-.632,3.267h5.065l-.255,1.321h-5.065l-1.047,5.413h-1.485Z" fill="#fff"/>
          <path id="Path_19457" data-name="Path 19457" d="M1823.235,477.488h1.32l-.22,1.139a3.553,3.553,0,0,1,2.612-1.3,1.229,1.229,0,0,1,.644.165l-.191.99h-.561a2.93,2.93,0,0,0-2.947,2.443l-.932,4.819h-1.32Z" fill="#fff"/>
          <path id="Path_19458" data-name="Path 19458" d="M1828.912,477.488h1.32l-1.6,8.252h-1.32Zm.594-3.069h1.32l-.351,1.815h-1.32Z" fill="#fff"/>
          <path id="Path_19459" data-name="Path 19459" d="M1831.019,481.614a5,5,0,0,1,4.921-4.291,3.012,3.012,0,0,1,2.7,1.568l.865-4.472h1.32l-2.19,11.321h-1.319l.271-1.4a4.688,4.688,0,0,1-3.307,1.568C1831.822,485.9,1830.52,484.188,1831.019,481.614Zm7.095,0c.364-1.882-.549-3.136-2.265-3.136a3.608,3.608,0,0,0-3.51,3.136c-.364,1.881.548,3.136,2.3,3.136A3.6,3.6,0,0,0,1838.114,481.614Z" fill="#fff"/>
          <path id="Path_19460" data-name="Path 19460" d="M1841.019,481.614a4.975,4.975,0,0,1,4.855-4.291,2.971,2.971,0,0,1,2.637,1.551l.268-1.386h1.32l-1.6,8.252h-1.32l.268-1.386a4.638,4.638,0,0,1-3.237,1.551C1841.805,485.9,1840.52,484.188,1841.019,481.614Zm6.962,0c.364-1.882-.515-3.136-2.2-3.136a3.581,3.581,0,0,0-3.444,3.136c-.364,1.881.531,3.136,2.231,3.136A3.563,3.563,0,0,0,1847.981,481.614Z" fill="#fff"/>
          <path id="Path_19461" data-name="Path 19461" d="M1852.626,485.245l-1.635-7.757h1.4l1.237,6.057,3.548-6.057h1.419l-6.645,11.321h-1.419Z" fill="#fff"/>
        </g>
      </g>
    </g>
    <g id="Group_11379" data-name="Group 11379">
      <path id="Path_19462" data-name="Path 19462" d="M1687.741,572.386h0a18.25,18.25,0,0,1-18.087-20.7l5.2-38.493h36.835l-5.863,43.382A18.252,18.252,0,0,1,1687.741,572.386Z" fill="#ff5722"/>
      <path id="Path_19463" data-name="Path 19463" d="M1724.505,572.386h0a18.252,18.252,0,0,1-18.087-20.7l5.2-38.493h36.836l-5.864,43.382A18.251,18.251,0,0,1,1724.505,572.386Z" fill="#fff"/>
      <path id="Path_19464" data-name="Path 19464" d="M1761.269,572.386h0a18.252,18.252,0,0,1-18.087-20.7l5.2-38.493h36.835l-5.863,43.382A18.252,18.252,0,0,1,1761.269,572.386Z" fill="#ff5722"/>
      <path id="Path_19465" data-name="Path 19465" d="M1798.034,572.386h0a18.251,18.251,0,0,1-18.087-20.7l5.2-38.493h36.835l-5.863,43.382A18.252,18.252,0,0,1,1798.034,572.386Z" fill="#fff"/>
      <path id="Path_19466" data-name="Path 19466" d="M1834.8,572.386h0a18.251,18.251,0,0,1-18.087-20.7l5.2-38.493h36.835l-5.863,43.382A18.251,18.251,0,0,1,1834.8,572.386Z" fill="#ff5722"/>
      <path id="Path_19467" data-name="Path 19467" d="M1871.562,572.386h0a18.252,18.252,0,0,1-18.087-20.7l5.2-38.493h36.835l-5.864,43.382A18.251,18.251,0,0,1,1871.562,572.386Z" fill="#fff"/>
      <path id="Path_19468" data-name="Path 19468" d="M1908.327,572.386h0a18.252,18.252,0,0,1-18.088-20.7l5.2-38.493h36.835l-5.863,43.382A18.252,18.252,0,0,1,1908.327,572.386Z" fill="#ff5722"/>
      <path id="Path_19469" data-name="Path 19469" d="M1945.091,572.386h0A18.25,18.25,0,0,1,1927,551.69l5.2-38.493h36.835l-5.863,43.382A18.251,18.251,0,0,1,1945.091,572.386Z" fill="#fff"/>
      <path id="Path_19470" data-name="Path 19470" d="M1979.745,498.133H1705.592L1674.856,513.2h294.185l9.278-4.547Z" fill="#fff"/>
      <path id="Path_19471" data-name="Path 19471" d="M1705.592,498.133,1674.856,513.2h36.63l30.735-15.065Z" fill="#ff794e"/>
      <path id="Path_19472" data-name="Path 19472" d="M1779.191,498.133,1748.456,513.2h36.63l30.735-15.065Z" fill="#ff794e"/>
      <path id="Path_19473" data-name="Path 19473" d="M1852.791,498.133,1822.055,513.2h36.63l30.735-15.065Z" fill="#ff794e"/>
      <path id="Path_19474" data-name="Path 19474" d="M1926.39,498.133,1895.654,513.2h36.63l30.735-15.065Z" fill="#ff794e"/>
    </g>
    <path id="Path_19475" data-name="Path 19475" d="M1901.6,671.835c0-.03-.008-.07-.011-.119-.017-.244-.022-.707-.027-1.246a25.3,25.3,0,0,0-.124-2.824q-.016-.106-.036-.189c-.026-.111-.053-.235-.084-.368s-.065-.272-.1-.414-.088-.287-.143-.427a2.768,2.768,0,0,0-.16-.334c-.027-.049-.056-.1-.086-.142a1.7,1.7,0,0,0-.216-.272,1.373,1.373,0,0,0-.163-.14,1.25,1.25,0,0,0-.266-.142,1.428,1.428,0,0,0-.636-.1h0a2.289,2.289,0,0,0-.3.043c-.419.089-.9.164-1.4.223a11.859,11.859,0,0,1-3.979-.056c-.468-.152-1.385-.382-2.324-.607-.4-.1-.809-.192-1.186-.281l-.367-.086c-.59-.138-1.068-.251-1.278-.307a3.964,3.964,0,0,1-.771-.248,2.7,2.7,0,0,1-.458-.282c-.055-.042-.113-.087-.173-.138-.12-.1-.249-.219-.388-.361-.07-.07-.142-.146-.217-.228-.151-.165-.313-.353-.489-.57-.088-.109-.18-.225-.275-.348a49.285,49.285,0,0,1-2.783-4.447c-.448-.775-.891-1.558-1.3-2.278-.068-.12-.134-.239-.2-.355l-.548-.983-.163-.294-.63-1.134c-.06-.107-.11-.2-.148-.261a7.8,7.8,0,0,1-1.65-5.471c.026-.731.117-1.968.25-3.485.058-.651.123-1.353.2-2.089s.149-1.506.231-2.292c.11-1.048.228-2.125.35-3.189.06-.532.122-1.061.185-1.581.093-.781.188-1.542.282-2.267.032-.241.063-.479.094-.711.063-.466.124-.912.185-1.334.213-1.478.414-2.66.58-3.32.379-1.509.906-4.323,1.433-6.991.066-.333.132-.665.2-.991.033-.163.066-.325.1-.485.229-1.121.452-2.162.657-3q.043-.18.087-.348c.057-.223.112-.428.166-.612a7.084,7.084,0,0,1,.228-.681l.145-.356c.247-.61.519-1.286.764-1.948.049-.133.1-.265.144-.395.14-.392.266-.773.368-1.125a7.661,7.661,0,0,0,.222-.952,2.493,2.493,0,0,0,.035-.486,1.1,1.1,0,0,0-.025-.187.465.465,0,0,0-.071-.147c-.009-.013-.02-.027-.031-.041a.942.942,0,0,0-.108-.112c-.012-.011-.023-.023-.037-.034a2.047,2.047,0,0,0-.194-.138l-.054-.031c-.06-.035-.125-.071-.194-.1-.028-.015-.057-.029-.086-.043q-.113-.053-.237-.105l-.061-.026c-.1-.04-.2-.079-.313-.118-.045-.017-.093-.032-.14-.049l-.214-.07-.164-.052c-.079-.024-.16-.047-.241-.07-.106-.031-.214-.06-.324-.089l-.145-.039-.263-.065-.093-.023c-1.019-.244-2.1-.431-2.893-.536a157.945,157.945,0,0,0-16.7-.108c-3.9.282-8.413,1.682-8.948,3.079,0,0-1.885,8.207-1.469,13.224.341,4.109,1.128,13.354.9,15.587-.229,2.28-2.093,9.075-2.374,10.935s-1.441,5.728-1.441,5.728a60.523,60.523,0,0,0-3.315,5.083c-.942,1.844-2.807,8.292-4.292,14.769,2.119.853,9.256,3.32,15.775,2.284l.012,0q.546-.087,1.086-.208l.054-.012c.34-.077.676-.167,1.01-.267l.191-.059c.331-.1.66-.215.983-.343.377-.925.693-1.891.915-2.626.215-.659.4-1.253.5-1.576.2-.272.681-.609,1.8-.589,1.009.018,3.019.431,3.808,1.5.714.97,2.83,4.223,4.251,4.874a11.593,11.593,0,0,0,6.083,1.035,83.516,83.516,0,0,0,14.214-2.056,47.85,47.85,0,0,0,6.037-2.069h0l.093-.039.366-.155.177-.077.24-.1.168-.075.2-.091.146-.066.176-.081.12-.056.145-.069.094-.045.122-.059.057-.029.12-.061a1.461,1.461,0,0,0,.685-.7A1.064,1.064,0,0,0,1901.6,671.835Z" fill="#bf411a"/>
    <g id="Group_11382" data-name="Group 11382">
      <g id="Group_11380" data-name="Group 11380">
        <path id="Path_19476" data-name="Path 19476" d="M1848.242,603.55s-1.885,8.207-1.469,13.224c.341,4.109,1.128,13.354.9,15.587-.229,2.28-2.093,9.075-2.374,10.935s-1.44,5.728-1.44,5.728a60.274,60.274,0,0,0-3.315,5.083c-.942,1.843-2.808,8.291-4.293,14.769,2.49,1,11.909,4.237,19.111,1.393a33.84,33.84,0,0,0,1.266-3.869s.087-.955,1.954-.922c1.01.018,3.019.431,3.809,1.5.713.97,2.829,4.222,4.25,4.874a11.605,11.605,0,0,0,6.084,1.035,83.537,83.537,0,0,0,14.214-2.056,47.309,47.309,0,0,0,8.265-3.077,1.251,1.251,0,0,0,.753-1.276c-.072-.485.014-3.495-.2-4.378s-.48-2.649-2.159-2.291a14.335,14.335,0,0,1-5.377.167c-1.069-.348-4.482-1.1-5.155-1.281s-1.247-.2-2.771-2.175-5.162-8.7-5.765-9.752a7.793,7.793,0,0,1-1.65-5.471c.117-3.342,1.591-17.25,2.352-20.268s2.107-11.254,2.865-13.11,1.865-4.563,1.653-5.449-3.908-1.636-5.863-1.893a157.943,157.943,0,0,0-16.7-.108C1853.288,600.753,1848.778,602.153,1848.242,603.55Z" fill="#ff794e"/>
      </g>
      <g id="Group_11381" data-name="Group 11381">
        <path id="Path_19477" data-name="Path 19477" d="M1854.439,665.535c-1.953-.034-2.045.965-2.045.965s-.909,3.163-1.507,4.806a16.611,16.611,0,0,0,4.477-1.037c.375-.921,1.214-3.528,1.435-4.262A7.572,7.572,0,0,0,1854.439,665.535Z" fill="#ff9a7a"/>
        <path id="Path_19478" data-name="Path 19478" d="M1895.959,666.48c-.072-.485.014-3.495-.2-4.378s-.48-2.649-2.159-2.291a14.335,14.335,0,0,1-5.377.167c-1.069-.348-4.482-1.1-5.155-1.281s-1.247-.2-2.771-2.175-5.163-8.7-5.765-9.752a7.793,7.793,0,0,1-1.65-5.471c.117-3.342,1.591-17.25,2.352-20.268s2.107-11.254,2.865-13.11,1.865-4.563,1.653-5.449c-.151-.634-2.114-1.2-3.931-1.568a.682.682,0,0,1,.247.341c.222.928-.943,3.765-1.73,5.7s-2.206,10.56-3,13.72-2.338,17.713-2.461,21.21a8.162,8.162,0,0,0,1.727,5.726c.631,1.1,4.439,8.141,6.033,10.205s2.2,2.087,2.9,2.276,4.275.977,5.4,1.341a14.982,14.982,0,0,0,5.626-.175c1.757-.374,2.042,1.47,2.26,2.4s.133,4.075.208,4.583a1.1,1.1,0,0,1-.051.533c1.2-.5,2.011-.893,2.229-1.008A1.252,1.252,0,0,0,1895.959,666.48Z" fill="#ff9a7a"/>
      </g>
    </g>
    <path id="Path_19479" data-name="Path 19479" d="M1861.012,775.919c.019-.04.038-.08.056-.12.088-.185.173-.369.252-.551l0-.005c.076-.176.146-.351.212-.525l.043-.115q.094-.26.17-.515c.008-.028.015-.055.022-.083.043-.156.08-.31.109-.463.006-.029.012-.057.017-.085a4.492,4.492,0,0,0,.058-.495c0-.036,0-.071.005-.107a3.48,3.48,0,0,0-.013-.5c-.094-.946-.223-2.022-.379-3.029-.033-.215-.068-.427-.1-.634l-.013-.073c-.037-.215-.076-.424-.117-.625l-.007-.036c-.043-.209-.086-.409-.131-.6l0-.014c-.046-.192-.093-.372-.142-.537v0c-.4-1.342-1.113-2.856-1.006-4.2s.3-3.7.873-4.7c-2.491-.335-2.993-.335-4.116-1.008a15.311,15.311,0,0,1-1.906-1.343,66.178,66.178,0,0,1-4.035,6.385,8.707,8.707,0,0,1-5.468,3.185,6.58,6.58,0,0,1-1.43.081h0c-.091-.005-.179-.018-.269-.028-.12-.012-.238-.025-.355-.044-.1-.016-.192-.036-.287-.057s-.217-.052-.323-.083c-.089-.026-.179-.049-.266-.08a4.868,4.868,0,0,1-.5-.2h0a4.839,4.839,0,0,1-1.638-1.265c-1.16-1.383-2.74-3.525-2.79-9.235-2.624,1.345-3.129,1.345-4.3,1.345s-3.035.166-3.035.166l-.121,1.512a53.024,53.024,0,0,1-3.194,8.4l-.23.4h0v0c-.083.144-.164.289-.245.435l-.084.154q-.109.2-.216.4l-.074.143q-.185.351-.351.7c-.034.071-.069.141-.1.211-.051.109-.1.217-.145.324-.034.078-.067.155-.1.232-.043.1-.085.21-.125.314-.028.076-.054.151-.08.226-.036.1-.073.2-.1.3-.041.133-.075.263-.1.39a4.261,4.261,0,0,0-.111.64v.012c-.011.133-.017.267-.02.4a8.988,8.988,0,0,0,.058,1.3l.006.05c.032.263.073.527.128.79l0,.018c.053.252.118.5.192.751.015.05.031.1.047.15.078.245.162.487.26.723h0c.041.1.085.213.13.334h0a19.549,19.549,0,0,1,1.155,6.717c-.09,1.123-.077,3.758-.118,6.4-.011.781-.028,1.56-.053,2.3-.022.643-.05,1.255-.088,1.813h0c-.027.417-.06.8-.1,1.148l0,.038c-.018.159-.038.307-.059.447l-.012.074c-.021.137-.044.267-.069.382-.019.09-.039.184-.058.277h0c-.531,2.493-1.3,5.825-2.391,7.279a30.185,30.185,0,0,0-1.778,3.086h0c-.457.868-.947,1.828-1.424,2.79h0q-.243.492-.481.978v0h0q-.165.337-.324.668h0l0,0c-.184.382-.362.755-.53,1.113l-.029.062c-.071.149-.139.3-.206.439l-.041.089c-.075.161-.148.319-.217.471h0c-.326.714-.586,1.313-.743,1.719a43.025,43.025,0,0,0-2.371,10.751,17.151,17.151,0,0,0,.074,2.006h0c.02.225.044.44.068.648l.005.038c.023.2.047.39.071.574v.007h0c.165,1.26.307,2.184-.032,2.77-.2.349-.468.759-.731,1.144a2.168,2.168,0,0,0,.078,2.655,20.675,20.675,0,0,0,13.3,6.948,61.12,61.12,0,0,0,14.089-.214q4.219-.411,8.416-1.207c2.464-.47,5.056-1.02,7.119-2.58.967-.731.811-.813.349-1.733a14.289,14.289,0,0,1-1.012-2.321c-.4-1.346.335-4.2.536-6.722.145-1.821.751-7.246.818-11.634,0-.064,0-.127,0-.19,0-.154,0-.308,0-.459V813.6c0-.149,0-.295,0-.44,0-.063,0-.126,0-.188-.007-.4-.021-.792-.042-1.161,0-.057-.007-.112-.011-.168-.008-.126-.017-.251-.027-.373-.005-.06-.01-.12-.016-.18q-.016-.177-.036-.345c-.006-.051-.011-.1-.018-.153-.02-.157-.041-.31-.065-.454h0c-.04-.24-.082-.487-.124-.739s-.086-.514-.129-.778h0c-.036-.216-.072-.437-.108-.658h0c-.041-.256-.084-.515-.126-.775h0q-.1-.645-.208-1.294c-.5-3.109-.987-6.151-1.248-7.177a16.079,16.079,0,0,1,.17-6.383c.15-.531.362-1.432.581-2.463h0v0a39.476,39.476,0,0,0,.945-6.1,12.065,12.065,0,0,1,1.432-5.38c.288-.616.6-1.219.9-1.809l.067-.133C1860.839,776.275,1860.927,776.1,1861.012,775.919Z" fill="#6c98e3"/>
    <g id="Group_11385" data-name="Group 11385">
      <g id="Group_11383" data-name="Group 11383">
        <path id="Path_19480" data-name="Path 19480" d="M1826.524,752.108a53.121,53.121,0,0,1-3.193,8.4,14.079,14.079,0,0,0-2.07,4.873,9.266,9.266,0,0,0,.675,4.2,19.569,19.569,0,0,1,1.285,7.051c-.175,2.185.038,10.082-.5,12.6s-1.317,6.048-2.449,7.556a98.486,98.486,0,0,0-5.777,11.424,43.074,43.074,0,0,0-2.371,10.751c-.075,3.022.772,5.034.187,6.044-.2.35-.468.759-.73,1.145a2.164,2.164,0,0,0,.078,2.654,20.676,20.676,0,0,0,13.3,6.949,61.175,61.175,0,0,0,14.089-.215q4.219-.411,8.416-1.206c2.464-.471,5.056-1.021,7.119-2.581.967-.731.811-.812.349-1.732a14.313,14.313,0,0,1-1.012-2.322c-.4-1.346.335-4.2.536-6.722s1.283-11.929.6-15.958-1.559-9.91-1.944-11.421a16.082,16.082,0,0,1,.17-6.383,52.538,52.538,0,0,0,1.527-8.562,12.05,12.05,0,0,1,1.433-5.38c1.018-2.181,2.352-4.2,2.16-6.042a35.8,35.8,0,0,0-.9-5.546c-.4-1.343-1.113-2.856-1.006-4.2s.295-3.7.873-4.7c-2.491-.336-2.993-.336-4.116-1.009a15.368,15.368,0,0,1-1.906-1.342,66.311,66.311,0,0,1-4.035,6.385,8.705,8.705,0,0,1-5.468,3.184,5.27,5.27,0,0,1-5.072-1.679c-1.16-1.383-2.74-3.526-2.79-9.236-2.624,1.346-3.129,1.346-4.3,1.346s-3.035.166-3.035.166Z" fill="#89ade9"/>
      </g>
      <g id="Group_11384" data-name="Group 11384">
        <path id="Path_19481" data-name="Path 19481" d="M1848.168,784.153c-.051.643,1.3,1.162,3.005,1.16a5.687,5.687,0,0,0,2.691-.565c.075-.356.152-.729.227-1.106a4.713,4.713,0,0,0-2.735-.656C1849.645,782.989,1848.218,783.511,1848.168,784.153Z" fill="#d1e1fc"/>
        <path id="Path_19482" data-name="Path 19482" d="M1843,786.356c-1.3,1.213-2.019,2.563-1.6,3.016s1.815-.163,3.118-1.376,2.018-2.563,1.6-3.016S1844.3,785.143,1843,786.356Z" fill="#d1e1fc"/>
        <path id="Path_19483" data-name="Path 19483" d="M1848.9,787.986c1.115,1.207,2.416,1.816,2.906,1.361s-.017-1.8-1.132-3.009-2.416-1.817-2.906-1.362S1847.78,786.778,1848.9,787.986Z" fill="#d1e1fc"/>
        <path id="Path_19484" data-name="Path 19484" d="M1854.2,767.743c-1.3,1.213-2.018,2.563-1.6,3.016s1.816-.163,3.118-1.376,2.018-2.563,1.6-3.016S1855.5,766.53,1854.2,767.743Z" fill="#d1e1fc"/>
        <path id="Path_19485" data-name="Path 19485" d="M1837.079,803.063c-.05.642,1.3,1.161,3.006,1.159s3.137-.524,3.188-1.167-1.295-1.161-3.006-1.159S1837.13,802.42,1837.079,803.063Z" fill="#d1e1fc"/>
        <path id="Path_19486" data-name="Path 19486" d="M1846.958,784.735a.64.64,0,0,0,.627-.58.529.529,0,0,0-.535-.581.64.64,0,0,0-.626.581A.527.527,0,0,0,1846.958,784.735Z" fill="#d1e1fc"/>
        <path id="Path_19487" data-name="Path 19487" d="M1846.435,791.511c.643,0,1.271-1.389,1.4-3.1s-.281-3.095-.924-3.094-1.271,1.389-1.4,3.1S1845.792,791.513,1846.435,791.511Z" fill="#d1e1fc"/>
        <path id="Path_19488" data-name="Path 19488" d="M1857.625,765.542a.528.528,0,0,0,.534.581.609.609,0,0,0,.12-.024c-.043-.369-.089-.742-.141-1.115A.634.634,0,0,0,1857.625,765.542Z" fill="#d1e1fc"/>
        <path id="Path_19489" data-name="Path 19489" d="M1856.879,771.975c.856-1.69,1.677-3.273,1.524-4.748-.015-.147-.032-.3-.048-.452a.463.463,0,0,0-.239-.07c-.643,0-1.271,1.389-1.4,3.1A6.3,6.3,0,0,0,1856.879,771.975Z" fill="#d1e1fc"/>
        <path id="Path_19490" data-name="Path 19490" d="M1834.905,767.743c-1.3,1.213-2.018,2.563-1.6,3.016s1.816-.163,3.118-1.376,2.018-2.563,1.6-3.016S1836.207,766.53,1834.905,767.743Z" fill="#d1e1fc"/>
        <path id="Path_19491" data-name="Path 19491" d="M1817.2,803.064a.534.534,0,0,0-.132-.4c-.163.329-.325.657-.483.981A.637.637,0,0,0,1817.2,803.064Z" fill="#d1e1fc"/>
        <path id="Path_19492" data-name="Path 19492" d="M1823.7,786.356a8.779,8.779,0,0,0-.741.784,15.831,15.831,0,0,1-.244,2.088c-.019.09-.039.184-.058.277a5.447,5.447,0,0,0,2.563-1.509c1.3-1.213,2.018-2.563,1.6-3.016S1825.006,785.143,1823.7,786.356Z" fill="#d1e1fc"/>
        <path id="Path_19493" data-name="Path 19493" d="M1828.595,783.332c.418.454,1.815-.159,3.12-1.369s2.024-2.559,1.606-3.013-1.816.159-3.121,1.369S1828.177,782.878,1828.595,783.332Z" fill="#d1e1fc"/>
        <path id="Path_19494" data-name="Path 19494" d="M1842.832,783.007c-1.711.006-3.137.532-3.186,1.174s1.3,1.158,3.009,1.152,3.137-.532,3.186-1.174S1844.543,783,1842.832,783.007Z" fill="#d1e1fc"/>
        <path id="Path_19495" data-name="Path 19495" d="M1820.627,800.872c1.305-1.21,2.024-2.559,1.605-3.013s-1.815.159-3.12,1.369c-.228.212-.431.428-.621.642-.351.667-.72,1.387-1.09,2.122a.456.456,0,0,0,.106.249C1817.925,802.7,1819.322,802.082,1820.627,800.872Z" fill="#d1e1fc"/>
        <path id="Path_19496" data-name="Path 19496" d="M1826.543,784.159c.049-.643-1.3-1.158-3.008-1.152-.147,0-.29.006-.431.014-.012.782-.029,1.564-.054,2.308.1,0,.2.005.308,0C1825.068,785.327,1826.495,784.8,1826.543,784.159Z" fill="#d1e1fc"/>
        <path id="Path_19497" data-name="Path 19497" d="M1843.7,770.734c.49-.455-.017-1.8-1.132-3.009s-2.416-1.817-2.906-1.362.017,1.8,1.132,3.01S1843.216,771.19,1843.7,770.734Z" fill="#d1e1fc"/>
        <path id="Path_19498" data-name="Path 19498" d="M1835.064,784.146c.05-.642-1.295-1.162-3.005-1.16s-3.138.525-3.188,1.167,1.3,1.162,3.005,1.16S1835.013,784.789,1835.064,784.146Z" fill="#d1e1fc"/>
        <path id="Path_19499" data-name="Path 19499" d="M1828.466,784.976c-.49.455.017,1.8,1.132,3.01s2.416,1.816,2.906,1.361-.017-1.8-1.132-3.009S1828.955,784.521,1828.466,784.976Z" fill="#d1e1fc"/>
        <path id="Path_19500" data-name="Path 19500" d="M1839.8,764.719c.419.454,1.816-.159,3.121-1.369s2.024-2.559,1.6-3.013-1.815.159-3.12,1.369S1839.378,764.265,1839.8,764.719Z" fill="#d1e1fc"/>
        <path id="Path_19501" data-name="Path 19501" d="M1851.368,821.668c.051-.642-1.3-1.161-3.005-1.159s-3.138.524-3.188,1.167,1.295,1.161,3.005,1.159S1851.318,822.311,1851.368,821.668Z" fill="#d1e1fc"/>
        <path id="Path_19502" data-name="Path 19502" d="M1847.1,782.992c.642,0,1.274-1.387,1.41-3.1s-.274-3.1-.916-3.1-1.274,1.386-1.41,3.1S1846.455,782.992,1847.1,782.992Z" fill="#d1e1fc"/>
        <path id="Path_19503" data-name="Path 19503" d="M1844.77,822.5c-.49.455.017,1.8,1.132,3.01s2.416,1.816,2.906,1.361-.017-1.8-1.132-3.009S1845.26,822.043,1844.77,822.5Z" fill="#d1e1fc"/>
        <path id="Path_19504" data-name="Path 19504" d="M1812.195,820.965c.042.456.094.878.145,1.268a.81.81,0,0,0,.434-.565C1812.8,821.4,1812.576,821.16,1812.195,820.965Z" fill="#d1e1fc"/>
        <path id="Path_19505" data-name="Path 19505" d="M1846.505,817.841c-1.305,1.21-2.024,2.559-1.606,3.013s1.816-.159,3.121-1.369,2.023-2.559,1.6-3.013S1847.81,816.631,1846.505,817.841Z" fill="#d1e1fc"/>
        <path id="Path_19506" data-name="Path 19506" d="M1821.357,764.793a6.333,6.333,0,0,0,2.263-1.443c1.305-1.21,2.023-2.559,1.6-3.013-.312-.338-1.168-.082-2.125.571A15.971,15.971,0,0,0,1821.357,764.793Z" fill="#d1e1fc"/>
        <path id="Path_19507" data-name="Path 19507" d="M1838.085,761.282c-.136,1.71.274,3.1.916,3.1s1.274-1.387,1.411-3.1a7.662,7.662,0,0,0,.005-1.2,5.329,5.329,0,0,1-2.005-.5A7.43,7.43,0,0,0,1838.085,761.282Z" fill="#d1e1fc"/>
        <path id="Path_19508" data-name="Path 19508" d="M1838.148,764.723c.489-.456-.022-1.8-1.14-3.006s-2.421-1.811-2.909-1.355.021,1.8,1.139,3.007S1837.659,765.179,1838.148,764.723Z" fill="#d1e1fc"/>
        <path id="Path_19509" data-name="Path 19509" d="M1827.138,791.511c.642,0,1.271-1.389,1.4-3.1s-.281-3.095-.924-3.094-1.271,1.389-1.4,3.1S1826.495,791.512,1827.138,791.511Z" fill="#d1e1fc"/>
        <path id="Path_19510" data-name="Path 19510" d="M1844.6,814.321c-.642,0-1.274,1.386-1.41,3.1s.274,3.1.916,3.1,1.274-1.387,1.411-3.1S1845.241,814.321,1844.6,814.321Z" fill="#d1e1fc"/>
        <path id="Path_19511" data-name="Path 19511" d="M1816.05,810.42c.642,0,1.27-1.389,1.4-3.1s-.282-3.095-.924-3.094a.545.545,0,0,0-.269.083c-.378.785-.729,1.53-1.025,2.18a7.924,7.924,0,0,0-.109.837C1814.993,809.037,1815.407,810.422,1816.05,810.42Z" fill="#d1e1fc"/>
        <path id="Path_19512" data-name="Path 19512" d="M1838.862,766.123a.64.64,0,0,0,.627-.581.528.528,0,0,0-.534-.581.64.64,0,0,0-.627.581A.528.528,0,0,0,1838.862,766.123Z" fill="#d1e1fc"/>
        <path id="Path_19513" data-name="Path 19513" d="M1838.339,772.9c.643,0,1.271-1.389,1.4-3.1s-.281-3.1-.923-3.094-1.271,1.389-1.4,3.1S1837.7,772.9,1838.339,772.9Z" fill="#d1e1fc"/>
        <path id="Path_19514" data-name="Path 19514" d="M1827.661,784.735a.641.641,0,0,0,.627-.58.529.529,0,0,0-.535-.581.641.641,0,0,0-.627.581A.529.529,0,0,0,1827.661,784.735Z" fill="#d1e1fc"/>
        <path id="Path_19515" data-name="Path 19515" d="M1844.058,821.1a.64.64,0,0,0-.627.581.528.528,0,0,0,.534.581.64.64,0,0,0,.627-.581A.528.528,0,0,0,1844.058,821.1Z" fill="#d1e1fc"/>
        <path id="Path_19516" data-name="Path 19516" d="M1836.5,795.708c-.643,0-1.274,1.386-1.411,3.1s.274,3.1.917,3.1,1.274-1.386,1.41-3.1S1837.145,795.708,1836.5,795.708Z" fill="#d1e1fc"/>
        <path id="Path_19517" data-name="Path 19517" d="M1835.962,802.484a.64.64,0,0,0-.627.58.529.529,0,0,0,.535.581.641.641,0,0,0,.627-.581A.528.528,0,0,0,1835.962,802.484Z" fill="#d1e1fc"/>
        <path id="Path_19518" data-name="Path 19518" d="M1854.569,802.065q-.106-.663-.214-1.331a6.131,6.131,0,0,0-1.042-1.495c-1.119-1.205-2.421-1.811-2.91-1.355s.021,1.8,1.14,3.007,2.421,1.81,2.909,1.354A.523.523,0,0,0,1854.569,802.065Z" fill="#d1e1fc"/>
        <ellipse id="Ellipse_441" data-name="Ellipse 441" cx="3.099" cy="1.162" rx="3.099" ry="1.162" transform="translate(1831.53 764.447) rotate(-0.953)" fill="#d1e1fc"/>
        <path id="Path_19519" data-name="Path 19519" d="M1823.551,821.681c.049-.642-1.3-1.158-3.009-1.152s-3.137.532-3.186,1.174,1.3,1.158,3.009,1.152S1823.5,822.324,1823.551,821.681Z" fill="#d1e1fc"/>
        <path id="Path_19520" data-name="Path 19520" d="M1821.333,764.9a4.092,4.092,0,0,0-.072.475c-.021.263-.025.532-.021.8a5.338,5.338,0,0,0,2.54.518c1.71,0,3.138-.524,3.188-1.167s-1.3-1.161-3.005-1.159A5.858,5.858,0,0,0,1821.333,764.9Z" fill="#d1e1fc"/>
        <path id="Path_19521" data-name="Path 19521" d="M1840.072,765.541c-.051.642,1.295,1.161,3.005,1.159s3.138-.524,3.188-1.167-1.3-1.161-3.005-1.159S1840.122,764.9,1840.072,765.541Z" fill="#d1e1fc"/>
        <path id="Path_19522" data-name="Path 19522" d="M1857.381,761.292c-.114,1.461.17,2.681.657,3a20.792,20.792,0,0,0-.534-2.613C1857.466,761.553,1857.424,761.423,1857.381,761.292Z" fill="#d1e1fc"/>
        <path id="Path_19523" data-name="Path 19523" d="M1842.194,778.975c-.489.456.022,1.8,1.14,3.006s2.421,1.811,2.91,1.355-.022-1.8-1.14-3.007S1842.683,778.519,1842.194,778.975Z" fill="#d1e1fc"/>
        <path id="Path_19524" data-name="Path 19524" d="M1857.445,764.723c.489-.456-.021-1.8-1.14-3.006s-2.421-1.811-2.909-1.355.021,1.8,1.139,3.007S1856.956,765.179,1857.445,764.723Z" fill="#d1e1fc"/>
        <path id="Path_19525" data-name="Path 19525" d="M1850.847,765.568c-.048.643,1.3,1.159,3.009,1.153s3.137-.532,3.186-1.175-1.3-1.158-3.009-1.152S1850.9,764.926,1850.847,765.568Z" fill="#d1e1fc"/>
        <path id="Path_19526" data-name="Path 19526" d="M1847.892,783.332c.418.454,1.815-.159,3.12-1.369s2.024-2.559,1.606-3.013-1.816.159-3.121,1.369S1847.474,782.878,1847.892,783.332Z" fill="#d1e1fc"/>
        <path id="Path_19527" data-name="Path 19527" d="M1827.8,782.992c.642,0,1.274-1.387,1.41-3.1s-.274-3.1-.916-3.1-1.274,1.386-1.41,3.1S1827.157,782.992,1827.8,782.992Z" fill="#d1e1fc"/>
        <path id="Path_19528" data-name="Path 19528" d="M1854.327,803.889c-.419-.453-1.815.163-3.118,1.376s-2.018,2.563-1.6,3.016,1.815-.163,3.118-1.376S1854.747,804.342,1854.327,803.889Z" fill="#d1e1fc"/>
        <path id="Path_19529" data-name="Path 19529" d="M1822.23,825.518c1.3-1.213,2.018-2.563,1.6-3.016s-1.816.163-3.118,1.376-2.018,2.563-1.6,3.016S1820.928,826.731,1822.23,825.518Z" fill="#d1e1fc"/>
        <path id="Path_19530" data-name="Path 19530" d="M1843.126,822.5c-.42-.453-1.816.163-3.118,1.376s-2.018,2.563-1.6,3.016,1.816-.163,3.118-1.376S1843.545,822.955,1843.126,822.5Z" fill="#d1e1fc"/>
        <path id="Path_19531" data-name="Path 19531" d="M1854.644,810.42a.831.831,0,0,0,.615-.421,28.243,28.243,0,0,0-.2-4.984c-.042-.241-.083-.49-.126-.743-.571.241-1.092,1.516-1.211,3.055C1853.588,809.037,1854,810.422,1854.644,810.42Z" fill="#d1e1fc"/>
        <path id="Path_19532" data-name="Path 19532" d="M1843.442,829.033c.643,0,1.271-1.389,1.4-3.1s-.281-3.1-.923-3.094-1.271,1.389-1.4,3.1S1842.8,829.035,1843.442,829.033Z" fill="#d1e1fc"/>
        <path id="Path_19533" data-name="Path 19533" d="M1835.347,810.42c.642,0,1.27-1.389,1.4-3.1s-.281-3.095-.924-3.094-1.271,1.389-1.4,3.1S1834.7,810.422,1835.347,810.42Z" fill="#d1e1fc"/>
        <path id="Path_19534" data-name="Path 19534" d="M1829.066,820.509c-1.71,0-3.138.524-3.188,1.167s1.295,1.161,3.005,1.159,3.138-.524,3.188-1.167S1830.776,820.507,1829.066,820.509Z" fill="#d1e1fc"/>
        <path id="Path_19535" data-name="Path 19535" d="M1835.03,803.889c-.42-.453-1.815.163-3.118,1.376s-2.018,2.563-1.6,3.016,1.815-.163,3.117-1.376S1835.449,804.342,1835.03,803.889Z" fill="#d1e1fc"/>
        <path id="Path_19536" data-name="Path 19536" d="M1824.145,829.033c.643,0,1.271-1.389,1.4-3.1s-.281-3.1-.924-3.094-1.27,1.389-1.4,3.1S1823.5,829.035,1824.145,829.033Z" fill="#d1e1fc"/>
        <path id="Path_19537" data-name="Path 19537" d="M1824.807,820.514c.643,0,1.274-1.387,1.41-3.1s-.273-3.1-.916-3.1-1.274,1.386-1.41,3.1S1824.165,820.514,1824.807,820.514Z" fill="#d1e1fc"/>
        <path id="Path_19538" data-name="Path 19538" d="M1829.511,826.869c.49-.455-.017-1.8-1.132-3.009s-2.416-1.817-2.906-1.362.017,1.8,1.132,3.01S1829.021,827.324,1829.511,826.869Z" fill="#d1e1fc"/>
        <path id="Path_19539" data-name="Path 19539" d="M1820.788,804.222c1.71,0,3.137-.524,3.188-1.167s-1.295-1.161-3.006-1.159-3.137.524-3.188,1.167S1819.077,804.224,1820.788,804.222Z" fill="#d1e1fc"/>
        <path id="Path_19540" data-name="Path 19540" d="M1823.954,820.858c.489-.456-.022-1.8-1.14-3.007s-2.421-1.81-2.91-1.354.022,1.8,1.14,3.006S1823.465,821.314,1823.954,820.858Z" fill="#d1e1fc"/>
        <path id="Path_19541" data-name="Path 19541" d="M1824.668,822.258a.64.64,0,0,0,.627-.581.528.528,0,0,0-.534-.581.64.64,0,0,0-.627.581A.528.528,0,0,0,1824.668,822.258Z" fill="#d1e1fc"/>
        <path id="Path_19542" data-name="Path 19542" d="M1823.149,778.85c-.008.58-.014,1.222-.02,1.9a6.409,6.409,0,0,0,.908,1.235c1.118,1.2,2.421,1.811,2.909,1.355s-.021-1.8-1.139-3.007C1824.844,779.293,1823.748,778.7,1823.149,778.85Z" fill="#d1e1fc"/>
        <path id="Path_19543" data-name="Path 19543" d="M1821.241,766.287a9.273,9.273,0,0,0,.7,3.292c.041.1.085.213.13.334.959.832,1.933,1.2,2.342.821.49-.455-.017-1.8-1.132-3.009A5.115,5.115,0,0,0,1821.241,766.287Z" fill="#d1e1fc"/>
        <path id="Path_19544" data-name="Path 19544" d="M1821.416,808.256c.489-.455-.018-1.8-1.133-3.009s-2.416-1.817-2.906-1.362.018,1.8,1.133,3.01S1820.926,808.712,1821.416,808.256Z" fill="#d1e1fc"/>
        <path id="Path_19545" data-name="Path 19545" d="M1854.8,803.5q-.053-.326-.108-.659a.637.637,0,0,0-.063.224A.528.528,0,0,0,1854.8,803.5Z" fill="#d1e1fc"/>
        <path id="Path_19546" data-name="Path 19546" d="M1839.662,822.855c1.711-.006,3.137-.531,3.186-1.174s-1.3-1.158-3.009-1.152-3.137.532-3.186,1.174S1837.951,822.861,1839.662,822.855Z" fill="#d1e1fc"/>
        <path id="Path_19547" data-name="Path 19547" d="M1840.713,808.256c.489-.455-.017-1.8-1.133-3.009s-2.416-1.817-2.906-1.362.018,1.8,1.133,3.01S1840.223,808.712,1840.713,808.256Z" fill="#d1e1fc"/>
        <path id="Path_19548" data-name="Path 19548" d="M1842.111,817.851c-1.118-1.2-2.421-1.81-2.91-1.354s.022,1.8,1.14,3.006,2.421,1.811,2.91,1.355S1843.229,819.056,1842.111,817.851Z" fill="#d1e1fc"/>
        <path id="Path_19549" data-name="Path 19549" d="M1854.049,803.068c.049-.642-1.3-1.158-3.008-1.152s-3.137.532-3.186,1.174,1.3,1.159,3.008,1.153S1854,803.711,1854.049,803.068Z" fill="#d1e1fc"/>
        <path id="Path_19550" data-name="Path 19550" d="M1828.723,819.485c1.3-1.21,2.023-2.559,1.6-3.013s-1.815.159-3.12,1.369-2.024,2.559-1.606,3.013S1827.418,820.7,1828.723,819.485Z" fill="#d1e1fc"/>
        <path id="Path_19551" data-name="Path 19551" d="M1834.752,803.068c.049-.642-1.3-1.158-3.008-1.152s-3.137.532-3.186,1.174,1.3,1.159,3.008,1.153S1834.7,803.711,1834.752,803.068Z" fill="#d1e1fc"/>
        <path id="Path_19552" data-name="Path 19552" d="M1834.016,799.239c-1.119-1.205-2.421-1.811-2.91-1.355s.021,1.8,1.14,3.007,2.42,1.81,2.909,1.354S1835.134,800.443,1834.016,799.239Z" fill="#d1e1fc"/>
        <path id="Path_19553" data-name="Path 19553" d="M1839.924,800.872c1.305-1.21,2.024-2.559,1.606-3.013s-1.816.159-3.121,1.369-2.024,2.559-1.605,3.013S1838.619,802.082,1839.924,800.872Z" fill="#d1e1fc"/>
      </g>
    </g>
    <g id="Group_11388" data-name="Group 11388">
      <path id="Path_19554" data-name="Path 19554" d="M1753.57,628.9c-1.467-3.63-3.814-6.715-5.264-10.357a14.917,14.917,0,0,1-1.161-5.563c0-2.132.728-4.313,1.08-6.473a8.5,8.5,0,0,0-.917-6.056,14,14,0,0,0-4.231-3.926,30.609,30.609,0,0,0-11.582-4.886,17.738,17.738,0,0,0-6.74-.008,16.536,16.536,0,0,0-6.4,2.98,38.6,38.6,0,0,0-5.279,4.9,62.157,62.157,0,0,0-4.9,5.964c-2.912,4.028-5.135,8.4-8.126,12.385a41.645,41.645,0,0,1-4.866,5.325c-1.809,1.7-3.67,3.35-5.359,5.166-2.964,3.187-5.451,7.4-5.138,11.318a6.882,6.882,0,0,0,.31,1.556l-3.395,15.8c-2.622,12.208,5.149,22.1,17.357,22.1h25.093c12.208,0,24.23-9.9,26.852-22.1l3.727-17.35a6.414,6.414,0,0,0,.134-1.707A16.493,16.493,0,0,0,1753.57,628.9Zm-54.137-7.59c3.233-3.583,5.494-7.749,8.031-11.72a60.488,60.488,0,0,1,9.161-11.276,21.1,21.1,0,0,1,5.328-3.89,13.24,13.24,0,0,1,6.09-1.214,20.558,20.558,0,0,1,5.968,1.148,31.867,31.867,0,0,1,5.5,2.421,24.157,24.157,0,0,1,4.687,3.255,6.379,6.379,0,0,1,2.279,4.608c.043,2.089-.735,4.277-1.073,6.4a15.029,15.029,0,0,0,.232,5.9c.871,3.682,2.931,6.737,4.661,9.929a21.293,21.293,0,0,1,2.669,7.445,5.4,5.4,0,0,0-3.472-1.169H1693.26a8.373,8.373,0,0,0-6.322,3.228,15.385,15.385,0,0,1,2.673-5.144C1692.439,627.55,1696.323,624.759,1699.433,621.312Z" fill="#002daa"/>
      <g id="Group_11387" data-name="Group 11387">
        <path id="Path_19555" data-name="Path 19555" d="M1718.573,676.186H1693.48c-12.208,0-19.979-9.9-17.356-22.1l3.727-17.35a8.539,8.539,0,0,1,7.936-6.533h56.236a5.116,5.116,0,0,1,5.13,6.533l-3.727,17.35C1742.8,666.289,1730.781,676.186,1718.573,676.186Z" fill="#1942b2"/>
        <g id="Group_11386" data-name="Group 11386">
          <path id="Path_19556" data-name="Path 19556" d="M1748.125,638.572c2.163-4.4,1.483-8.877-.028-12.617-1.467-3.631-3.815-6.716-5.264-10.358a14.912,14.912,0,0,1-1.162-5.562c0-2.132.729-4.313,1.081-6.473a8.506,8.506,0,0,0-.917-6.057,14,14,0,0,0-4.232-3.925,30.6,30.6,0,0,0-11.582-4.886,17.738,17.738,0,0,0-6.74-.008,16.532,16.532,0,0,0-6.4,2.98,38.484,38.484,0,0,0-5.28,4.9,62.4,62.4,0,0,0-4.9,5.963c-2.912,4.029-5.135,8.4-8.127,12.386a41.721,41.721,0,0,1-4.865,5.325c-1.809,1.7-3.67,3.35-5.36,5.166-2.963,3.187-5.45,7.4-5.138,11.318a6.443,6.443,0,0,0,.731,2.563.858.858,0,0,0,1.226.34c.453-.235.843-.888.62-1.3-1.6-2.951.022-7.01,2.353-10.042,2.827-3.679,6.711-6.471,9.822-9.917,3.233-3.583,5.493-7.75,8.03-11.72a60.532,60.532,0,0,1,9.162-11.277,21.107,21.107,0,0,1,5.328-3.889,13.209,13.209,0,0,1,6.09-1.214,20.558,20.558,0,0,1,5.967,1.148,31.868,31.868,0,0,1,5.5,2.42,24.213,24.213,0,0,1,4.688,3.256,6.378,6.378,0,0,1,2.279,4.607c.043,2.089-.735,4.277-1.074,6.4a15.029,15.029,0,0,0,.232,5.9c.871,3.682,2.931,6.737,4.662,9.929,1.752,3.23,3.359,7.088,2.551,11.271a11.383,11.383,0,0,1-.976,2.874c-.58,1.18,1.144,1.684,1.723.505Z" fill="#1942b2"/>
        </g>
        <path id="Path_19557" data-name="Path 19557" d="M1747.685,643.565l.514-2.393a67.032,67.032,0,0,1-17.9,8.774,60.212,60.212,0,0,1-12.649,2.217,70.181,70.181,0,0,1-11.989-.074A60.888,60.888,0,0,1,1683.922,646a38.308,38.308,0,0,1-5.37-3.227l-.475,2.212c.7.482,1.413.936,2.135,1.361a58.938,58.938,0,0,0,21.633,7.247,71.03,71.03,0,0,0,25.232-.955A64.5,64.5,0,0,0,1747.685,643.565Z" fill="#6681cc"/>
        <ellipse id="Ellipse_442" data-name="Ellipse 442" cx="3.881" cy="3.132" rx="3.881" ry="3.132" transform="matrix(0.744, -0.668, 0.668, 0.744, 1703.93, 660.116)" fill="#6681cc"/>
      </g>
    </g>
    <g id="Group_11392" data-name="Group 11392">
      <path id="Path_19558" data-name="Path 19558" d="M1710.449,730.256v47.079l9.911-19.114,3.352-17.549a16.452,16.452,0,0,1,16.861-13.351l2.442.1v37.168L1727.25,793.93a75.929,75.929,0,0,1-16.058,20.469l-25.6,23.068-8.581,7.569a19.7,19.7,0,0,0-6.149,10.277l-19.353,92.028h-77.789L1611.883,830.6a15.625,15.625,0,0,0,1.033-5.478l.467-64.451a21.983,21.983,0,0,1,9.318-17.81l4.469-3.15a11.754,11.754,0,0,1,4.083-1.834l26.453-6.205,10-19.747a13.422,13.422,0,0,1,12.219-7.356l11.053.2,17.363-56.59a8.08,8.08,0,0,1,7.725-5.711h0a8.08,8.08,0,0,1,7.961,9.461Z" fill="#fff"/>
      <path id="Path_19559" data-name="Path 19559" d="M1715.013,703.933l4.7,8.9a9.411,9.411,0,0,1,1.033,5.44l-1.962,17.663a7.548,7.548,0,0,1-7.5,6.715h-.835v-12.39Z" fill="#fff"/>
      <g id="Group_11389" data-name="Group 11389">
        <path id="Path_19560" data-name="Path 19560" d="M1711.285,743.908h-2.1l.018-13.868,5.2-29.969,6.431,12.167a10.636,10.636,0,0,1,1.173,6.17l-1.962,17.662A8.8,8.8,0,0,1,1711.285,743.908Zm.427-13.543v11a6.278,6.278,0,0,0,5.819-5.577l1.962-17.662a8.127,8.127,0,0,0-.9-4.71l-2.973-5.625Z" fill="#002daa"/>
      </g>
      <g id="Group_11390" data-name="Group 11390">
        <path id="Path_19561" data-name="Path 19561" d="M1685.317,727.98a1.288,1.288,0,0,1-.317-.04,1.264,1.264,0,0,1-.907-1.539l5.664-21.947a1.263,1.263,0,0,1,2.446.632l-5.664,21.946A1.263,1.263,0,0,1,1685.317,727.98Z" fill="#002daa"/>
      </g>
      <path id="Path_19562" data-name="Path 19562" d="M1740.527,727.32c-1.7,2.205-2.5,5.58-2.7,8.492-.512,7.635-.122,15.375-1.676,22.868-3.634,17.532-17.32,31.225-31.868,41.661s-30.721,18.869-43.344,31.566c-2.748,2.764-5.357,5.791-6.8,9.412-2.767,6.945-.839,14.738-.344,22.2,1.065,16.073-4.733,31.718-10.438,46.782-3.6,9.5-7.3,19.177-13.674,27.083-2.8,3.468-6.062,6.543-8.913,9.959h30.734l19.353-92.026v0a19.7,19.7,0,0,1,1.547-4.288q.339-.68.728-1.33a19.7,19.7,0,0,1,3.874-4.659l8.581-7.569,25.6-23.068a75.968,75.968,0,0,0,16.058-20.469l15.765-29.338V727.424l-2.442-.1Z" fill="#b3cdfa"/>
      <g id="Group_11391" data-name="Group 11391">
        <path id="Path_19563" data-name="Path 19563" d="M1573.718,948.6a1.264,1.264,0,0,1-1.2-1.656l38.186-116.8a14.3,14.3,0,0,0,.95-5.035l.467-64.451a23.293,23.293,0,0,1,9.853-18.833l4.469-3.15a12.959,12.959,0,0,1,4.523-2.032l25.88-6.07,9.736-19.223a14.779,14.779,0,0,1,13.369-8.048l10.1.184,17.083-55.681a9.344,9.344,0,0,1,18.139,4.337l-13.562,78.219v41.791l7.442-14.353,3.318-17.368a17.813,17.813,0,0,1,18.155-14.376l3.651.155v38.7l-15.915,29.618a76.977,76.977,0,0,1-16.326,20.809l-25.6,23.068-8.59,7.578a18.339,18.339,0,0,0-5.755,9.618l-19.348,92a1.263,1.263,0,1,1-2.471-.52l19.353-92.028a20.872,20.872,0,0,1,6.55-10.965l8.581-7.568,25.591-23.059a74.456,74.456,0,0,0,15.792-20.129l15.614-29.058V728.635l-1.232-.053a15.292,15.292,0,0,0-15.567,12.327l-3.387,17.729-12.38,23.877.018-52.475,13.581-78.326a6.817,6.817,0,0,0-13.235-3.164l-17.642,57.5-12-.218a12.223,12.223,0,0,0-11.069,6.663l-10.268,20.273-27.025,6.339a10.412,10.412,0,0,0-3.644,1.637l-4.47,3.15a20.762,20.762,0,0,0-8.782,16.786l-.466,64.451a16.85,16.85,0,0,1-1.106,5.891l-38.156,116.712A1.264,1.264,0,0,1,1573.718,948.6Z" fill="#f7be1c"/>
      </g>
    </g>
  </g>
</svg>
