<svg height="512" viewBox="0 0 24 24" width="512" xmlns="http://www.w3.org/2000/svg"><path d="m8 4h-2.5c-.82842712 0-1.5.67157288-1.5 1.5v13c0 .8284271.67157288 1.5 1.5 1.5h2.5zm1 0v16h9.5c.8284271 0 1.5-.6715729 1.5-1.5v-13c0-.82842712-.6715729-1.5-1.5-1.5zm-6 1.5c0-1.38071187 1.11928813-2.5 2.5-2.5h13c1.3807119 0 2.5 1.11928813 2.5 2.5v13c0 1.3807119-1.1192881 2.5-2.5 2.5h-13c-1.38071187 0-2.5-1.1192881-2.5-2.5zm8.5 2.5c-.2761424 0-.5-.22385763-.5-.5s.2238576-.5.5-.5h6c.2761424 0 .5.22385763.5.5s-.2238576.5-.5.5zm0 2c-.2761424 0-.5-.22385763-.5-.5s.2238576-.5.5-.5h6c.2761424 0 .5.22385763.5.5s-.2238576.5-.5.5zm0 2c-.2761424 0-.5-.2238576-.5-.5s.2238576-.5.5-.5h4c.2761424 0 .5.2238576.5.5s-.2238576.5-.5.5zm0 3c-.2761424 0-.5-.2238576-.5-.5s.2238576-.5.5-.5h6c.2761424 0 .5.2238576.5.5s-.2238576.5-.5.5zm0 2c-.2761424 0-.5-.2238576-.5-.5s.2238576-.5.5-.5h4c.2761424 0 .5.2238576.5.5s-.2238576.5-.5.5z"/></svg>