<svg xmlns="http://www.w3.org/2000/svg" xmlns:xlink="http://www.w3.org/1999/xlink" width="40.447" height="40.458" viewBox="0 0 40.447 40.458">
  <defs>
    <clipPath id="clip-path">
      <rect id="Rectangle_10440" data-name="Rectangle 10440" width="40.447" height="40.458" fill="none"/>
    </clipPath>
  </defs>
  <g id="Group_11432" data-name="Group 11432" opacity="0.5">
    <g id="Group_11431" data-name="Group 11431" clip-path="url(#clip-path)">
      <path id="Path_19605" data-name="Path 19605" d="M40.447,19.041v2.37c-.025.14-.052.279-.073.419-.126.871-.2,1.753-.385,2.611a19.646,19.646,0,0,1-7.507,11.835,19.618,19.618,0,0,1-16.508,3.7A19.525,19.525,0,0,1,4.2,32.526,19.671,19.671,0,0,1,.1,18.2,19.541,19.541,0,0,1,5.038,6.9a19.859,19.859,0,0,1,11.7-6.58C17.5.179,18.269.1,19.036,0h2.37a2.173,2.173,0,0,0,.3.065,19.249,19.249,0,0,1,8.824,2.783,19.963,19.963,0,0,1,9.6,13.9c.142.758.212,1.53.315,2.295M20.234,3.142A17.084,17.084,0,1,0,37.305,20.229,17.1,17.1,0,0,0,20.234,3.142" transform="translate(0)"/>
      <path id="Path_19606" data-name="Path 19606" d="M188.431,101.054c0-1.514-.009-3.028,0-4.542a1.572,1.572,0,0,1,2.112-1.575,1.615,1.615,0,0,1,1.03,1.657c0,2.646.007,5.293-.006,7.939a.846.846,0,0,0,.381.781q2.606,1.92,5.182,3.882a1.565,1.565,0,1,1-1.872,2.5c-1.448-1.074-2.887-2.161-4.329-3.242-.569-.426-1.128-.865-1.708-1.276a1.8,1.8,0,0,1-.8-1.583c.008-1.514,0-3.028,0-4.542" transform="translate(-169.783 -85.45)"/>
    </g>
  </g>
</svg>
