<svg xmlns="http://www.w3.org/2000/svg" xmlns:xlink="http://www.w3.org/1999/xlink" width="60" height="60.008" viewBox="0 0 60 60.008">
  <defs>
    <clipPath id="clip-path">
      <rect id="Rectangle_10497" data-name="Rectangle 10497" width="60" height="60.008" fill="none"/>
    </clipPath>
  </defs>
  <g id="Group_11575" data-name="Group 11575" opacity="0.6">
    <g id="Group_11574" data-name="Group 11574" clip-path="url(#clip-path)">
      <path id="Path_19635" data-name="Path 19635" d="M0,42.538V8.32A2.478,2.478,0,0,0,.106,8,9.266,9.266,0,0,1,7.027.3C7.45.177,7.889.1,8.32,0H51.679a.915.915,0,0,0,.208.091A9.348,9.348,0,0,1,60,9.674q0,15.76,0,31.52a9.383,9.383,0,0,1-9.661,9.65q-11.688,0-23.376-.01a1.424,1.424,0,0,0-1.122.46q-3.459,3.5-6.956,6.963a5.552,5.552,0,0,1-7.593.467,5.181,5.181,0,0,1-2.044-4.044c-.035-1.263-.007-2.527-.007-3.8-.35-.044-.62-.08-.89-.112A9.364,9.364,0,0,1,.291,43.778C.185,43.367.1,42.952,0,42.538M30.039,4.688q-10.283,0-20.566,0a4.662,4.662,0,0,0-4.782,4.78q-.012,15.937,0,31.874a4.691,4.691,0,0,0,4.585,4.809,4.544,4.544,0,0,1,4.639,4.87c0,1.094-.036,2.19.026,3.28a1.335,1.335,0,0,0,.509.885c.438.314.838.036,1.18-.308,2.345-2.351,4.714-4.677,7.033-7.053a5.342,5.342,0,0,1,4.075-1.687c7.851.031,15.7.015,23.554.014a4.713,4.713,0,0,0,5.019-5.024q0-15.7,0-31.406a4.707,4.707,0,0,0-5.058-5.039H30.039"/>
      <path id="Path_19636" data-name="Path 19636" d="M104.42,107.983q-6.822,0-13.644,0a2.344,2.344,0,0,1-.289-4.678c.117-.008.234-.006.351-.006q13.644,0,27.288,0a2.347,2.347,0,1,1,.054,4.684q-5.856.007-11.711,0H104.42" transform="translate(-74.482 -87.124)"/>
      <path id="Path_19637" data-name="Path 19637" d="M98.692,196.308c-2.675,0-5.351.01-8.026-.005a2.337,2.337,0,0,1-.511-4.62,2.576,2.576,0,0,1,.58-.06q7.938,0,15.876,0a2.34,2.34,0,0,1,.514,4.636,3.851,3.851,0,0,1-.758.047q-3.837,0-7.675,0" transform="translate(-74.489 -161.622)"/>
      <path id="Path_19638" data-name="Path 19638" d="M246.2,196.243c-.41,0-.82.018-1.228,0a2.338,2.338,0,0,1,.029-4.671c.818-.028,1.639-.027,2.457,0a2.338,2.338,0,0,1,.03,4.671c-.428.023-.858,0-1.287,0" transform="translate(-204.745 -161.56)"/>
    </g>
  </g>
</svg>
