<svg xmlns="http://www.w3.org/2000/svg" xmlns:xlink="http://www.w3.org/1999/xlink" width="65.84" height="59.665" viewBox="0 0 65.84 59.665">
  <defs>
    <clipPath id="clip-path">
      <rect id="Rectangle_10492" data-name="Rectangle 10492" width="65.84" height="59.665" fill="none"/>
    </clipPath>
  </defs>
  <g id="Group_11552" data-name="Group 11552" opacity="0.8">
    <g id="Group_11551" data-name="Group 11551" clip-path="url(#clip-path)">
      <path id="Path_19628" data-name="Path 19628" d="M0,17.944c.24-1.28.388-2.585.737-3.834A18.438,18.438,0,0,1,10.2,2.324,18.669,18.669,0,0,1,27.625,2a17.775,17.775,0,0,1,4.546,3.108l.736.684c.581-.5,1.126-1.012,1.706-1.475A19.12,19.12,0,0,1,61.451,7.041a18.8,18.8,0,0,1,4.313,14A29.073,29.073,0,0,1,61.056,34.08a60.391,60.391,0,0,1-9.883,11.714A121.625,121.625,0,0,1,33.368,59.5a.662.662,0,0,1-.85.021,114.541,114.541,0,0,1-20.5-16.376A48.6,48.6,0,0,1,2.494,29.821,25.769,25.769,0,0,1,.112,21.266,3.524,3.524,0,0,0,0,20.774v-2.83m32.848-5.727c-.42-.558-.871-1.152-1.316-1.75a14.87,14.87,0,0,0-5.744-4.836,14.675,14.675,0,0,0-14.766.931,14.538,14.538,0,0,0-6.9,11.86A20.02,20.02,0,0,0,6.247,28.24a45.142,45.142,0,0,0,8.629,12A103.358,103.358,0,0,0,32.59,54.663a.778.778,0,0,0,.708-.02c3.193-2.31,6.446-4.547,9.532-6.994A65.684,65.684,0,0,0,57.316,32.356a26.248,26.248,0,0,0,4.239-10.317,14.954,14.954,0,0,0-1.789-10.295A14.679,14.679,0,0,0,47.19,4.161,14.114,14.114,0,0,0,36.611,8c-1.356,1.26-2.482,2.767-3.763,4.219" transform="translate(0 0)"/>
    </g>
  </g>
</svg>
