<svg xmlns="http://www.w3.org/2000/svg" width="122.646" height="122.646" viewBox="0 0 122.646 122.646">
  <g id="Group_8597" data-name="Group 8597" transform="translate(-61.111 -2908.363)">
    <circle id="Ellipse_253" data-name="Ellipse 253" cx="61.323" cy="61.323" r="61.323" transform="translate(61.111 2908.363)" fill="#fff"/>
    <g id="Group_8596" data-name="Group 8596" opacity="0.8">
      <path id="Path_15509" data-name="Path 15509" d="M134.834,2941.842a11.705,11.705,0,0,0-1.561,1.122q-12.477,12.438-24.929,24.9a2.216,2.216,0,0,0-.773,2.476,3.442,3.442,0,0,0,.8,1.136q8.771,8.8,17.565,17.579,3.786,3.786,7.581,7.568a3.471,3.471,0,0,0,1.045.75,2.055,2.055,0,0,0,2.458-.75,2.085,2.085,0,0,0-.07-2.573,7.327,7.327,0,0,0-.521-.553q-11.668-11.672-23.341-23.339a3.778,3.778,0,0,0-.532-.376v-.227a3.736,3.736,0,0,0,.529-.374q11.733-11.723,23.462-23.448a2.293,2.293,0,0,0,.764-2.346,2.33,2.33,0,0,0-1.61-1.548Z"/>
    </g>
  </g>
</svg>
