<svg id="Group_11398" data-name="Group 11398" xmlns="http://www.w3.org/2000/svg" xmlns:xlink="http://www.w3.org/1999/xlink" width="201.993" height="237.286" viewBox="0 0 201.993 237.286">
  <defs>
    <clipPath id="clip-path">
      <rect id="Rectangle_2702" data-name="Rectangle 2702" width="201.993" height="237.286" fill="none"/>
    </clipPath>
  </defs>
  <g id="Group_11397" data-name="Group 11397">
    <g id="Group_11396" data-name="Group 11396" clip-path="url(#clip-path)">
      <path id="Path_19567" data-name="Path 19567" d="M218.162,102.478c-.1-.621-.291-1.546.454-1.852a7.319,7.319,0,0,1,2.063-.243c.98-.1,1.964-.155,2.944-.262,1.751-.191,3.5-.38,5.253-.577l15.791-1.775c.77-.087,3.2-.784,3.838-.373.533.34.639,2.522.781,3.147.543,2.393,1.178,4.764,1.846,7.125,2.657,9.384,5.951,18.741,6.468,28.563a57.208,57.208,0,0,1-5.656,27.317,6.312,6.312,0,0,0-.275-1.785,6.119,6.119,0,0,0-.331-.839c3.116-7.712,5.087-15.95,4.728-24.24-.507-11.728-5.577-22.744-7.767-34.278-.222-1.169-.567-2.54-1.679-2.964a3.443,3.443,0,0,0-1.611-.076l-22.384,2.506a3.56,3.56,0,0,0-2.371.884,3.662,3.662,0,0,0-.478,2.8c1.073,11.433-.681,23.135,1.825,34.342a49.7,49.7,0,0,0,3.349,9.838c-.563.129-1.09.285-1.614.408a53.317,53.317,0,0,1-3.165-9.485c-.05-.217-.095-.434-.141-.651q-.151-.7-.285-1.4a96.236,96.236,0,0,1-1.285-18.166c.008-3.428.073-6.856.052-10.284a52.709,52.709,0,0,0-.351-7.683" transform="translate(-111.769 -49.854)" fill="#f7c948"/>
      <path id="Path_19568" data-name="Path 19568" d="M264.316,253.245c.472-.28.939-.571,1.405-.863a47.408,47.408,0,0,1,3.069,9.72c-.061-.161-.127-.321-.2-.478a6.584,6.584,0,0,0-1.87-2.367c-.118-.094-.241-.182-.367-.268q-.311-1.106-.632-2.072a.091.091,0,0,0,0-.012c-.477-1.443-.958-2.661-1.4-3.66" transform="translate(-135.474 -129.358)" fill="#8e5511"/>
      <path id="Path_19569" data-name="Path 19569" d="M251.832,290.478a62.924,62.924,0,0,0,7.658-3.67c4.532-2.416,3.806-8.259,2.487-18.867-.026-.214-.054-.432-.08-.649l-.249-2.027c-.056-.457-.111-.919-.167-1.39-.011-.091-.022-.177-.034-.268a.965.965,0,0,0,.868-.726,9.576,9.576,0,0,0,.293-2.586c.179,1.072.342,2.2.482,3.391.146,1.239.3,2.477.454,3.716q.11.891.221,1.783a15.8,15.8,0,0,1,.225,1.864c.234,1.988.452,3.981.551,5.981a25.064,25.064,0,0,1-.141,4.8,9.882,9.882,0,0,1-1.2,3.66,7.354,7.354,0,0,1-2.615,2.563c-.111.065-.223.126-.335.188-2.2,1.174-3.879,2-5.109,2.579,12.549,1.28,21.173-2.005,24.88-3.848-1.369-.225-3.371-.6-6.157-1.234a7.537,7.537,0,0,1-3.246-1.58,9.039,9.039,0,0,1-2.192-2.959,21.217,21.217,0,0,1-1.456-4.284c-.446-1.832-.765-3.694-1.057-5.556-.408-2.592-.745-5.193-1.139-7.787-.039-.257-.083-.514-.122-.771-1.318-8.742-.625-14.68.028-17.784a10.593,10.593,0,0,0,2.009-1.332c-.561,1.908-2.028,8.3-.434,18.873.039.256.076.509.114.761l.317,2.166c.055.381.11.758.163,1.127,1.525,10.579,2.365,16.407,7.374,17.543a62.828,62.828,0,0,0,8.354,1.52.811.811,0,0,1,.419,1.474c-.386.27-8.176,5.593-22.116,5.593a59.018,59.018,0,0,1-8.915-.694.811.811,0,0,1-.137-1.57" transform="translate(-128.793 -124.899)" fill="#f7c948"/>
      <path id="Path_19570" data-name="Path 19570" d="M254.15,199.131a6.465,6.465,0,0,0-2.371-1.185,9.006,9.006,0,0,0-4.862.29.823.823,0,0,1-1.042-.947,7.48,7.48,0,0,0-.3-3.877,6.2,6.2,0,0,0-3.724-3.739c-2.289-.77-4.769.014-7.176.213-1.031.085-2.068.08-3.1.152a41.892,41.892,0,0,1-4.3-12.69.81.81,0,0,1,.8-.934h30.1a.81.81,0,0,1,.81.792C259.229,187.509,255.261,196.755,254.15,199.131Z" transform="translate(-116.485 -90.42)" fill="#f7c948"/>
      <path id="Path_19571" data-name="Path 19571" d="M259.164,277.708a3.862,3.862,0,0,1-1.924-2.865,2.794,2.794,0,0,1,.3-1.71.282.282,0,0,1,.507.04l.006.015a10.478,10.478,0,0,0,.566,1.267,8.265,8.265,0,0,0,.664,1.047,8.688,8.688,0,0,0,.8.925,12.949,12.949,0,0,0,.99.887l.028.023a.425.425,0,0,1-.218.749,2.855,2.855,0,0,1-1.719-.378" transform="translate(-131.836 -139.921)" fill="#181818"/>
      <path id="Path_19572" data-name="Path 19572" d="M229.658,212.241a.415.415,0,0,1,.721.357l0,.015a9.462,9.462,0,0,0-.238,1.852,6.922,6.922,0,0,0,.19,1.764,6.363,6.363,0,0,0,.684,1.644,7.961,7.961,0,0,0,1.144,1.477l.009.01a.413.413,0,0,1-.451.67,4.687,4.687,0,0,1-1.816-1.351,5.353,5.353,0,0,1-1.075-2.052,5.176,5.176,0,0,1-.1-2.318,4.424,4.424,0,0,1,.94-2.067" transform="translate(-117.186 -108.708)" fill="#181818"/>
      <path id="Path_19573" data-name="Path 19573" d="M306.934,211.082a52.028,52.028,0,0,0,5.855.449.348.348,0,0,1,.091.684l-.047.012A20.618,20.618,0,0,1,302.141,212a.509.509,0,0,0-.617.681,23.271,23.271,0,0,0,24.785,14.2.362.362,0,0,1,.172.7,13.128,13.128,0,0,1-2.655.626,22.061,22.061,0,0,1-15.154-3.64,25.794,25.794,0,0,1-9.6-12.4,2.639,2.639,0,0,0-1.728-1.973c-.639-.318-1.257-.674-1.862-1.052.2-.771.393-1.546.565-2.325a27.689,27.689,0,0,0,10.884,4.266" transform="translate(-151.45 -106.003)" fill="#181818"/>
      <path id="Path_19574" data-name="Path 19574" d="M251.219,266.5a6.278,6.278,0,0,1,2.278-2.025,5.412,5.412,0,0,1,1.494-.52,5.017,5.017,0,0,1,.8-.079,4.762,4.762,0,0,1,.8.039,5.811,5.811,0,0,1,2.826,1.231,6.581,6.581,0,0,1,1.87,2.368,7.734,7.734,0,0,1,.7,2.859,9.518,9.518,0,0,1-.29,2.856.973.973,0,0,1-1.886-.476,6.633,6.633,0,0,0-.309-4.4,4.287,4.287,0,0,0-3.17-2.451,3.713,3.713,0,0,0-3.435,1.752,4.366,4.366,0,0,0-.743,1.932,4.644,4.644,0,0,0,.263,2.066,6.313,6.313,0,0,0,2.874,3.254,7.064,7.064,0,0,0,2.124.746,9.024,9.024,0,0,0,2.314.128,11.274,11.274,0,0,0,1.3-.17l.249,2.027a13.61,13.61,0,0,1-1.412.176A10.11,10.11,0,0,1,254.3,276.7a8.345,8.345,0,0,1-3.814-4.343,6.663,6.663,0,0,1-.375-3.015,6.411,6.411,0,0,1,1.1-2.841" transform="translate(-128.175 -135.247)" fill="#181818"/>
      <path id="Path_19575" data-name="Path 19575" d="M290.846,220.8a4.467,4.467,0,0,1,1.529.622,6.06,6.06,0,0,1,1.17,1,10.226,10.226,0,0,1,.89,1.119l.365.53c.111.165.232.324.354.481,1.955,2.535,4.953,4.211,8.016,5.544a29.531,29.531,0,0,0,4.754,1.567,24.878,24.878,0,0,0,4.92.672,16.652,16.652,0,0,0,5.655-.789,13.532,13.532,0,0,0,2.691-1.225c.4-.238,1.521-1.087,1.823-.3.342.9-2.1,2.055-2.7,2.324-.662.3-1.469.656-1.626,1.452a3.01,3.01,0,0,0,.887,2.517c1.63,1.6,5.308,1.99,7.591,1.335,4.778-1.371,8.195-5.495,9.806-7.83,3.166-4.589,10.241-20.329,7.416-28.581a7.115,7.115,0,0,0-2.148-3.24,7.878,7.878,0,0,0-2.38-1.246c-.415-.15-1.9-1.017-2.154-.307-.183.509.125,1.358.15,1.895a15.4,15.4,0,0,1-.525,4.436,12.193,12.193,0,0,1-1.17,2.94.351.351,0,0,1-.655-.211l0-.019c.119-1.01.26-1.978.311-2.962s.1-1.955.07-2.933c0-.488-.014-.977-.041-1.465-.251-4.446-1.121-8.886-3.956-12.466a16.878,16.878,0,0,0-6.037-4.772,15.24,15.24,0,0,0-6.417-1.481h-.385a5.608,5.608,0,0,1-3.838-.92,5.445,5.445,0,0,1-.922-1.08c-.1-.141-.2-.283-.306-.418-1.181-1.5-3.481-2.259-6.156-2.04a28.987,28.987,0,0,0-3.839.666c-.986.216-2,.434-3.033.579a5.581,5.581,0,0,1,.384.407,5.148,5.148,0,0,1,1.22,2.879.267.267,0,0,1-.524.088,4.343,4.343,0,0,0-1.458-2.208,4.172,4.172,0,0,0-1.736-.849,6.8,6.8,0,0,1,.411,1.446,6.337,6.337,0,0,1-.4,3.537.247.247,0,0,1-.466-.157,5.517,5.517,0,0,0-1.885-5.533.9.9,0,0,1-.113-.1.844.844,0,0,1-.1-.142,8.616,8.616,0,0,1-2.763-3.8,7.469,7.469,0,0,0-2.29-3.258,2.718,2.718,0,0,0-1.05-.386c-.065-.551-.139-1.1-.219-1.65a4.409,4.409,0,0,1,2.143.67,8.745,8.745,0,0,1,2.879,3.924c.681,1.424,1.325,2.769,2.532,3.34a5.188,5.188,0,0,0,2.726.259,33.541,33.541,0,0,0,3.4-.623,30.434,30.434,0,0,1,4.054-.7c3.264-.266,6.019.7,7.56,2.65.124.158.241.322.357.487a4.131,4.131,0,0,0,.642.776,4.332,4.332,0,0,0,2.784.54h.4a17.988,17.988,0,0,1,16.646,12.42c.07.234.137.473.206.715a10.422,10.422,0,0,0,.9,2.472,3.391,3.391,0,0,0,2.384,1.595c.259.065.527.132.8.218a8.287,8.287,0,0,1,5.553,5.509c3.052,8.915-4.211,25.092-7.615,30.026-1.734,2.514-5.43,6.957-10.693,8.468a10.527,10.527,0,0,1-2.854.369,9.291,9.291,0,0,1-6.321-2.106,4.4,4.4,0,0,1-1.329-2.758.972.972,0,0,0-1.142-.873,17.234,17.234,0,0,1-3.148.269,24.754,24.754,0,0,1-5.311-.661,32.229,32.229,0,0,1-9.8-4.074,16.388,16.388,0,0,1-4.087-3.624c-.144-.182-.285-.365-.416-.557l-.371-.531a8.35,8.35,0,0,0-.722-.9,3.085,3.085,0,0,0-1.646-1.014,4.635,4.635,0,0,0-1.024-.024c-.183.025-.366.033-.549.067l-.549.117a10.471,10.471,0,0,0-2.18.885c-1.183.615-2.341,1.389-3.608,2.11l-.317-2.166c.957-.573,1.934-1.194,3-1.739a9.122,9.122,0,0,1,5.609-1.2" transform="translate(-144.661 -85.322)" fill="#181818"/>
      <path id="Path_19576" data-name="Path 19576" d="M211.186,192.823a11.545,11.545,0,0,0,3.868,2.1.9.9,0,0,1,.46,1.349,7.758,7.758,0,0,0,4.46,11.822,1.091,1.091,0,0,1,.747,1.429,8.764,8.764,0,0,0,2.168,9.359A11.373,11.373,0,0,0,230,221.512a32.077,32.077,0,0,0,7.263-.72c-.181-.55-.363-1.065-.543-1.549l-.246.044a32.082,32.082,0,0,1-6.73.522,9.359,9.359,0,0,1-4.189-.871,7.875,7.875,0,0,1-3.494-4.762,5.207,5.207,0,0,1,.079-4.025,3.257,3.257,0,0,1,2.385-1.582,1.246,1.246,0,0,1,1.4,1.056,6.051,6.051,0,0,0,3.746,4.761c.252.095.573.162.727-.139a.541.541,0,0,0-.158-.642,6.985,6.985,0,0,1-2.224-3.864,1.747,1.747,0,0,1,1.1-1.98,13.22,13.22,0,0,0,4.556-2.9,7.2,7.2,0,0,1,1.225-1.073,5.636,5.636,0,0,1,1.373-.536c2.132-.624,4.5-1.235,6.481-.139a4.46,4.46,0,0,1,1.691,6.076c-1.235,2.134-3.831,2.669-5.96,3.75-1.708.867-3.181,2.141-4.88,3.024s-3.8,1.34-5.507.468c-.292-.15-.707-.311-.895-.041-.136.2-.018.463.121.657,1.273,1.783,3.911,2.016,5.984,1.31s3.815-2.126,5.748-3.156c2.244-1.2,4.845-1.934,6.527-3.84a6.5,6.5,0,0,0-3.274-10.6,9.01,9.01,0,0,0-4.862.289.823.823,0,0,1-1.042-.947,7.481,7.481,0,0,0-.3-3.878,6.2,6.2,0,0,0-3.724-3.738c-2.289-.77-4.769.014-7.176.212-1.383.114-2.777.067-4.154.259-2,.278-3.411,1.219-5.489.512a9.126,9.126,0,0,1-4.021-2.587,4.244,4.244,0,0,1,.372-5.889,6.15,6.15,0,0,1,3.386-1.5q-.174-.8-.325-1.6a9.014,9.014,0,0,0-2.465.765,6.355,6.355,0,0,0-3.711,5.171v.013a6.44,6.44,0,0,0,2.386,4.972m6.41,3.449c1.742-1.779,4.42-1.918,6.8-1.909a20.865,20.865,0,0,0,3.047-.309,18.086,18.086,0,0,1,2.7-.285,5.231,5.231,0,0,1,2.01.353,5.162,5.162,0,0,1,2.641,5.83,8.807,8.807,0,0,1-4.609,5.512,13.415,13.415,0,0,1-5.314,1.589c-3.331.269-6.421-.9-8.066-3.064a6.131,6.131,0,0,1,.787-7.718" transform="translate(-107.017 -93.233)" fill="#181818"/>
      <path id="Path_19577" data-name="Path 19577" d="M155.1,176.733a14.173,14.173,0,0,0-2.778.236c-3.068.564-5.948,1.884-8.991,2.568-2.976.67-6.053.72-9.075,1.133a54.667,54.667,0,0,0-10.5,2.676c-.206-2.954-.31-6.521-.265-8.458a.811.811,0,0,1,.811-.792h30.1a.811.811,0,0,1,.8.934c-.031.2-.064.884-.1,1.7" transform="translate(-63.286 -89.232)" fill="#f7c948"/>
      <path id="Path_19578" data-name="Path 19578" d="M154.16,100.025l-27.442-3.089c-.745,2.787-3.729,13.96-7.687,28.911a43.876,43.876,0,0,0-.621,17.649q-.8.29-1.594.59a45.818,45.818,0,0,1,.648-18.654c4.565-17.246,7.835-29.468,7.868-29.589a.811.811,0,0,1,.874-.6L155.074,98.5a.81.81,0,0,1,.719.819c0,.126-.226,12.776-.589,30.612a39.113,39.113,0,0,1-.769,6.868,9.705,9.705,0,0,0-1.593-.363,36.828,36.828,0,0,0,.741-6.538c.313-15.391.523-26.92.576-29.87" transform="translate(-59.538 -48.816)" fill="#f7c948"/>
      <path id="Path_19579" data-name="Path 19579" d="M98.811,306.062a.811.811,0,0,1,.732-.588,62.977,62.977,0,0,0,8.355-1.521c4.923-1.116,5.819-6.767,7.3-17,.579-.29,1.166-.564,1.758-.832-.025.174-.051.351-.075.523-1.574,10.919-2.524,17.511-8.62,18.893-2.791.633-4.795,1.01-6.164,1.235,3.7,1.845,12.308,5.133,24.887,3.847-1.229-.575-2.906-1.4-5.109-2.579-5.516-2.941-4.695-9.549-3.334-20.5q.135-1.092.277-2.247l.322-.141c.468-.207.938-.419,1.405-.637q-.2,1.674-.4,3.225c-1.319,10.607-2.045,16.45,2.488,18.866a62.946,62.946,0,0,0,7.656,3.669.81.81,0,0,1-.135,1.57,58.977,58.977,0,0,1-8.915.7c-13.938,0-21.729-5.323-22.115-5.594a.811.811,0,0,1-.314-.885" transform="translate(-50.629 -145.828)" fill="#f7c948"/>
      <path id="Path_19580" data-name="Path 19580" d="M59.881,235.4a6.722,6.722,0,0,0,.646.373c.23.108.466.21.718.3a22.444,22.444,0,0,1,3.283,1.35,5.277,5.277,0,0,1,1.526,1.356,5.753,5.753,0,0,1,.882,1.786,27.041,27.041,0,0,1,.645,3.454,6.356,6.356,0,0,0,1.088,2.846,5.825,5.825,0,0,0,2.421,1.914l.008,0a.392.392,0,0,1-.235.744,6.1,6.1,0,0,1-3.182-1.841,6.251,6.251,0,0,1-1.058-1.586,9,9,0,0,1-.589-1.755c-.287-1.157-.423-2.282-.76-3.235a4.574,4.574,0,0,0-.643-1.257,3.481,3.481,0,0,0-1.028-.886,24.613,24.613,0,0,0-3.021-1.28c-.277-.119-.559-.257-.838-.406a8.238,8.238,0,0,1-.81-.52,7.968,7.968,0,0,1-.739-.605c-.117-.108-.221-.228-.331-.341a3.786,3.786,0,0,1-.311-.357,7.8,7.8,0,0,1-1.812-5.152,7.092,7.092,0,0,1,.294-1.793.341.341,0,0,1,.666.129v.011a7.452,7.452,0,0,0,2.018,5.777,6.564,6.564,0,0,0,1.163.968" transform="translate(-28.57 -116.999)" fill="#181818"/>
      <path id="Path_19581" data-name="Path 19581" d="M44.174,254.825,42.7,257.04l-1.47,2.212c-.5.737-.992,1.479-1.554,2.206l0,0a.575.575,0,0,1-1.015-.477,12.648,12.648,0,0,1,.95-2.653,17.294,17.294,0,0,1,1.418-2.429,18.014,18.014,0,0,1,1.777-2.179,13.206,13.206,0,0,1,2.142-1.83.482.482,0,0,1,.683.643l0,0c-.463.8-.965,1.539-1.453,2.287" transform="translate(-19.807 -129.066)" fill="#181818"/>
      <path id="Path_19582" data-name="Path 19582" d="M57.556,271.884c.657-.279,1.316-.558,1.989-.826s1.358-.532,2.094-.75h.006a.41.41,0,0,1,.436.647,9.017,9.017,0,0,1-1.686,1.607,12.488,12.488,0,0,1-1.977,1.2,10.934,10.934,0,0,1-2.168.8,7.6,7.6,0,0,1-2.321.249.531.531,0,0,1-.264-.968l.005,0a15.431,15.431,0,0,1,1.931-1.079c.646-.316,1.3-.6,1.956-.879" transform="translate(-27.386 -138.537)" fill="#181818"/>
      <path id="Path_19583" data-name="Path 19583" d="M134.474,201.424a1.334,1.334,0,0,0,.436.228,1.465,1.465,0,0,0,1.1-.117l.124-.067a.539.539,0,0,1,.753.686,1.961,1.961,0,0,1-.892.935,2.491,2.491,0,0,1-1.267.287,2.707,2.707,0,0,1-.666-.111,2.823,2.823,0,0,1-.615-.281,3.317,3.317,0,0,1-.927-.885,3.743,3.743,0,0,1-.66-2.294,4.835,4.835,0,0,1,.581-2.086.816.816,0,0,1,1.512.577l-.006.025a5.459,5.459,0,0,0-.194,1.5,2.294,2.294,0,0,0,.348,1.2,1.555,1.555,0,0,0,.372.408" transform="translate(-67.584 -101.12)" fill="#181818"/>
      <path id="Path_19584" data-name="Path 19584" d="M134.66,227.426l.009.006a2.785,2.785,0,0,1,.783.768,2.881,2.881,0,0,1,.375.814,4.264,4.264,0,0,1,.173.88,3.4,3.4,0,0,1-.052,1.022l0,.02a.528.528,0,0,1-.047.131.537.537,0,0,1-.722.236,2.474,2.474,0,0,1-.847-.72,3.248,3.248,0,0,1-.491-.916,2.545,2.545,0,0,1-.155-1.027,2.1,2.1,0,0,1,.391-1.106.433.433,0,0,1,.587-.108" transform="translate(-68.516 -116.53)" fill="#181818"/>
      <path id="Path_19585" data-name="Path 19585" d="M166.537,194.136a.656.656,0,0,1,.882.285l.02.04a3.979,3.979,0,0,1,.336,1,6.873,6.873,0,0,1,.121.944c.023.317.042.636.046.971a8.117,8.117,0,0,1-.044,1.074l0,.025a.484.484,0,0,1-.782.321,3.107,3.107,0,0,1-.778-.957,4.152,4.152,0,0,1-.413-1.139,3.529,3.529,0,0,1-.057-1.208,2.493,2.493,0,0,1,.445-1.161.672.672,0,0,1,.227-.191" transform="translate(-84.999 -99.467)" fill="#181818"/>
      <path id="Path_19586" data-name="Path 19586" d="M140.7,264.679a.319.319,0,0,1,.441.1l.006.01c.249.39.434.746.622,1.09l.532,1c.175.327.348.652.516.992a9.8,9.8,0,0,1,.489,1.112l.009.025a.471.471,0,0,1-.585.605,2.959,2.959,0,0,1-1.214-.783,4,4,0,0,1-.8-1.192,4.223,4.223,0,0,1-.351-1.389,3.118,3.118,0,0,1,.209-1.425.319.319,0,0,1,.122-.145" transform="translate(-71.943 -135.635)" fill="#181818"/>
      <path id="Path_19587" data-name="Path 19587" d="M.091,221.858a8.072,8.072,0,0,1,1.528-3.734c1.542-2.038,4.059-2.342,6.214-3.359,2.127-1,3.066-3.15,3.549-5.326a57.828,57.828,0,0,1,5.742-15.993c2.851-5.19,7.527-9.694,13.326-10.9,3.179-.66,6.487-.3,9.7-.774a18.965,18.965,0,0,0,8.509-3.525,11.7,11.7,0,0,0,4.685-6.511c.453-1.989.17-4.1.682-6.071a4.971,4.971,0,0,1,2.435-3.2,3.03,3.03,0,0,1,.9-.173q-.173.9-.3,1.793c-1.453.769-1.774,2.8-1.864,4.5l-.422,8.06a.43.43,0,0,1-.715.3l-.377-.333a.73.73,0,0,0-1.027.053,21.277,21.277,0,0,1-13.64,6.944c-3.089.3-6.261-.074-9.267.7a16.714,16.714,0,0,0-8.8,6.334c-3.672,4.818-5.463,10.769-7.184,16.577-1.552,5.237-3.118,10.62-3.174,16.037a.91.91,0,0,1-1.755.334,8.874,8.874,0,0,1-.495-4.493c.3-1.906-1.243-2.331-2.816-1.844a5.786,5.786,0,0,0-3.663,4.115c-.609,2.476.1,5.074.954,7.478a44.883,44.883,0,0,0,9.5,16.206c1.985,2.074,4.383,3.967,7.222,4.4s6.124-1.089,6.833-3.871a2.257,2.257,0,0,0-.111-1.66,2.954,2.954,0,0,0-.791-.81l-2.923-2.307a.481.481,0,0,1,.45-.834c5.364,1.779,11.227,1.972,16.9,1.546a18.316,18.316,0,0,0,7.721-1.867c5.193-2.935,6.886-9.675,11.319-13.667,5.717-5.148,15.662-5.5,18.3-13.167a3.259,3.259,0,0,0-.77-3.419c-1-.951-2-.629-2.944-.3a72.364,72.364,0,0,0-17.754,9.229.472.472,0,0,1-.636-.686c3.2-3.82,7.865-6.358,12.546-8.248,5.613-2.266,11.549-3.868,16.706-7.038a4.525,4.525,0,0,0,2.271-2.44,1.978,1.978,0,0,0-.248-1.615,1.818,1.818,0,0,0-1.948-.659l-6.9.611a2.529,2.529,0,0,0-1.038.3c-1.7.977-.677,3.1-.628,4.957a.5.5,0,0,1-.938.243l-1.515-2.877a1.636,1.636,0,0,0-.657-.781,1.553,1.553,0,0,0-1.029,0c-3.968.981-7.369,3.462-11.042,5.257-3.063,1.5-6.684,2.5-9.9,1.692a.472.472,0,0,1,.049-.924,27.916,27.916,0,0,0,4.3-.988c7.008-2.208,13.03-7.144,20.232-8.6,3.416-.688,6.982-.562,10.327-1.538,3.515-1.026,6.957-3.776,6.92-7.524a2.538,2.538,0,0,0-.61-1.681c-.742-.824-1.626-.581-2.433-.34l-4.761,1.422-2.43.726a13.58,13.58,0,0,0-1.891.578c-.768.358-.812.9-.476,1.651l.989,2.208a.533.533,0,0,1-.824.629,4.153,4.153,0,0,1-1.226-1.5c-.465-1.084-.666-2.37-1.986-2.706a5.5,5.5,0,0,0-1.624-.079c-1.66.079-3.186-.677-4.838-.638-2.375.056-4.289,1.838-6.258,3.166a18.867,18.867,0,0,1-14.213,2.751.557.557,0,0,1,.013-1.093c3.905-.745,8.212-.033,11.664-2,2.194-1.252,3.809-3.486,6.208-4.278,1.865-.615,3.888-.252,5.847-.11,5.7.412,11.347-1.123,16.86-2.643,3.216-.887,7.085-2.54,7.248-5.872.153-3.133-3.414-5.3-6.549-5.212s-6.023,1.624-9.054,2.433c-3.241.866-6.638.894-9.967,1.3-12.062,1.484-22.924,7.893-34.657,11.06l-.018,0a.522.522,0,0,1-.326-.991q8.4-3.336,16.82-6.606c5.469-2.123,11.006-4.241,16.819-5.035,3.023-.412,6.1-.463,9.076-1.133,3.042-.685,5.923-2,8.99-2.569s6.557-.223,8.778,1.967c3.166,3.123,1.845,9.471-2.448,10.9a2.74,2.74,0,0,0-.7.329c-1.281.889-.748,1.694-.456,2.483,1.22,3.3-1.7,6.584-4.445,8.778a3.855,3.855,0,0,0-1.3,1.457,6.19,6.19,0,0,0-.142,2.185c-.047,2.233-1.634,4.176-3.5,5.411a51.113,51.113,0,0,1-6.026,2.915c-.31.151-.652.357-.7.7a1.215,1.215,0,0,0,.177.672c1.323,2.861.24,6.383-1.854,8.74s-5.021,3.781-7.905,5.054-5.865,2.491-8.238,4.566c-4.517,3.95-6.334,10.567-11.408,13.77-4.746,3-10.83,2.113-16.441,2.234-1.42.031-2.989.2-3.95,1.247-.833.907-.983,2.229-1.5,3.348-1.194,2.6-4.378,3.859-7.218,3.5a14.124,14.124,0,0,1-7.47-3.95c-5.061-4.6-8.4-10.821-10.775-17.239-.963-2.606-1.792-5.374-1.419-8.128" transform="translate(0 -83.184)" fill="#181818"/>
    </g>
  </g>
</svg>
