<svg xmlns="http://www.w3.org/2000/svg" xmlns:xlink="http://www.w3.org/1999/xlink" width="84.705" height="70.791" viewBox="0 0 84.705 70.791">
  <defs>
    <clipPath id="clip-path">
      <rect id="Rectangle_10507" data-name="Rectangle 10507" width="84.705" height="70.791" fill="none"/>
    </clipPath>
  </defs>
  <g id="Group_11596" data-name="Group 11596" opacity="0.75">
    <g id="Group_11595" data-name="Group 11595" clip-path="url(#clip-path)">
      <path id="Path_19644" data-name="Path 19644" d="M122.7,70.791A35.4,35.4,0,0,1,108.921,2.782a35.4,35.4,0,0,1,27.556,65.227A35.174,35.174,0,0,1,122.7,70.791m0-68.4a33,33,0,1,0,33,33,33.042,33.042,0,0,0-33-33" transform="translate(-80.346 0)"/>
      <path id="Path_19645" data-name="Path 19645" d="M245.006,182.508a24.805,24.805,0,1,1,17.54-7.265,24.643,24.643,0,0,1-17.54,7.265m0-47.22A22.415,22.415,0,1,0,267.421,157.7a22.44,22.44,0,0,0-22.414-22.415" transform="translate(-202.654 -122.308)"/>
      <path id="Path_19646" data-name="Path 19646" d="M167.551,111.759a31.415,31.415,0,1,1,12.266-2.477,31.315,31.315,0,0,1-12.266,2.477m0-61.829a30.317,30.317,0,1,0,30.317,30.317A30.351,30.351,0,0,0,167.551,49.93" transform="translate(-125.198 -44.851)"/>
      <path id="Path_19647" data-name="Path 19647" d="M206.136,147c-.6,0-1.206-.019-1.8-.057a.4.4,0,0,1,.05-.8c.779.049,1.576.065,2.355.049a.4.4,0,0,1,.017.8c-.205,0-.414.007-.62.007m2.995-.16a.4.4,0,0,1-.042-.795c.778-.083,1.561-.2,2.328-.352a.4.4,0,0,1,.153.782c-.789.154-1.6.276-2.4.362l-.043,0m-7.147-.149a.387.387,0,0,1-.06,0c-.8-.119-1.6-.275-2.379-.462a.4.4,0,0,1,.186-.775c.76.182,1.537.333,2.311.449a.4.4,0,0,1-.059.792m11.832-.767a.4.4,0,0,1-.11-.782c.751-.216,1.5-.467,2.233-.747a.4.4,0,1,1,.285.744c-.752.288-1.525.547-2.3.769a.4.4,0,0,1-.11.016m-16.475-.346a.4.4,0,0,1-.126-.021c-.764-.255-1.526-.546-2.265-.867a.4.4,0,0,1,.317-.731c.718.311,1.458.594,2.2.842a.4.4,0,0,1-.126.776m20.931-1.363a.4.4,0,0,1-.175-.757c.7-.342,1.4-.719,2.071-1.121a.4.4,0,1,1,.409.684c-.691.413-1.408.8-2.131,1.153a.4.4,0,0,1-.174.04m-25.315-.535a.4.4,0,0,1-.189-.048c-.708-.382-1.408-.8-2.082-1.243a.4.4,0,0,1,.438-.666c.654.43,1.335.836,2.023,1.208a.4.4,0,0,1-.19.749m29.411-1.916a.4.4,0,0,1-.233-.722c.634-.457,1.256-.948,1.849-1.459a.4.4,0,1,1,.52.6c-.61.525-1.25,1.03-1.9,1.5a.4.4,0,0,1-.233.075m-33.4-.706a.4.4,0,0,1-.246-.086c-.632-.5-1.25-1.029-1.838-1.58a.4.4,0,0,1,.545-.582c.571.535,1.172,1.052,1.786,1.535a.4.4,0,0,1-.247.711m37.02-2.408a.4.4,0,0,1-.285-.677c.548-.56,1.077-1.149,1.574-1.753a.4.4,0,1,1,.615.507c-.511.621-1.056,1.227-1.619,1.8a.4.4,0,0,1-.285.12m-40.5-.856a.4.4,0,0,1-.3-.132c-.538-.6-1.057-1.227-1.542-1.869a.4.4,0,0,1,.636-.48c.471.624.975,1.235,1.5,1.817a.4.4,0,0,1-.3.665m43.54-2.83a.4.4,0,0,1-.328-.624c.444-.645.865-1.316,1.252-2a.4.4,0,0,1,.693.394c-.4.7-.831,1.39-1.288,2.054a.4.4,0,0,1-.328.172M182.6,133.99a.4.4,0,0,1-.338-.187c-.428-.682-.832-1.39-1.2-2.105a.4.4,0,0,1,.709-.364c.357.695.749,1.383,1.166,2.046a.4.4,0,0,1-.337.61m48.779-3.172a.4.4,0,0,1-.362-.565c.327-.711.626-1.445.89-2.181a.4.4,0,0,1,.75.269c-.272.758-.58,1.513-.916,2.245a.4.4,0,0,1-.362.232m-50.961-1.073a.4.4,0,0,1-.369-.248c-.3-.745-.581-1.513-.82-2.281a.4.4,0,1,1,.761-.237c.232.746.5,1.492.8,2.216a.4.4,0,0,1-.369.549M233,126.323a.4.4,0,0,1-.386-.5c.2-.755.367-1.53.5-2.3a.4.4,0,1,1,.785.136c-.137.794-.31,1.591-.515,2.368a.4.4,0,0,1-.385.3M179,125.188a.4.4,0,0,1-.389-.313c-.172-.785-.311-1.589-.414-2.388a.4.4,0,1,1,.79-.1c.1.776.236,1.557.4,2.32a.4.4,0,0,1-.39.484m54.8-3.568h-.034a.4.4,0,0,1-.363-.431c.066-.777.1-1.569.1-2.353,0-.009,0-.018,0-.026s0-.018,0-.027c0-.784-.036-1.575-.1-2.353a.4.4,0,0,1,.794-.069c.07.8.106,1.614.107,2.421,0,.009,0,.018,0,.027s0,.018,0,.027c0,.806-.035,1.621-.1,2.42a.4.4,0,0,1-.4.365m-55.418-1.165a.4.4,0,0,1-.4-.381c-.018-.41-.027-.826-.027-1.238,0-.394.008-.792.024-1.185a.4.4,0,1,1,.8.033c-.016.381-.024.769-.024,1.152,0,.4.009.806.026,1.2a.4.4,0,0,1-.381.415h-.018m.2-4.77a.4.4,0,0,1-.4-.449c.1-.8.24-1.6.41-2.388a.4.4,0,0,1,.779.169c-.165.763-.3,1.544-.4,2.321a.4.4,0,0,1-.395.348m54.9-1.261a.4.4,0,0,1-.392-.33c-.134-.771-.3-1.544-.5-2.3a.4.4,0,0,1,.77-.2c.206.778.381,1.574.52,2.367a.4.4,0,0,1-.393.467m-53.895-3.4a.4.4,0,0,1-.381-.516c.238-.769.512-1.538.816-2.284a.4.4,0,0,1,.738.3c-.3.725-.562,1.471-.793,2.219a.4.4,0,0,1-.381.281m52.67-1.209a.4.4,0,0,1-.375-.263c-.265-.735-.566-1.468-.894-2.177a.4.4,0,0,1,.723-.334c.337.731.647,1.485.92,2.241a.4.4,0,0,1-.375.534m-50.87-3.215a.4.4,0,0,1-.354-.58c.367-.716.769-1.425,1.2-2.108a.4.4,0,1,1,.675.423c-.415.664-.807,1.353-1.163,2.049a.4.4,0,0,1-.355.217m48.87-1.117a.4.4,0,0,1-.346-.2c-.388-.679-.81-1.349-1.255-1.992a.4.4,0,1,1,.655-.453c.458.662.892,1.352,1.291,2.05a.4.4,0,0,1-.346.6m-46.336-2.931a.4.4,0,0,1-.318-.638c.484-.643,1-1.273,1.539-1.872a.4.4,0,0,1,.593.532c-.522.583-1.026,1.195-1.5,1.82a.4.4,0,0,1-.319.159m43.621-1a.4.4,0,0,1-.307-.145c-.5-.6-1.029-1.191-1.577-1.75a.4.4,0,1,1,.568-.558c.564.574,1.11,1.18,1.623,1.8a.4.4,0,0,1-.307.652M187.12,98.991a.4.4,0,0,1-.273-.689c.587-.551,1.2-1.084,1.835-1.583a.4.4,0,0,1,.494.625c-.613.485-1.213,1-1.784,1.538a.4.4,0,0,1-.273.108m37.088-.847a.4.4,0,0,1-.259-.1c-.594-.51-1.218-1-1.852-1.456a.4.4,0,0,1,.465-.647c.653.469,1.294.973,1.906,1.5a.4.4,0,0,1-.26.7m-33.342-2.113a.4.4,0,0,1-.22-.731c.673-.443,1.372-.863,2.078-1.246a.4.4,0,1,1,.38.7c-.687.372-1.366.78-2.02,1.211a.4.4,0,0,1-.219.066m29.464-.675a.4.4,0,0,1-.2-.056c-.672-.4-1.37-.777-2.074-1.117a.4.4,0,1,1,.347-.717c.724.351,1.442.738,2.134,1.15a.4.4,0,0,1-.2.741m-25.268-1.6a.4.4,0,0,1-.159-.764c.738-.321,1.5-.614,2.261-.87a.4.4,0,1,1,.254.755c-.741.249-1.48.533-2.2.845a.4.4,0,0,1-.159.033m20.97-.481a.4.4,0,0,1-.142-.026c-.73-.279-1.482-.529-2.234-.743a.4.4,0,1,1,.219-.766c.774.221,1.548.478,2.3.765a.4.4,0,0,1-.142.771m-16.446-1.038a.4.4,0,0,1-.093-.786c.782-.189,1.581-.346,2.378-.467a.4.4,0,1,1,.12.788c-.774.118-1.551.27-2.31.454a.4.4,0,0,1-.094.011m11.856-.271a.4.4,0,0,1-.076-.007c-.767-.148-1.55-.265-2.329-.347a.4.4,0,0,1,.083-.793c.8.084,1.608.2,2.4.357a.4.4,0,0,1-.075.79M204.3,91.52a.4.4,0,0,1-.025-.8c.8-.052,1.625-.071,2.423-.055a.4.4,0,0,1-.016.8c-.775-.015-1.576,0-2.355.053H204.3" transform="translate(-163.783 -83.439)"/>
      <rect id="Rectangle_10505" data-name="Rectangle 10505" width="80.101" height="28.207" transform="translate(0 32.363) rotate(-15.304)"/>
      <rect id="Rectangle_10506" data-name="Rectangle 10506" width="74.37" height="22.245" transform="translate(3.551 34.482) rotate(-15.304)" fill="#fff"/>
      <path id="Path_19648" data-name="Path 19648" d="M129.824,441.716a8.387,8.387,0,0,1-2.651-10.445,8.011,8.011,0,0,1,7.657-3.7l.816,2.982a5.032,5.032,0,0,0-3.052-.161,3.025,3.025,0,0,0-2.275,1.919,5.487,5.487,0,0,0,.017,3.283,5.86,5.86,0,0,0,1.957,3.209,3.416,3.416,0,0,0,3.184.57,4.307,4.307,0,0,0,2.443-1.685l.781,2.856a8.356,8.356,0,0,1-3.411,1.825,6.511,6.511,0,0,1-5.467-.651" transform="translate(-116.231 -393.431)"/>
      <path id="Path_19649" data-name="Path 19649" d="M129.942,439.735a6.275,6.275,0,0,1-3.461-1,8.664,8.664,0,0,1-2.745-10.814,8.287,8.287,0,0,1,7.949-3.843l.175.03,1,3.664-.5-.175a4.734,4.734,0,0,0-2.886-.155,2.74,2.74,0,0,0-2.085,1.74,5.24,5.24,0,0,0,.022,3.12,5.62,5.62,0,0,0,1.859,3.062,3.133,3.133,0,0,0,2.94.521,4.005,4.005,0,0,0,2.29-1.578l.341-.477.982,3.588-.129.115a8.689,8.689,0,0,1-3.522,1.886,8.451,8.451,0,0,1-2.231.318m.823-15.178a8.057,8.057,0,0,0-2.105.316,6.89,6.89,0,0,0-4.434,3.314,8.11,8.11,0,0,0,2.556,10.075h0a6.271,6.271,0,0,0,5.243.616,8.039,8.039,0,0,0,3.169-1.651l-.592-2.162a4.617,4.617,0,0,1-2.244,1.355,3.7,3.7,0,0,1-3.43-.62,6.159,6.159,0,0,1-2.053-3.354,5.78,5.78,0,0,1-.011-3.448,3.3,3.3,0,0,1,2.465-2.1,5.191,5.191,0,0,1,2.723.015l-.634-2.318a5.021,5.021,0,0,0-.652-.041" transform="translate(-113.039 -390.212)"/>
      <path id="Path_19650" data-name="Path 19650" d="M281.424,411.221l-3.807-13.914,3.355-1.385,3.163,11.559,4.9-1.341.406,2.886Z" transform="translate(-255.494 -364.373)"/>
      <path id="Path_19651" data-name="Path 19651" d="M277.371,407.194l-3.946-14.42,3.874-1.6,3.173,11.6,4.938-1.351.484,3.443ZM274.093,393.1l3.669,13.407,7.512-2.056-.328-2.329-4.865,1.331-3.153-11.524Z" transform="translate(-251.636 -360.003)"/>
      <path id="Path_19652" data-name="Path 19652" d="M456.178,360.519l-1.625-2.677-4.467,1.222-.035,3.131-3.522.964,1.024-15.36,3.7-1.23,8.593,12.946Zm-6.064-4.118,3.049-.834-2.557-4.227-.365-.688-.077.021.027.781Z" transform="translate(-410.946 -318.952)"/>
      <path id="Path_19653" data-name="Path 19653" d="M442.709,359.7l1.063-15.938,4.078-1.356,8.925,13.445-4.242,1.161-1.625-2.677-4.061,1.111-.035,3.131Zm1.594-15.527-.986,14.782,2.941-.8.035-3.131,4.873-1.333,1.624,2.677,3.091-.846-8.262-12.447Zm2.011,8.764.083-5.312-.034-.994.506-.138.465.879,2.744,4.536Zm.638-5.119-.069,4.385,2.335-.639Z" transform="translate(-407.43 -315.117)"/>
      <path id="Path_19654" data-name="Path 19654" d="M600.942,323.788l-3.807-13.914,3.355-1.385,3.926,14.348Z" transform="translate(-549.551 -283.906)"/>
      <path id="Path_19655" data-name="Path 19655" d="M596.889,319.761l-3.946-14.42,3.874-1.6,4.083,14.922Zm-3.278-14.092,3.669,13.407,2.936-.8L596.446,304.5Z" transform="translate(-545.693 -279.537)"/>
      <path id="Path_19656" data-name="Path 19656" d="M714.539,261.183l-3.319.908-2.967-9.061-.062.795-1.589,7.684-1.695.4-5.2-5.733-.44-.585,2.169,9.176-3.02.826-3.067-14.241,3.454-.945,6.082,6.913,1.724-9.049,3.319-.908Z" transform="translate(-639.937 -227.653)"/>
      <path id="Path_19657" data-name="Path 19657" d="M694.414,262.031l-3.185-14.787,3.877-1.061,5.82,6.615,1.65-8.66,3.742-1.024,4.788,14.348-3.859,1.056-2.661-8.128-1.538,7.437-2.028.48-4.991-5.5,1.95,8.251Zm-2.528-14.388,2.949,13.695,2.476-.678L694.9,250.45l1.233,1.638,5.08,5.6,1.362-.323,1.55-7.493.17-2.167,3.318,10.134,2.779-.76-4.434-13.288-2.9.793-1.8,9.438-6.343-7.21Z" transform="translate(-636.146 -223.742)"/>
    </g>
  </g>
</svg>
