<svg xmlns="http://www.w3.org/2000/svg" width="50" height="67.632" viewBox="0 0 50 67.632">
  <g id="Group_1031" data-name="Group 1031" transform="translate(-12111.111 -4963.259)" opacity="0.6">
    <path id="Path_1070" data-name="Path 1070" d="M12149.312,4963.259q5.65,6.147,11.308,12.287a1.651,1.651,0,0,1,.472,1.226c-.011,16.457-.04,32.915.021,49.372a4.485,4.485,0,0,1-4.75,4.747c-13.575-.06-27.15-.026-40.727-.028a4.128,4.128,0,0,1-4.38-3.235,6.729,6.729,0,0,1-.117-1.506q-.007-28.845-.026-57.689c0-2.363.569-4.293,3.474-5.174Zm8.307,15.311h-.78q-3.961,0-7.921,0c-1.447,0-2.119-.683-2.12-2.144q0-4.455,0-8.911v-.782h-30.878c-1.2,0-1.32.117-1.32,1.316v58.018c0,1.211.112,1.325,1.31,1.325h40.395c1.206,0,1.316-.111,1.316-1.318v-47.5Zm-7.335-3.542h5.11l-5.11-5.544Z"/>
    <path id="Path_1071" data-name="Path 1071" d="M12135.514,4999.027q7.129,0,14.26,0a4.414,4.414,0,0,1,.788.039,1.254,1.254,0,0,1,1.023,1.275,1.21,1.21,0,0,1-1,1.215,4.36,4.36,0,0,1-.852.071q-14.193.006-28.386,0a4.554,4.554,0,0,1-.852-.067,1.234,1.234,0,0,1-1.035-1.258,1.271,1.271,0,0,1,1.068-1.243,4.942,4.942,0,0,1,.79-.034Z"/>
    <path id="Path_1072" data-name="Path 1072" d="M12135.513,5007.634q7.129,0,14.261,0a3.649,3.649,0,0,1,.848.081,1.264,1.264,0,0,1,.028,2.447,3.014,3.014,0,0,1-.781.088q-14.325.006-28.651,0a2.84,2.84,0,0,1-.907-.117,1.262,1.262,0,0,1,.034-2.39,3.268,3.268,0,0,1,.91-.107Q12128.383,5007.629,12135.513,5007.634Z"/>
    <path id="Path_1073" data-name="Path 1073" d="M12135.542,4984.386q-7.129,0-14.26,0a3.226,3.226,0,0,1-.912-.091,1.265,1.265,0,0,1,.037-2.432,3.055,3.055,0,0,1,.779-.092q14.328-.006,28.653,0a3.057,3.057,0,0,1,.845.1,1.267,1.267,0,0,1,.028,2.414,3.142,3.142,0,0,1-.91.1Q12142.672,4984.391,12135.542,4984.386Z"/>
    <path id="Path_1074" data-name="Path 1074" d="M12135.486,4993.14q-7.063,0-14.126,0a5.43,5.43,0,0,1-.855-.045,1.269,1.269,0,0,1,.019-2.5,5.185,5.185,0,0,1,.79-.041h28.449c1.235,0,1.83.427,1.825,1.3s-.6,1.286-1.844,1.286Z"/>
  </g>
</svg>
