<svg xmlns="http://www.w3.org/2000/svg" xmlns:xlink="http://www.w3.org/1999/xlink" width="122.646" height="122.646" viewBox="0 0 122.646 122.646">
  <defs>
    <clipPath id="clip-path">
      <rect id="Rectangle_10478" data-name="Rectangle 10478" width="55.592" height="62.089" fill="none"/>
    </clipPath>
  </defs>
  <g id="Group_11614" data-name="Group 11614" transform="translate(-941.244 -54.023)">
    <circle id="Ellipse_253" data-name="Ellipse 253" cx="61.323" cy="61.323" r="61.323" transform="translate(941.244 54.023)" fill="#fff"/>
    <g id="Group_11520" data-name="Group 11520" transform="translate(974.771 84.301)" opacity="0.75">
      <g id="Group_11519" data-name="Group 11519" clip-path="url(#clip-path)">
        <path id="Path_19609" data-name="Path 19609" d="M.018,34.27C.018,25.8.033,17.328,0,8.856A2.518,2.518,0,0,1,1.36,6.434,45.26,45.26,0,0,1,15.6.461c3.174-.643,6.36-.777,9.366.68a14.274,14.274,0,0,1,3.51,2.28c3.514,3.274,7.55,3.7,11.975,2.545A45.15,45.15,0,0,0,52.693.513a1.886,1.886,0,0,1,2-.287,1.85,1.85,0,0,1,.893,1.881q-.015,15.884.006,31.768a2.182,2.182,0,0,1-1.133,2.074,45.022,45.022,0,0,1-14.576,6.139,14.219,14.219,0,0,1-8-.242,33.058,33.058,0,0,1-4.33-2.373,3.852,3.852,0,0,1-.722-.565c-3.192-3.019-6.961-3.445-11.051-2.493A42,42,0,0,0,3.731,41.538a1.247,1.247,0,0,0-.4.936C3.3,48.266,3.312,54.058,3.306,59.85a4.453,4.453,0,0,1-.1,1.06A1.549,1.549,0,0,1,1.7,62.088,1.555,1.555,0,0,1,.117,60.9a4.493,4.493,0,0,1-.1-1.06Q.014,47.054.018,34.27M3.31,37.844a1.13,1.13,0,0,0,.249-.03c.273-.138.543-.281.813-.425a40.245,40.245,0,0,1,11.554-4.324c3.166-.589,6.333-.681,9.27.86a24.031,24.031,0,0,1,4.154,2.841,10.648,10.648,0,0,0,9.032,2.278,40.191,40.191,0,0,0,13.306-5.228,1.126,1.126,0,0,0,.649-1.139q-.028-13.629-.015-27.259c0-.241-.027-.482-.048-.831-.451.241-.8.433-1.158.619A39.012,39.012,0,0,1,38.564,9.642,13.314,13.314,0,0,1,27.881,7.061q-1.229-.976-2.483-1.92a8.856,8.856,0,0,0-5.717-1.835,21.362,21.362,0,0,0-3.491.378A41.007,41.007,0,0,0,4.065,8.622a1.3,1.3,0,0,0-.771,1.307q.037,13.552.017,27.105Z" transform="translate(0 0)"/>
      </g>
    </g>
  </g>
</svg>
