<svg xmlns="http://www.w3.org/2000/svg" width="55" height="65.354" viewBox="0 0 55 65.354">
  <g id="Group_991" data-name="Group 991" transform="translate(-13316.111 -5454.974)" opacity="0.6">
    <path id="Path_992" data-name="Path 992" d="M13341.025,5520.327c-.18-.1-.359-.2-.537-.3a2.281,2.281,0,0,1-1.131-2.377,2.206,2.206,0,0,1,1.675-1.8,4.81,4.81,0,0,1,1.074-.1q8.1-.009,16.207-.006a7.855,7.855,0,0,0,8.216-8.23q.006-19.876,0-39.752a7.853,7.853,0,0,0-6.1-7.989,9.67,9.67,0,0,0-2.149-.2c-5.3-.016-10.592-.007-15.889-.011a4.784,4.784,0,0,1-.95-.068,2.232,2.232,0,0,1-1.827-2.4,2.269,2.269,0,0,1,2.114-2.1c.148-.013.3-.011.446-.011,5.445,0,10.891-.013,16.335,0a12.242,12.242,0,0,1,11.884,8.46,13.779,13.779,0,0,1,.681,4.313q.075,19.906.024,39.815a12.382,12.382,0,0,1-8.476,12.093c-.873.3-1.8.447-2.708.664Z"/>
    <path id="Path_993" data-name="Path 993" d="M13324.009,5489.946c.242.261.391.429.548.588q4.241,4.24,8.485,8.478a2.369,2.369,0,0,1,.79,2.409,2.271,2.271,0,0,1-3.564,1.25,5.515,5.515,0,0,1-.564-.515q-6.3-6.288-12.593-12.58c-1.335-1.334-1.332-2.5.01-3.844q6.268-6.272,12.549-12.534a3.637,3.637,0,0,1,1.188-.822,2.192,2.192,0,0,1,2.544.814,2.273,2.273,0,0,1-.05,2.73,6.887,6.887,0,0,1-.563.607q-4.1,4.107-8.211,8.21c-.164.163-.351.305-.526.456l.054.166h36.38a2.4,2.4,0,0,1,2.544,1.517,2.284,2.284,0,0,1-1.979,3.053c-.253.025-.51.015-.765.015h-36.274Z"/>
  </g>
</svg>
