<svg xmlns="http://www.w3.org/2000/svg" xmlns:xlink="http://www.w3.org/1999/xlink" width="151.172" height="182.033" viewBox="0 0 151.172 182.033">
  <defs>
    <clipPath id="clip-path">
      <rect id="Rectangle_2703" data-name="Rectangle 2703" width="114.43" height="162.345" fill="none"/>
    </clipPath>
  </defs>
  <g id="Group_11452" data-name="Group 11452" transform="translate(0)">
    <g id="Group_11400" data-name="Group 11400" transform="translate(0 19.689)">
      <g id="Group_11399" data-name="Group 11399" clip-path="url(#clip-path)">
        <path id="Path_19588" data-name="Path 19588" d="M150.567,312.6q-3.94-.277-7.856-.821c-.213-.03-.5-.014-.553.2s.212.364.426.426a57.774,57.774,0,0,0,32.158,0,.647.647,0,0,0,.424-.261c.3-.571-2.754-.061-3.114-.019q-2.115.243-4.238.409-4.149.324-8.314.351-4.47.029-8.934-.285" transform="translate(-72.237 -158.431)" fill="#8e5511"/>
        <path id="Path_19589" data-name="Path 19589" d="M180.03,127.386a4.007,4.007,0,0,1,2.534.521,5.116,5.116,0,0,1,2.6,4.486,4.054,4.054,0,0,1-.808,2.474.7.7,0,0,1-1.229-.28l-.016-.071a17.276,17.276,0,0,0-.487-1.814,9.182,9.182,0,0,0-.647-1.488,8.989,8.989,0,0,0-.919-1.354,15.724,15.724,0,0,0-1.313-1.4l-.04-.039a.607.607,0,0,1,.329-1.035" transform="translate(-91.225 -64.714)" fill="#181818"/>
        <path id="Path_19590" data-name="Path 19590" d="M101.214,169.138c-.007-.047-.013-.094-.018-.14a16.507,16.507,0,0,1,6.048-14.734c.519-.419,5.059-3.68,4.7-1.522a2.136,2.136,0,0,1-.608,1,38.139,38.139,0,0,0-8.053,14.5,2.671,2.671,0,0,1-.661,1.311.883.883,0,0,1-1.3-.072.957.957,0,0,1-.108-.341" transform="translate(-51.372 -77.246)" fill="#181818"/>
        <path id="Path_19591" data-name="Path 19591" d="M117.107,195.182a2.688,2.688,0,0,1,.015-.689,16.6,16.6,0,0,1,3.568-8.453,12.851,12.851,0,0,1,4.3-3.344c.57-.27,4.775-1.958,4.3-.142a1.949,1.949,0,0,1-.847.964c-4,2.937-6.885,7.129-9.371,11.421-.337.581-.95,1.26-1.545.949a.866.866,0,0,1-.418-.706" transform="translate(-59.502 -92.346)" fill="#181818"/>
        <path id="Path_19592" data-name="Path 19592" d="M140.421,216.073a3.148,3.148,0,0,1,.486-.6,108.582,108.582,0,0,1,8.307-7.783c.515-.434,3.447-3.237,3.683-1.478a1.809,1.809,0,0,1-.21.939,18.4,18.4,0,0,1-11.155,10.086,1.164,1.164,0,0,1-.964.01.811.811,0,0,1-.257-.931,1.342,1.342,0,0,1,.109-.242" transform="translate(-71.278 -104.498)" fill="#181818"/>
        <path id="Path_19593" data-name="Path 19593" d="M131.655,62.592c-9.265-11.945-9.5-52.506-9.5-57.093C123.965,4.406,133.143,3,147,3s23.034,1.407,24.844,2.5c0,4.146-.19,37.715-7.081,52.937.932.346,1.844.727,2.742,1.163,7.568-16.946,7.352-52.856,7.337-54.552v0c-.011-1.663-1.56-2.978-9.014-3.985A148.192,148.192,0,0,0,147,0a148.18,148.18,0,0,0-18.828,1.056c-7.454,1.008-9,2.322-9.014,3.985v0c-.016,1.848-.271,44.3,9.56,58.6q1.488-.488,2.939-1.057" transform="translate(-60.55)" fill="#f7c948"/>
        <path id="Path_19594" data-name="Path 19594" d="M175.208,18.433a.252.252,0,0,0-.282-.219h-.009c-2.707.339-5.421.611-8.128.813-1.355.085-2.707.191-4.062.227-1.353.064-2.706.086-4.057.085s-2.7-.022-4.057-.087c-1.355-.037-2.706-.143-4.061-.229-2.706-.2-5.42-.477-8.126-.818h-.009a.262.262,0,0,0-.115.509,47.24,47.24,0,0,0,8.086,1.821,60.041,60.041,0,0,0,8.282.6,60.191,60.191,0,0,0,8.282-.609,47.21,47.21,0,0,0,8.084-1.826.253.253,0,0,0,.171-.271" transform="translate(-72.223 -9.25)" fill="#8e5511"/>
        <path id="Path_19595" data-name="Path 19595" d="M140.468,101.609c1.265-.514,2.523-1.054,3.792-1.606a59.78,59.78,0,0,1,8.791-3.184,32.55,32.55,0,0,1,18.168.63c2.449-5.588,3.336-12.126,4.19-17.88.107-.719-.172-1.72-1.047-1.844A30.932,30.932,0,0,0,168.44,78l-13.562.8c-6.4.376-13.141.187-19.484,1.176a1.531,1.531,0,0,0-1.048,1.845c1.085,6.6,2.274,14.105,6.122,19.795" transform="translate(-68.258 -39.453)" fill="#f7c948"/>
        <path id="Path_19596" data-name="Path 19596" d="M171.315,277.332c-5.648-2.412-11.871-2.972-18.018-3.365a1.521,1.521,0,0,1-1.424-1.6q.5-9.84.468-19.7a39.423,39.423,0,0,0-3.26,2.52q.033,12.519,1.011,25.011c.035.441.233,1.025.672.969.367-.047.488-.511.522-.878l.2-2.161a1.3,1.3,0,0,1,1.323-1.183,64.852,64.852,0,0,1,14.206,1.985,14.006,14.006,0,0,1,3.855,1.459,1.337,1.337,0,0,1-.049,2.288,13.57,13.57,0,0,1-3.258,1.288,69.671,69.671,0,0,1-17.17,2.225A86.451,86.451,0,0,1,129.6,284.53a18.383,18.383,0,0,1-5.415-1.906,1.333,1.333,0,0,1,.028-2.285,12.791,12.791,0,0,1,3.212-1.235,62.513,62.513,0,0,1,14.75-2.15,1.3,1.3,0,0,1,1.316,1.156l.253,2.228c.037.32.126.708.435.8.466.139.739-.51.785-.994a215.084,215.084,0,0,0,.988-21.923c-.393.436-.778.878-1.144,1.334-.289.36-.566.729-.837,1.1s-.516.741-.838,1.173l-.414.564q.072,4.992.329,9.98a1.52,1.52,0,0,1-1.417,1.6c-6.585.428-13.256,1.049-19.209,3.95a4.733,4.733,0,0,0-2.2,2.1c-1.106,2.229.385,3.847,1.961,4.864a21.579,21.579,0,0,0,7.416,2.681,87.926,87.926,0,0,0,17.648,1.652,89.493,89.493,0,0,0,17.918-1.592,20.57,20.57,0,0,0,8.457-3.274,3.986,3.986,0,0,0,1.3-1.555c1.138-2.606-1.358-4.511-3.6-5.469" transform="translate(-60.897 -128.399)" fill="#f7c948"/>
        <path id="Path_19597" data-name="Path 19597" d="M114.412,121.566a8.791,8.791,0,0,0-2.162-5.108,14.581,14.581,0,0,0-4.057-3.168,30.159,30.159,0,0,0-4.429-1.967,32.561,32.561,0,0,0-18.97-.9A59.782,59.782,0,0,0,76,113.606a84.656,84.656,0,0,1-8.443,3.3.519.519,0,0,0,.187,1.013,37.715,37.715,0,0,0,9.112-2.043c2.921-.964,5.756-2,8.612-2.668a29.227,29.227,0,0,1,8.689-.681,30.11,30.11,0,0,1,8.505,1.812,28.619,28.619,0,0,1,3.939,1.8,11.4,11.4,0,0,1,3.159,2.438,5.525,5.525,0,0,1,1.38,3.2,3.376,3.376,0,0,1-1.1,2.82,7.459,7.459,0,0,1-3.345,1.567,16.641,16.641,0,0,1-2.061.348c-2.485.3-4.982.609-7.487.673-3.739.1-7.371-.7-11.08,0a37.16,37.16,0,0,0-8.91,2.968.52.52,0,0,0,.317.982,74.836,74.836,0,0,1,8.919-1.339,25.284,25.284,0,0,1,4.317.064,16.175,16.175,0,0,1,4.022.923,8.759,8.759,0,0,1,3.17,2.064,5.577,5.577,0,0,1,.994,1.437,7.659,7.659,0,0,1,.561,1.739,10.379,10.379,0,0,1,.158,1.9c-.027,1.187-.13,3.252-1.586,3.578-.619.138-.926-.17-1.439-.4a5.644,5.644,0,0,0-1.581-.293,13.106,13.106,0,0,0-3.237,0,21.312,21.312,0,0,0-4.631,1.129,57.792,57.792,0,0,0-8.287,3.9.572.572,0,0,0,.452,1.047c2.88-.964,5.676-2.026,8.5-2.733a21.213,21.213,0,0,1,4.2-.684,9.317,9.317,0,0,1,3.836.519,3.736,3.736,0,0,1,.811.393,4.4,4.4,0,0,1,.753.5,4.3,4.3,0,0,1,1.088,1.243,4.159,4.159,0,0,1,.232,3.183,10.113,10.113,0,0,1-5.42,6.731,33.86,33.86,0,0,0-5.9,3.281.605.605,0,0,0,.51,1.071c4.469-1.12,11.154-4,14.86.377a4.038,4.038,0,0,1,.863,3.98,7.661,7.661,0,0,1-2.952,3.713,29.869,29.869,0,0,1-4.929,2.558,41.915,41.915,0,0,0-10.285,6.576,35.016,35.016,0,0,0-4.269,4.463c-.323.4-.633.821-.939,1.24s-.6.869-.867,1.222l-.823,1.126a10.093,10.093,0,0,1-.858,1.09,22.368,22.368,0,0,1-8.622,6.5,26.472,26.472,0,0,1-10.831,1.654,66.663,66.663,0,0,1-10.6-1.456A22.919,22.919,0,0,0,47.1,191.1a16.826,16.826,0,0,0-1.718-3.967,10.961,10.961,0,0,0-2.9-3.228.606.606,0,0,0-.794.909,13.7,13.7,0,0,1,3.095,6.85,24.477,24.477,0,0,1,.349,2.779,1.483,1.483,0,0,0,.041.737,36.593,36.593,0,0,1-.069,4.212,27.507,27.507,0,0,1-.535,3.782,16.944,16.944,0,0,1-1.189,3.49,9.026,9.026,0,0,1-4.74,4.756,6.217,6.217,0,0,1-3.132.485,5.891,5.891,0,0,1-.747-.14,5.976,5.976,0,0,1-.712-.266,4.966,4.966,0,0,1-1.292-.817,6.33,6.33,0,0,1-1.79-2.582,12.053,12.053,0,0,1-.659-3.45c-.169-2.486.143-5.324-.377-8.307a40.48,40.48,0,0,0-2.268-8.18,35.169,35.169,0,0,0-9.737-13.871,37.35,37.35,0,0,0-7.054-4.743c-1.244-.644-2.426-1.214-3.538-1.859a13.686,13.686,0,0,1-2.936-2.15,4.139,4.139,0,0,1-1.37-2.6,3.641,3.641,0,0,1,.9-2.685,6.51,6.51,0,0,1,1.217-1.115,11.8,11.8,0,0,1,1.55-.885,15.084,15.084,0,0,1,3.541-1.165,12.633,12.633,0,0,1,7.331.55,11.507,11.507,0,0,1,3.231,1.911,11.189,11.189,0,0,1,2.442,2.936.54.54,0,0,0,.971-.467,11.955,11.955,0,0,0-5.824-6.2,13.264,13.264,0,0,0-2.13-.843,1.568,1.568,0,0,0,.006-.161c-.754-13.018,7.935-25.854,20.615-29.425,6.444-1.815,13.484-1.509,19.347-5.136a13.263,13.263,0,0,0,5.208-5.487c.889-1.917.8-6.127,2.572-7.378q-.446-1.447-.843-2.985a5.275,5.275,0,0,0-2.705,2.368c-1.733,3.117-.8,6.494-3.582,9.238-5.991,5.916-15.85,4.473-23.214,7.286a32.422,32.422,0,0,0-20.412,31.12,14.319,14.319,0,0,0-3.457.137,17.729,17.729,0,0,0-4.233,1.171,10.419,10.419,0,0,0-3.837,2.637,6.771,6.771,0,0,0-1.329,2.193,5.678,5.678,0,0,0-.313,1.279c-.029.216-.06.432-.08.65l.021.67a6.118,6.118,0,0,0,.217,1.322,8.03,8.03,0,0,0,.486,1.22,7.664,7.664,0,0,0,.671,1.068l.374.489.4.437a16.68,16.68,0,0,0,3.547,2.729c1.223.739,2.476,1.371,3.629,2a34.225,34.225,0,0,1,6.346,4.436,31.659,31.659,0,0,1,8.64,12.61,39.458,39.458,0,0,1,2.064,7.483c.443,2.383.171,5.013.346,7.937a15.429,15.429,0,0,0,.9,4.508,9.875,9.875,0,0,0,2.862,3.989,8.451,8.451,0,0,0,2.152,1.318,7.914,7.914,0,0,0,2.453.647,10.237,10.237,0,0,0,4.816-.768,11.34,11.34,0,0,0,3.9-2.689,13.988,13.988,0,0,0,2.545-3.827,21.374,21.374,0,0,0,1.752-8.521c.018-.972,0-1.948-.068-2.922a60.577,60.577,0,0,0,10.054,1.515c.506.047,1.02.043,1.532.047l1.538.006,1.547-.1.774-.05.773-.109,1.547-.222,1.533-.355.766-.182c.252-.074.5-.168.749-.252l1.494-.52a25.821,25.821,0,0,0,10-7.458,12.031,12.031,0,0,0,.962-1.213l.914-1.245c.321-.432.574-.8.838-1.173s.548-.741.837-1.1a31.563,31.563,0,0,1,3.859-4.01,38.867,38.867,0,0,1,9.386-6.15,32.546,32.546,0,0,0,5.441-2.938,12.565,12.565,0,0,0,2.443-2.326,9.5,9.5,0,0,0,1.662-3.111,7.216,7.216,0,0,0,.141-3.719,7.557,7.557,0,0,0-1.707-3.261A9,9,0,0,0,101.7,156.5a6.883,6.883,0,0,1-2.144-.861c-.817-.758.277-1.7.746-2.281a9.021,9.021,0,0,0,1.474-3.253,7.377,7.377,0,0,0-.631-5.628,2.469,2.469,0,0,1-.276-.591,1.427,1.427,0,0,1,.512-1.218,5.145,5.145,0,0,0,1.128-1.879,10.591,10.591,0,0,0,.367-5.4,11.061,11.061,0,0,0-.835-2.624c-.326-.676-2.743-2.649-.831-2.778a41.3,41.3,0,0,0,6.22-.634A10.346,10.346,0,0,0,112.276,127a6.634,6.634,0,0,0,2.136-5.436" transform="translate(0 -53.055)" fill="#181818"/>
      </g>
    </g>
    <g id="Group_11402" data-name="Group 11402" transform="translate(119.762 0)">
      <ellipse id="Ellipse_443" data-name="Ellipse 443" cx="15.705" cy="15.705" rx="15.705" ry="15.705" transform="translate(0 0)" fill="#f7c948"/>
      <g id="Group_11401" data-name="Group 11401" transform="translate(8.886 8.472)">
        <line id="Line_179" data-name="Line 179" y2="14.467" transform="translate(7.233)" fill="none" stroke="#fff" stroke-linecap="round" stroke-width="4"/>
        <line id="Line_180" data-name="Line 180" y2="14.467" transform="translate(14.467 7.233) rotate(90)" fill="none" stroke="#fff" stroke-linecap="round" stroke-width="4"/>
      </g>
    </g>
  </g>
</svg>
