<svg xmlns="http://www.w3.org/2000/svg" xmlns:xlink="http://www.w3.org/1999/xlink" width="133.882" height="123.429" viewBox="0 0 133.882 123.429">
  <defs>
    <clipPath id="clip-path">
      <rect id="Rectangle_10433" data-name="Rectangle 10433" width="133.882" height="123.429" fill="none"/>
    </clipPath>
  </defs>
  <g id="Group_11409" data-name="Group 11409" transform="translate(0)" opacity="0.8">
    <g id="Group_11408" data-name="Group 11408" transform="translate(0)" clip-path="url(#clip-path)">
      <path id="Path_19600" data-name="Path 19600" d="M133.882,37.141V112.45a1.776,1.776,0,0,0-.242.431c-1.553,6.57-6.519,10.545-13.22,10.545q-53.592,0-107.184,0A12.991,12.991,0,0,1,.007,110.191q-.015-35.423,0-70.846A12.992,12.992,0,0,1,13.157,26.166c5.4-.016,10.805,0,16.208,0H30.86V24.6c0-3.965-.028-7.93.01-11.895A12.991,12.991,0,0,1,43.587.028q23.333-.056,46.664,0a12.983,12.983,0,0,1,12.76,12.768c.033,3.965.008,7.93.009,11.895v1.473H104.6c5.446,0,10.894-.07,16.339.021a12.582,12.582,0,0,1,11.6,7.336,30.257,30.257,0,0,1,1.338,3.621M5.224,65.049V66.6q0,21.438,0,42.877c0,5.524,3.232,8.732,8.79,8.733q52.943,0,105.886,0c5.537,0,8.754-3.223,8.755-8.77q0-21.438,0-42.877V65.1c-.546.145-.922.233-1.29.345q-29.426,8.912-58.861,17.8a5.327,5.327,0,0,1-2.9.072Q41.327,76.029,17.079,68.634c-3.9-1.182-7.8-2.359-11.855-3.585m.02-5.5q30.6,9.254,60.981,18.409a3.935,3.935,0,0,0,2.114-.159q21.471-6.456,42.925-12.967c5.775-1.749,11.546-3.512,17.393-5.291V58.069q0-8.955,0-17.91c0-5.558-3.208-8.775-8.747-8.776q-20.2,0-40.4,0a5.992,5.992,0,0,1-1.553-.112,2.606,2.606,0,0,1,.906-5.1c5.84-.014,11.679-.006,17.518-.007h1.345v-9.34H36.177v9.34H37.7c5.8,0,11.592-.009,17.387.007A2.513,2.513,0,0,1,57.8,28.716a2.547,2.547,0,0,1-2.728,2.665c-.349.009-.7,0-1.046,0q-20.264,0-40.527.005A7.877,7.877,0,0,0,5.3,38.282a3.3,3.3,0,0,0-.058.519c0,6.881,0,13.763,0,20.743M97.518,11.475c-.794-3.85-3.9-6.235-8.027-6.238q-19.929-.015-39.859,0c-1.917,0-3.834-.037-5.75.012-3.792.1-7.138,2.9-7.456,6.23Z" transform="translate(0 0)" fill="#1a1818"/>
      <path id="Path_19601" data-name="Path 19601" d="M163.316,145.056c-4.048,0-8.1.007-12.145,0-1.985,0-2.95-.975-2.955-2.967q-.014-5.942,0-11.883a2.581,2.581,0,0,1,2.875-2.914q12.275-.014,24.551,0a2.578,2.578,0,0,1,2.891,2.9q.018,5.942,0,11.883c0,2-.966,2.977-2.942,2.982-4.092.01-8.184,0-12.276,0m9.972-12.466H153.532v7.137h19.756Z" transform="translate(-96.435 -82.818)" fill="#f7c948"/>
      <path id="Path_19602" data-name="Path 19602" d="M189.413,77.488a2.538,2.538,0,0,1-2.607,2.626,2.607,2.607,0,0,1-.036-5.214,2.538,2.538,0,0,1,2.643,2.589" transform="translate(-119.849 -48.734)" fill="#f7c948"/>
    </g>
  </g>
</svg>
