<svg xmlns="http://www.w3.org/2000/svg" width="54.818" height="54.882" viewBox="0 0 54.818 54.882">
  <g id="Group_3809" data-name="Group 3809" transform="translate(0 0)">
    <path id="Path_5328" data-name="Path 5328" d="M4071.656,5218.246h1.085c3.674,0,7.346.01,11.02-.008a1.115,1.115,0,0,1,1.2.83q3.148,8.32,6.332,16.627c.384,1.009.079,1.442-1.014,1.442h-52.5c-1.044,0-1.363-.455-1-1.417q3.168-8.313,6.331-16.628a1.148,1.148,0,0,1,1.242-.854c3.789.02,7.577.009,11.366.009h.723l-.56-.952a56.891,56.891,0,0,1-5.383-11.568,27.911,27.911,0,0,1-1.446-8.371,14.98,14.98,0,0,1,29.9-1.471,25.231,25.231,0,0,1-1.36,9.81,56.586,56.586,0,0,1-5.55,11.869C4071.927,5217.758,4071.82,5217.958,4071.656,5218.246Zm-7.562,8.144c1.8-2.6,3.558-5,5.184-7.492a56.841,56.841,0,0,0,6.706-13.533,23.525,23.525,0,0,0,1.349-9.457,13.365,13.365,0,0,0-26.661,1.6,28.6,28.6,0,0,0,2.128,9.856,68.707,68.707,0,0,0,8.175,14.783C4061.944,5223.524,4062.969,5224.862,4064.095,5226.39Zm-25.5,9.1c.176.018.252.032.328.032,2.979,0,5.959.005,8.938-.005a2.462,2.462,0,0,0,.778-.17q4.289-1.512,8.571-3.042c.15-.053.293-.128.436-.192a.817.817,0,0,0-.063-.153q-4.549-5.917-9.112-11.824a.836.836,0,0,0-.571-.266c-.9-.027-1.807.014-2.709-.023a.751.751,0,0,0-.871.578c-1.367,3.646-2.766,7.282-4.153,10.92C4039.654,5232.7,4039.141,5234.061,4038.6,5235.489Zm11.754-15.633c.185.262.3.431.418.591,2.73,3.549,5.469,7.09,8.181,10.652a.7.7,0,0,0,.956.263q10.028-3.587,20.065-7.146c1.516-.539,3.03-1.083,4.587-1.64-.3-.779-.6-1.5-.845-2.247a.609.609,0,0,0-.7-.483q-5.94.024-11.881,0a.9.9,0,0,0-.824.467q-2.691,3.741-5.422,7.453c-.586.793-1.106.793-1.689,0q-2.734-3.71-5.421-7.455a.936.936,0,0,0-.883-.465c-1.6.024-3.191.009-4.786.009Zm24.006,8.069-21.027,7.475.032.086h26.812Zm1.677-.533a.815.815,0,0,0,.076.156c1.969,2.559,3.933,5.122,5.919,7.667a.97.97,0,0,0,.674.3c2.1.022,4.191.013,6.287.011.142,0,.283-.023.5-.043-1.464-3.835-2.9-7.605-4.347-11.39-3.04,1.082-6,2.136-8.969,3.193A.529.529,0,0,0,4076.037,5227.392Z" transform="translate(-4036.635 -5182.256)" fill="#010101"/>
    <path id="Path_5329" data-name="Path 5329" d="M4069.718,5206.318a6.813,6.813,0,1,1,6.842-6.727A6.8,6.8,0,0,1,4069.718,5206.318Zm.036-1.616a5.2,5.2,0,1,0-5.205-5.2A5.183,5.183,0,0,0,4069.754,5204.7Z" transform="translate(-4042.339 -5184.52)" fill="#010101"/>
  </g>
</svg>
