<svg xmlns="http://www.w3.org/2000/svg" xmlns:xlink="http://www.w3.org/1999/xlink" width="995.647" height="296.921" viewBox="0 0 995.647 296.921">
  <defs>
    <filter id="Rectangle_1" x="0" y="0" width="995.647" height="296.921" filterUnits="userSpaceOnUse">
      <feOffset dy="10" input="SourceAlpha"/>
      <feGaussianBlur stdDeviation="5" result="blur"/>
      <feFlood flood-opacity="0.071"/>
      <feComposite operator="in" in2="blur"/>
      <feComposite in="SourceGraphic"/>
    </filter>
    <filter id="Ellipse_1" x="46.325" y="19.922" width="164.377" height="164.377" filterUnits="userSpaceOnUse">
      <feOffset input="SourceAlpha"/>
      <feGaussianBlur stdDeviation="5" result="blur-2"/>
      <feFlood flood-opacity="0.071"/>
      <feComposite operator="in" in2="blur-2"/>
      <feComposite in="SourceGraphic"/>
    </filter>
  </defs>
  <g id="Group_11565" data-name="Group 11565" transform="translate(-8499.675 -13729.258)">
    <g transform="matrix(1, 0, 0, 1, 8499.67, 13729.26)" filter="url(#Rectangle_1)">
      <rect id="Rectangle_1-2" data-name="Rectangle 1" width="965.647" height="266.921" rx="28.624" transform="translate(15 5)" fill="#fff"/>
    </g>
    <g transform="matrix(1, 0, 0, 1, 8499.67, 13729.26)" filter="url(#Ellipse_1)">
      <circle id="Ellipse_1-2" data-name="Ellipse 1" cx="67.189" cy="67.189" r="67.189" transform="translate(61.33 34.92)" fill="#fefefe"/>
    </g>
    <g id="Group_8" data-name="Group 8">
      <path id="Path_39" data-name="Path 39" d="M8654.326,13875.709h-52.284c-.042-.312.227-.37.413-.476a2.708,2.708,0,0,0,1.435-2.654,14.464,14.464,0,0,1,13.107-15.291c.772-.094,1.547-.127,2.321-.187,3.139-.241,4.631-2.928,3.184-5.677-.128-.244-.463-.527.022-.771a4.7,4.7,0,0,1,1.813.489,12.847,12.847,0,0,0,8.688-.342,1.8,1.8,0,0,1,1.149-.265c.247.235.029.42-.08.6-1.838,3.058-.242,5.918,3.357,5.983a18.919,18.919,0,0,1,3.514.4,14.352,14.352,0,0,1,11.372,12.217,16.407,16.407,0,0,1,.134,2.757,2.789,2.789,0,0,0,1.518,2.786C8654.157,13875.365,8654.374,13875.441,8654.326,13875.709Z" fill="#fd4f60"/>
      <path id="Path_40" data-name="Path 40" d="M8622.516,13850.74c-.056.6.5.933.646,1.467a3.987,3.987,0,0,1-4.062,5.149,15.182,15.182,0,0,0-9.006,2.729,13.837,13.837,0,0,0-5.824,9.5,12.275,12.275,0,0,0-.135,2.663,3.149,3.149,0,0,1-2.093,3.465h-2.423a2.513,2.513,0,0,1-.886-2.19c.056-2.417.016-4.837.02-7.256a14.292,14.292,0,0,1,11.463-13.589c1.392-.246,2.808-.2,4.192-.413a8.2,8.2,0,0,0,5.284-3.424A6.968,6.968,0,0,1,8622.516,13850.74Z" fill="#fe6d7a"/>
      <path id="Path_41" data-name="Path 41" d="M8654.326,13875.709a3.258,3.258,0,0,1-2.1-3.55,13.478,13.478,0,0,0-2.56-8.683,14.349,14.349,0,0,0-10.249-5.981,32.829,32.829,0,0,1-3.336-.3,3.811,3.811,0,0,1-2.017-6.343,1.145,1.145,0,0,0,.159-.3,5.376,5.376,0,0,1,2.447-1.713,8.221,8.221,0,0,0,5.294,3.431c1.39.214,2.812.159,4.206.408a14.269,14.269,0,0,1,11.269,11.854c.4,3.246.08,6.51.171,9.764.019.659-.542.96-.862,1.41Z" fill="#e74857"/>
      <path id="Path_42" data-name="Path 42" d="M8647.237,13825.121a26.3,26.3,0,0,1-1.184,6.909,18.854,18.854,0,0,1-10.6,11.13,1.746,1.746,0,0,1-.85.568,19.331,19.331,0,0,1-11.828.319c-.274-.078-.564-.154-.686-.466.147-.316.47-.295.736-.376a2.811,2.811,0,0,0,2.123-2.171,2.682,2.682,0,0,0-1.3-3.039,18.64,18.64,0,0,1-7.069-7.989,18.168,18.168,0,0,1-1.792-7.776q-.01-5.972,0-11.944a6.444,6.444,0,0,0-.051-1.123,1.993,1.993,0,0,0-2.108-1.771c-.341,0-.687.134-1.025-.022-.2-.363.106-.548.27-.785a9.2,9.2,0,0,1,6.864-2.792q9.431-.089,18.862-.007a9.575,9.575,0,0,1,9.571,7.6,5.588,5.588,0,0,1,.14,1.2c.013,4.01-.012,8.02.013,12.028A1.022,1.022,0,0,1,8647.237,13825.121Z" fill="#feead1"/>
      <path id="Path_43" data-name="Path 43" d="M8647.237,13825.121a1.7,1.7,0,0,1-.128-1.011c-.021-3.862.022-7.727-.068-11.587a9.089,9.089,0,0,0-7.783-8.326,24.475,24.475,0,0,0-2.674-.133c-5.621,0-11.243.051-16.863-.02a10.542,10.542,0,0,0-7.828,2.746c-.51-.191-.263-.553-.158-.839a22.514,22.514,0,0,1,3.994-7.013c3.936-4.6,9.065-6.849,14.953-7.58a28.133,28.133,0,0,1,7.646.2c.4.059.96-.078,1.117.538.058.53.464.489.839.524a19.41,19.41,0,0,1,12.786,6.1,21.8,21.8,0,0,1,1.984,2.5.722.722,0,0,1-.042,1.054,11.809,11.809,0,0,0-2.955,8.331c.049,3,.012,5.994.012,8.99C8652.068,13823.059,8650.671,13824.656,8647.237,13825.121Z" fill="#42434d"/>
      <path id="Path_44" data-name="Path 44" d="M8639.445,13792.1a5.733,5.733,0,0,0-2.571-.5c-6.2-.583-12.06.431-17.263,4.081a20.623,20.623,0,0,0-7.434,9.776c-.154.4-.65.8-.285,1.332l-.334.529a2.177,2.177,0,0,1-.518,1.071,8.955,8.955,0,0,0-1.479,5.061c.037,3.4.016,6.795.007,10.192a1.865,1.865,0,0,1-.241,1.324c-.5,0-.382-.408-.4-.667-.04-.716-.028-1.434,0-2.149-1.515,1.176-2.3,1.221-3.944.223a3.543,3.543,0,0,1-.519-1.966c0-3.317-.127-6.641.029-9.95.324-6.859,2.384-13.037,7.625-17.809a21.217,21.217,0,0,1,11.158-5.223,32.992,32.992,0,0,1,18.286,2.42c.311.13.816.134.8.647-.019.492-.515.465-.824.63A11.8,11.8,0,0,0,8639.445,13792.1Z" fill="#4d4e59"/>
      <path id="Path_45" data-name="Path 45" d="M8609.134,13824.958a40.639,40.639,0,0,0,.15-4.9c.077-2.392-.017-4.79.039-7.183a8.249,8.249,0,0,1,2.235-5.554c2.273-.588,3.468.324,3.468,2.651,0,4.1-.026,8.194.008,12.29a18.373,18.373,0,0,0,4.247,11.581,18.876,18.876,0,0,0,4.514,3.958c1.641,1.078,1.595,2.069,1.373,3.492a3.03,3.03,0,0,1-3.046,2.215c-.527.322-.862-.02-1.2-.347a14.885,14.885,0,0,1-4.735-2.775,18.811,18.811,0,0,1-6.4-10.08,32.738,32.738,0,0,1-.665-5.187A.114.114,0,0,1,8609.134,13824.958Z" fill="#fef2e3"/>
      <path id="Path_46" data-name="Path 46" d="M8636.673,13848.842q-1.222.857-2.447,1.713a13.559,13.559,0,0,1-11.711.186,29.8,29.8,0,0,1-2.822-1.9,13.077,13.077,0,0,0,1.051-2.389c.374-.248.727-.044,1.066.075a18.743,18.743,0,0,0,12.747,0c.341-.119.693-.324,1.067-.076A13.911,13.911,0,0,0,8636.673,13848.842Z" fill="#fedeb9"/>
      <path id="Path_47" data-name="Path 47" d="M8635.624,13846.448a28.058,28.058,0,0,1-4.822,1.252,19.508,19.508,0,0,1-8.091-.618c-.657-.208-1.312-.422-1.968-.634a20.786,20.786,0,0,0,.177-3.287c.424.034.752.4,1.2.347a14.009,14.009,0,0,0,4.829,1.025,19.423,19.423,0,0,0,8.5-1.373A19.8,19.8,0,0,0,8635.624,13846.448Z" fill="#fed5a5"/>
      <path id="Path_48" data-name="Path 48" d="M8609.134,13824.958c0,.053,0,.107-.009.16a4.654,4.654,0,0,1-4.137-2.743c.023-.1.023-.276.18-.2,1.908.916,2.508.849,3.966-.517Z" fill="#42434d"/>
      <path id="Path_49" data-name="Path 49" d="M8641.368,13869.435c.774,0,1.552-.025,2.326.009a1.492,1.492,0,0,1,.034,2.983q-2.367.056-4.738,0a1.493,1.493,0,0,1,.051-2.984C8639.815,13869.41,8640.592,13869.435,8641.368,13869.435Z" fill="#fefefe"/>
    </g>
    <text id="Lorem_ipsum_dolor_sit_amet_consectetur_adipiscing_elit._Suspendisse_sed_magna_a_magna_vestibulum_feugiat_non_pellentesque_diam." data-name="Lorem ipsum dolor sit amet, consectetur adipiscing elit.
Suspendisse sed magna a magna vestibulum feugiat 
non pellentesque diam." transform="translate(8727.448 13794.832)" fill="#393f45" font-size="25" font-family="Poppins-Regular, Poppins" opacity="0.8"><tspan x="0" y="0">Lorem ipsum dolor sit amet, consectetur adipiscing elit.</tspan><tspan x="0" y="43">Suspendisse sed magna a magna vestibulum feugiat </tspan><tspan x="0" y="86">non pellentesque diam.</tspan></text>
    <text id="_03:44_PM_27_04_2022_" data-name="03:44 PM 27/04/2022," transform="translate(8992.085 13940.215)" fill="#393f45" font-size="22" font-family="Poppins-Regular, Poppins" opacity="0.5"><tspan x="0" y="0">03:44 PM 27/04/2022,</tspan></text>
    <g id="Group_10" data-name="Group 10">
      <g id="Group_9" data-name="Group 9">
        <path id="Path_50" data-name="Path 50" d="M8747.046,13914.178l4.358,8.831a1.613,1.613,0,0,0,1.216.883l9.745,1.416a1.615,1.615,0,0,1,.895,2.754l-7.052,6.873a1.617,1.617,0,0,0-.464,1.43l1.664,9.705a1.614,1.614,0,0,1-2.342,1.7l-8.717-4.582a1.616,1.616,0,0,0-1.5,0l-8.715,4.582a1.615,1.615,0,0,1-2.343-1.7l1.665-9.705a1.617,1.617,0,0,0-.465-1.43l-7.051-6.873a1.614,1.614,0,0,1,.895-2.754l9.744-1.416a1.615,1.615,0,0,0,1.216-.883l4.358-8.831A1.614,1.614,0,0,1,8747.046,13914.178Z" fill="#fdc350"/>
        <path id="Path_51" data-name="Path 51" d="M8794.829,13914.178l4.357,8.831a1.615,1.615,0,0,0,1.217.883l9.745,1.416a1.614,1.614,0,0,1,.894,2.754l-7.051,6.873a1.614,1.614,0,0,0-.464,1.43l1.664,9.705a1.615,1.615,0,0,1-2.343,1.7l-8.716-4.582a1.616,1.616,0,0,0-1.5,0l-8.716,4.582a1.614,1.614,0,0,1-2.342-1.7l1.664-9.705a1.614,1.614,0,0,0-.464-1.43l-7.052-6.873a1.615,1.615,0,0,1,.9-2.754l9.744-1.416a1.615,1.615,0,0,0,1.216-.883l4.357-8.831A1.615,1.615,0,0,1,8794.829,13914.178Z" fill="#fdc350"/>
        <path id="Path_52" data-name="Path 52" d="M8842.612,13914.178l4.357,8.831a1.615,1.615,0,0,0,1.216.883l9.745,1.416a1.615,1.615,0,0,1,.895,2.754l-7.051,6.873a1.612,1.612,0,0,0-.465,1.43l1.664,9.705a1.614,1.614,0,0,1-2.342,1.7l-8.716-4.582a1.616,1.616,0,0,0-1.5,0l-8.716,4.582a1.614,1.614,0,0,1-2.342-1.7l1.663-9.705a1.611,1.611,0,0,0-.464-1.43l-7.051-6.873a1.614,1.614,0,0,1,.895-2.754l9.744-1.416a1.615,1.615,0,0,0,1.217-.883l4.357-8.831A1.615,1.615,0,0,1,8842.612,13914.178Z" fill="#fdc350"/>
        <path id="Path_53" data-name="Path 53" d="M8890.395,13914.178l4.358,8.831a1.615,1.615,0,0,0,1.216.883l9.744,1.416a1.615,1.615,0,0,1,.9,2.754l-7.052,6.873a1.617,1.617,0,0,0-.465,1.43l1.665,9.705a1.614,1.614,0,0,1-2.342,1.7l-8.716-4.582a1.616,1.616,0,0,0-1.5,0l-8.716,4.582a1.615,1.615,0,0,1-2.343-1.7l1.664-9.705a1.617,1.617,0,0,0-.464-1.43l-7.051-6.873a1.614,1.614,0,0,1,.894-2.754l9.745-1.416a1.613,1.613,0,0,0,1.216-.883l4.358-8.831A1.614,1.614,0,0,1,8890.395,13914.178Z" fill="#fdc350"/>
        <path id="Path_54" data-name="Path 54" d="M8938.178,13914.178l4.358,8.831a1.613,1.613,0,0,0,1.215.883l9.745,1.416a1.615,1.615,0,0,1,.895,2.754l-7.051,6.873a1.615,1.615,0,0,0-.465,1.43l1.665,9.705a1.615,1.615,0,0,1-2.343,1.7l-8.716-4.582a1.616,1.616,0,0,0-1.5,0l-8.716,4.582a1.615,1.615,0,0,1-2.343-1.7l1.665-9.705a1.617,1.617,0,0,0-.464-1.43l-7.052-6.873a1.615,1.615,0,0,1,.895-2.754l9.745-1.416a1.61,1.61,0,0,0,1.215-.883l4.358-8.831A1.615,1.615,0,0,1,8938.178,13914.178Z" fill="#efefef"/>
      </g>
    </g>
  </g>
</svg>
