<svg xmlns="http://www.w3.org/2000/svg" width="60" height="69.881" viewBox="0 0 60 69.881">
  <g id="Group_1027" data-name="Group 1027" transform="translate(-12111.111 -5104.181)" opacity="0.5">
    <path id="Path_1066" data-name="Path 1066" d="M12143.028,5104.181c1.232.177,2.473.319,3.7.537a30,30,0,0,1,4.02,57.9,1.883,1.883,0,0,0-.868.679c-2.113,3.07-4.2,6.161-6.291,9.242-1.386,2.037-3.552,2.036-4.937,0-2.1-3.081-4.178-6.173-6.293-9.241a2.1,2.1,0,0,0-.933-.7c-11.412-4.353-18.346-12.477-20.027-24.608a29.7,29.7,0,0,1,19.325-31.949,28.331,28.331,0,0,1,7.892-1.734,4.882,4.882,0,0,0,.595-.117Zm-1.9,62.257c1.665-2.452,3.274-4.792,4.846-7.157a3.722,3.722,0,0,1,2.129-1.577,24.542,24.542,0,1,0-30.182-15.526c2.726,7.807,8.2,12.934,16.066,15.474a4.149,4.149,0,0,1,2.346,1.724c1.346,2.053,2.743,4.071,4.121,6.1C12140.655,5165.774,12140.865,5166.063,12141.128,5166.438Z"/>
    <path id="Path_1067" data-name="Path 1067" d="M12144.123,5138.279c0,2.342-.016,4.684.01,7.025a1.653,1.653,0,0,1-.88,1.572,4.065,4.065,0,0,1-4.157.077,1.737,1.737,0,0,1-.966-1.669q.025-7.025,0-14.051a1.714,1.714,0,0,1,1.146-1.753,4.663,4.663,0,0,1,3.837.087,1.631,1.631,0,0,1,1.019,1.618C12144.108,5133.549,12144.123,5135.914,12144.123,5138.279Z"/>
    <path id="Path_1068" data-name="Path 1068" d="M12141.141,5125.579a3.07,3.07,0,0,1-3.167-2.6,2.975,2.975,0,0,1,3.359-2.917,4.074,4.074,0,0,1,.736.126,2.819,2.819,0,0,1,2.164,2.847A3.1,3.1,0,0,1,12141.141,5125.579Z"/>
  </g>
</svg>
