<svg id="Group_11430" data-name="Group 11430" xmlns="http://www.w3.org/2000/svg" xmlns:xlink="http://www.w3.org/1999/xlink" width="97.293" height="112.447" viewBox="0 0 97.293 112.447">
  <defs>
    <clipPath id="clip-path">
      <rect id="Rectangle_2704" data-name="Rectangle 2704" width="97.293" height="112.447" fill="none"/>
    </clipPath>
  </defs>
  <g id="Group_11403" data-name="Group 11403" opacity="0.8" clip-path="url(#clip-path)">
    <path id="Path_19598" data-name="Path 19598" d="M32.5,55.324a30.558,30.558,0,0,1-9.9-10.488A30.049,30.049,0,1,1,53.817,59.584c-2.787.472-5.657.445-8.487.669A39.981,39.981,0,0,0,22.2,69.764,40.558,40.558,0,0,0,8.014,94.814a46.668,46.668,0,0,0-.5,5.7c-.124,2.881,1.427,4.449,4.3,4.449q18.241.007,36.481-.01a3.89,3.89,0,0,1,3.059,1.161,3.533,3.533,0,0,1,.764,4,3.469,3.469,0,0,1-3.342,2.318c-12.745.012-25.491.051-38.235-.022C5.055,112.372.148,107.318.014,101.831c-.487-19.963,12.5-39.084,31.229-45.987.359-.132.708-.292,1.257-.52m16.177-2.747A22.452,22.452,0,1,0,26.2,30.358,22.542,22.542,0,0,0,48.677,52.577" transform="translate(0 0)" fill="#1a1818"/>
    <path id="Path_19599" data-name="Path 19599" d="M196.527,228.584c-4.49,0-8.812.012-13.134-.006a3.729,3.729,0,0,1-1.084-7.3,4.811,4.811,0,0,1,1.378-.162c3.819-.012,7.639-.007,11.458-.007h1.382v-2.4c0-3.546-.011-7.092,0-10.637a3.733,3.733,0,1,1,7.466,0c.016,4.285,0,8.57,0,13.046h1.261q5.788,0,11.575,0a3.747,3.747,0,1,1-.053,7.471q-6.2.012-12.393.013a2.743,2.743,0,0,0-.39.087v1.193c0,3.858.006,7.715,0,11.573a3.743,3.743,0,1,1-7.471,0q-.011-5.728,0-11.456v-1.409" transform="translate(-123.549 -140.469)" fill="#f7c948"/>
  </g>
</svg>
