<svg xmlns="http://www.w3.org/2000/svg" width="70.628" height="70.627" viewBox="0 0 70.628 70.627">
  <g id="Group_4822" data-name="Group 4822" transform="translate(-6992.252 -2934.372)" opacity="0.8">
    <path id="Path_8325" data-name="Path 8325" d="M6992.252,2993.678v-48a2.544,2.544,0,0,0,.122-.383,12.388,12.388,0,0,1,7.9-10.025,25.824,25.824,0,0,1,3.289-.9h48a2.334,2.334,0,0,0,.382.122,12.575,12.575,0,0,1,10.915,12.359q.047,22.819,0,45.64a12.554,12.554,0,0,1-12.481,12.483q-22.819.051-45.639,0a12.529,12.529,0,0,1-11.8-8.579C6992.641,2995.514,6992.477,2994.586,6992.252,2993.678Zm35.238,7.172h22.41a8.506,8.506,0,0,0,8.83-8.811q0-22.375,0-44.752a8.5,8.5,0,0,0-8.793-8.777q-22.375,0-44.752,0a8.5,8.5,0,0,0-8.795,8.775q0,22.375,0,44.752a8.509,8.509,0,0,0,8.827,8.813Z" fill="#fff"/>
    <path id="Path_8326" data-name="Path 8326" d="M7047.122,2971.748a18.864,18.864,0,0,1-1.124,1.876,6.469,6.469,0,0,1-11.061-1.3.832.832,0,0,0-.9-.582q-15.2.021-30.4.006a3.848,3.848,0,0,1-1.084-.123,2.039,2.039,0,0,1-1.436-2.106,2.113,2.113,0,0,1,1.885-1.893c.251-.024.5-.011.758-.011q15.128,0,30.257.008a.841.841,0,0,0,.916-.564,6.48,6.48,0,0,1,11.855.025.786.786,0,0,0,.868.54c1.378-.025,2.757-.016,4.135-.007a2.071,2.071,0,1,1,.018,4.133C7050.225,2971.757,7048.641,2971.748,7047.122,2971.748Zm-6.292.284a2.353,2.353,0,1,0,.049-4.705,2.353,2.353,0,1,0-.049,4.705Z" fill="#fff"/>
    <path id="Path_8327" data-name="Path 8327" d="M7036.4,2954.017c-5.1,0-10.2.006-15.3-.01a.858.858,0,0,0-.917.588,6.474,6.474,0,0,1-11.825,0,.848.848,0,0,0-.92-.587c-1.447.026-2.9.034-4.341-.011a2.012,2.012,0,0,1-1.962-1.793,2.042,2.042,0,0,1,1.339-2.171,3.6,3.6,0,0,1,1.083-.145c1.333-.017,2.665-.021,4,0a.711.711,0,0,0,.762-.506,6.478,6.478,0,0,1,11.886-.019c.233.507.533.521.961.521q15.059-.008,30.119,0a6.551,6.551,0,0,1,.962.044,2.046,2.046,0,0,1-.062,4.062,7.1,7.1,0,0,1-.825.029Zm-24.485-2.166a2.365,2.365,0,0,0,2.254,2.462,2.365,2.365,0,1,0,.2-4.726A2.369,2.369,0,0,0,7011.911,2951.851Z" fill="#fff"/>
    <path id="Path_8328" data-name="Path 8328" d="M7040.815,2989.48c-3.607,0-7.214.01-10.821-.011a.9.9,0,0,0-.968.617,6.471,6.471,0,0,1-11.8-.012.9.9,0,0,0-.982-.6c-4.112.018-8.225.01-12.337.01-.161,0-.322,0-.483,0a2.131,2.131,0,0,1-2.319-2.1,2.1,2.1,0,0,1,2.313-2.03q6.375-.012,12.751.006a.993.993,0,0,0,1.082-.661,6.467,6.467,0,0,1,11.762.024.947.947,0,0,0,1.025.638q10.683-.023,21.366-.01c1.638,0,2.623.793,2.6,2.088-.02,1.279-.985,2.048-2.581,2.049Q7046.122,2989.483,7040.815,2989.48Zm-15.325-2.075a2.377,2.377,0,0,0-2.363-2.361,2.366,2.366,0,0,0,0,4.731A2.388,2.388,0,0,0,7025.49,2987.405Z" fill="#fff"/>
  </g>
</svg>
