<svg xmlns="http://www.w3.org/2000/svg" width="30" height="55.687" viewBox="0 0 30 55.687">
  <g id="Group_9108" data-name="Group 9108" transform="translate(-13316.111 -87.298)" opacity="0.8">
    <path id="Path_16048" data-name="Path 16048" d="M13343.511,87.3a11.77,11.77,0,0,0-1.561,1.122q-12.478,12.438-24.929,24.9a2.216,2.216,0,0,0-.773,2.476,3.44,3.44,0,0,0,.8,1.136q8.773,8.8,17.565,17.579,3.787,3.787,7.581,7.568a3.483,3.483,0,0,0,1.046.751,2.056,2.056,0,0,0,2.457-.751,2.085,2.085,0,0,0-.07-2.572,7.259,7.259,0,0,0-.521-.554q-11.669-11.671-23.342-23.338a3.77,3.77,0,0,0-.531-.377v-.227a3.692,3.692,0,0,0,.528-.373q11.733-11.723,23.462-23.449a2.292,2.292,0,0,0,.765-2.345,2.333,2.333,0,0,0-1.61-1.549Z"/>
  </g>
</svg>
