<svg xmlns="http://www.w3.org/2000/svg" width="60" height="59.981" viewBox="0 0 60 59.981">
  <g id="Group_1029" data-name="Group 1029" transform="translate(-12111.111 -4117.499)" opacity="0.6">
    <path id="Path_1069" data-name="Path 1069" d="M12139.476,4117.5h3.635a5.259,5.259,0,0,0,.566.1,29.4,29.4,0,0,1,12.141,3.569c11.368,6.255,17.386,20.148,14.631,32.191a32.261,32.261,0,0,1-7.705,15.221c-6.943,7.43-15.7,9.764-25.529,8.625a29.512,29.512,0,0,1-13.7-5.386,28.054,28.054,0,0,1-11.94-18.794c-.2-1.168-.313-2.353-.466-3.53v-3.985c.035-.207.088-.412.1-.621a27.911,27.911,0,0,1,3.264-11.57c4.73-8.6,12.185-13.408,21.646-15.346C12137.228,4117.749,12138.358,4117.654,12139.476,4117.5Zm-20.007,47.856c.1-.042.146-.047.171-.072a31.867,31.867,0,0,1,6.3-4.939.64.64,0,0,0,.171-.562,50.938,50.938,0,0,1-1.334-9.138c-.039-.714-.071-1.427-.107-2.145h-11.592A27.956,27.956,0,0,0,12119.469,4165.355Zm.028-35.677c-3.58,3.8-7.178,13.4-6.312,16.83h11.5a51.586,51.586,0,0,1,1.517-11.613c-1.192-.829-2.379-1.583-3.484-2.443S12120.588,4130.626,12119.5,4129.678Zm49.588,16.832c.539-4.293-3.08-13.812-6.4-16.85-.109.1-.228.2-.336.306a28.342,28.342,0,0,1-5.8,4.523.723.723,0,0,0-.378.976,45.7,45.7,0,0,1,1.257,8.257c.059.927.106,1.855.159,2.788Zm.077,1.989h-11.575c-.018.143-.042.254-.044.367a49.086,49.086,0,0,1-1.421,10.882.53.53,0,0,0,.309.691,29.33,29.33,0,0,1,5.9,4.587c.119.12.253.226.409.365A28.107,28.107,0,0,0,12169.162,4148.5Zm-27.052,26.955a1.72,1.72,0,0,0,.26,0c.211-.038.422-.078.63-.13a10.859,10.859,0,0,0,5.51-3.676,25.008,25.008,0,0,0,4.439-7.916c.307-.832.566-1.683.853-2.54a28.073,28.073,0,0,0-11.691-3.014Zm-1.99-55.913a2.621,2.621,0,0,0-.265.016,9.593,9.593,0,0,0-5.167,2.795c-3.235,3.173-4.928,7.191-6.252,11.464a27.937,27.937,0,0,0,11.684,3.016Zm13.632,14.268a28.365,28.365,0,0,0-4.791-9.91,13.363,13.363,0,0,0-3.6-3.228,7.921,7.921,0,0,0-3.244-1.139V4136.8A27.352,27.352,0,0,0,12153.752,4133.809Zm-13.626,41.68v-17.314a28.344,28.344,0,0,0-11.78,3.063c.713,1.787,1.348,3.587,2.14,5.313a18.555,18.555,0,0,0,5.064,6.863A9.036,9.036,0,0,0,12140.126,4175.489Zm-13.51-28.979h13.493v-7.75a30.555,30.555,0,0,1-12.161-3.021A50.23,50.23,0,0,0,12126.616,4146.51Zm.04,1.983c-.2,2.117.756,9.556,1.382,10.743a30.346,30.346,0,0,1,12.08-3v-7.747Zm27.627-12.759a30.465,30.465,0,0,1-12.169,3.033v7.738h13.506A50.6,50.6,0,0,0,12154.283,4135.734Zm1.278,12.767h-13.453v7.744a30,30,0,0,1,12.152,3.014C12155,4156.688,12155.792,4150.13,12155.562,4148.5Zm-7.242,26.066a7.688,7.688,0,1,0,7.17-12.435C12153.973,4166.825,12151.933,4171.143,12148.319,4174.567Zm13.1-46.427a27.742,27.742,0,0,0-13.095-7.7c3.6,3.429,5.646,7.744,7.162,12.427A27.616,27.616,0,0,0,12161.423,4128.14Zm-34.677,4.732c1.512-4.682,3.55-9,7.224-12.408-3.172.169-11.549,5.143-13.1,7.754A27.438,27.438,0,0,0,12126.746,4132.872Zm-5.935,34a27.737,27.737,0,0,0,13.074,7.687c-3.6-3.428-5.628-7.75-7.143-12.409A27.437,27.437,0,0,0,12120.812,4166.871Z"/>
  </g>
</svg>
