<svg xmlns="http://www.w3.org/2000/svg" xmlns:xlink="http://www.w3.org/1999/xlink" width="142.83" height="171.82" viewBox="0 0 142.83 171.82">
  <defs>
    <clipPath id="clip-path">
      <rect id="Rectangle_2703" data-name="Rectangle 2703" width="103.78" height="147.235" fill="none"/>
    </clipPath>
    <clipPath id="clip-path-2">
      <rect id="Rectangle_10469" data-name="Rectangle 10469" width="19.609" height="19.623" fill="#fff"/>
    </clipPath>
  </defs>
  <g id="Group_11533" data-name="Group 11533" transform="translate(-144.001 -650.821)">
    <g id="Group_11400" data-name="Group 11400" transform="translate(144.001 675.406)">
      <g id="Group_11399" data-name="Group 11399" clip-path="url(#clip-path)">
        <path id="Path_19588" data-name="Path 19588" d="M149.783,312.524q-3.574-.251-7.125-.745c-.194-.027-.455-.013-.5.177s.192.33.387.387a52.4,52.4,0,0,0,29.165,0,.587.587,0,0,0,.385-.237c.272-.517-2.5-.055-2.824-.017q-1.918.221-3.844.371-3.763.294-7.54.318-4.054.026-8.1-.258" transform="translate(-78.744 -172.702)" fill="#8e5511"/>
        <path id="Path_19589" data-name="Path 19589" d="M179.982,127.382a3.634,3.634,0,0,1,2.3.472,4.639,4.639,0,0,1,2.355,4.068,3.676,3.676,0,0,1-.733,2.244.634.634,0,0,1-1.114-.254l-.015-.065a15.665,15.665,0,0,0-.442-1.645,8.325,8.325,0,0,0-.587-1.35,8.153,8.153,0,0,0-.833-1.228,14.263,14.263,0,0,0-1.191-1.269l-.036-.035a.55.55,0,0,1,.3-.939" transform="translate(-99.442 -70.543)" fill="#181818"/>
        <path id="Path_19590" data-name="Path 19590" d="M101.2,167.544c-.007-.042-.012-.085-.017-.127a14.971,14.971,0,0,1,5.485-13.363c.471-.38,4.589-3.338,4.263-1.38a1.937,1.937,0,0,1-.552.91,34.589,34.589,0,0,0-7.3,13.147,2.423,2.423,0,0,1-.6,1.189.8.8,0,0,1-1.179-.065.868.868,0,0,1-.1-.31" transform="translate(-56 -84.205)" fill="#181818"/>
        <path id="Path_19591" data-name="Path 19591" d="M117.105,193.929a2.438,2.438,0,0,1,.014-.625,15.055,15.055,0,0,1,3.236-7.666,11.654,11.654,0,0,1,3.9-3.033c.517-.245,4.33-1.776,3.9-.128a1.768,1.768,0,0,1-.768.874c-3.626,2.664-6.244,6.465-8.5,10.358-.306.527-.862,1.143-1.4.86a.786.786,0,0,1-.379-.641" transform="translate(-64.862 -100.665)" fill="#181818"/>
        <path id="Path_19592" data-name="Path 19592" d="M140.406,215.1a2.855,2.855,0,0,1,.441-.545,98.47,98.47,0,0,1,7.534-7.058c.467-.393,3.126-2.936,3.341-1.341a1.641,1.641,0,0,1-.19.852,16.691,16.691,0,0,1-10.117,9.148,1.056,1.056,0,0,1-.874.009.735.735,0,0,1-.233-.844,1.218,1.218,0,0,1,.1-.22" transform="translate(-77.699 -113.911)" fill="#181818"/>
        <path id="Path_19593" data-name="Path 19593" d="M130.492,56.766c-8.4-10.833-8.62-47.62-8.616-51.779C123.517,4,131.841,2.72,144.407,2.72S165.3,4,166.939,4.987c0,3.76-.172,34.2-6.422,48.01.845.314,1.673.66,2.487,1.054,6.863-15.368,6.668-47.937,6.654-49.475v0c-.01-1.509-1.415-2.7-8.175-3.614A134.4,134.4,0,0,0,144.407,0a134.39,134.39,0,0,0-17.075.958c-6.76.914-8.165,2.106-8.175,3.614v0c-.015,1.676-.246,40.178,8.67,53.149q1.35-.442,2.665-.959" transform="translate(-66.004 0)" fill="#f7c948"/>
        <path id="Path_19594" data-name="Path 19594" d="M172.129,18.411a.229.229,0,0,0-.256-.2h-.008c-2.455.307-4.917.554-7.371.737-1.229.077-2.455.173-3.684.206-1.227.058-2.454.078-3.679.077s-2.453-.02-3.68-.079c-1.228-.033-2.454-.13-3.683-.208-2.454-.185-4.916-.433-7.37-.742h-.008a.238.238,0,0,0-.1.462,42.844,42.844,0,0,0,7.333,1.651,54.453,54.453,0,0,0,7.512.549,54.589,54.589,0,0,0,7.511-.553,42.816,42.816,0,0,0,7.331-1.656.229.229,0,0,0,.155-.246" transform="translate(-78.728 -10.083)" fill="#8e5511"/>
        <path id="Path_19595" data-name="Path 19595" d="M139.9,99.378c1.147-.467,2.288-.956,3.439-1.456a54.214,54.214,0,0,1,7.973-2.887,29.521,29.521,0,0,1,16.477.571c2.221-5.068,3.026-11,3.8-16.216.1-.652-.156-1.56-.95-1.673a28.054,28.054,0,0,0-5.371.246l-12.3.724c-5.806.341-11.918.17-17.671,1.067a1.388,1.388,0,0,0-.95,1.673c.984,5.983,2.062,12.792,5.552,17.952" transform="translate(-74.407 -43.007)" fill="#f7c948"/>
        <path id="Path_19596" data-name="Path 19596" d="M166.524,275.037c-5.122-2.188-10.766-2.7-16.341-3.052a1.38,1.38,0,0,1-1.291-1.45q.454-8.924.425-17.865a35.75,35.75,0,0,0-2.957,2.285q.029,11.354.917,22.683c.032.4.211.929.609.879.333-.042.442-.463.473-.8l.183-1.96a1.18,1.18,0,0,1,1.2-1.073,58.818,58.818,0,0,1,12.883,1.8,12.7,12.7,0,0,1,3.5,1.323,1.212,1.212,0,0,1-.045,2.075,12.308,12.308,0,0,1-2.955,1.168,63.184,63.184,0,0,1-15.572,2.018,78.4,78.4,0,0,1-18.857-1.506,16.673,16.673,0,0,1-4.911-1.729,1.209,1.209,0,0,1,.025-2.072,11.6,11.6,0,0,1,2.913-1.12,56.694,56.694,0,0,1,13.377-1.95,1.179,1.179,0,0,1,1.193,1.048l.229,2.021c.033.29.114.642.394.725.423.126.67-.463.712-.9a195.062,195.062,0,0,0,.9-19.883c-.356.4-.706.8-1.038,1.21-.262.326-.513.661-.759,1s-.468.672-.76,1.064l-.376.512q.066,4.528.3,9.051a1.379,1.379,0,0,1-1.285,1.452c-5.972.389-12.023.951-17.422,3.582a4.293,4.293,0,0,0-2,1.906c-1,2.022.349,3.489,1.779,4.412a19.57,19.57,0,0,0,6.726,2.432,79.744,79.744,0,0,0,16.005,1.5,81.165,81.165,0,0,0,16.25-1.444,18.656,18.656,0,0,0,7.67-2.969,3.615,3.615,0,0,0,1.176-1.41c1.032-2.364-1.232-4.091-3.265-4.96" transform="translate(-66.382 -139.965)" fill="#f7c948"/>
        <path id="Path_19597" data-name="Path 19597" d="M103.764,119.969a7.973,7.973,0,0,0-1.961-4.633,13.224,13.224,0,0,0-3.68-2.873,27.352,27.352,0,0,0-4.017-1.784,29.531,29.531,0,0,0-17.2-.817,54.218,54.218,0,0,0-7.973,2.888,76.774,76.774,0,0,1-7.657,3,.47.47,0,0,0,.17.918,34.205,34.205,0,0,0,8.264-1.853c2.649-.875,5.22-1.815,7.81-2.419a26.507,26.507,0,0,1,7.88-.618,27.308,27.308,0,0,1,7.714,1.644,25.955,25.955,0,0,1,3.572,1.634,10.339,10.339,0,0,1,2.865,2.212,5.011,5.011,0,0,1,1.252,2.9,3.062,3.062,0,0,1-1,2.558,6.765,6.765,0,0,1-3.034,1.422,15.091,15.091,0,0,1-1.869.316c-2.253.27-4.519.552-6.79.61-3.391.087-6.685-.631-10.049,0a33.7,33.7,0,0,0-8.081,2.692.471.471,0,0,0,.287.89,67.878,67.878,0,0,1,8.089-1.214,22.933,22.933,0,0,1,3.915.058,14.67,14.67,0,0,1,3.647.837,7.944,7.944,0,0,1,2.875,1.872,5.058,5.058,0,0,1,.9,1.3,6.945,6.945,0,0,1,.508,1.577,9.412,9.412,0,0,1,.144,1.719c-.025,1.077-.118,2.95-1.439,3.245-.561.125-.84-.154-1.3-.36a5.119,5.119,0,0,0-1.434-.265,11.888,11.888,0,0,0-2.936,0,19.329,19.329,0,0,0-4.2,1.024,52.417,52.417,0,0,0-7.516,3.534.519.519,0,0,0,.41.95c2.612-.874,5.148-1.838,7.708-2.478a19.238,19.238,0,0,1,3.805-.62,8.45,8.45,0,0,1,3.479.471,3.387,3.387,0,0,1,.735.356,3.993,3.993,0,0,1,.683.449,3.9,3.9,0,0,1,.987,1.128,3.772,3.772,0,0,1,.21,2.886,9.171,9.171,0,0,1-4.916,6.1,30.71,30.71,0,0,0-5.353,2.975.549.549,0,0,0,.462.972c4.053-1.016,10.116-3.624,13.477.342a3.662,3.662,0,0,1,.782,3.609,6.948,6.948,0,0,1-2.678,3.368,27.089,27.089,0,0,1-4.47,2.32,38.013,38.013,0,0,0-9.327,5.964,31.756,31.756,0,0,0-3.871,4.047c-.293.367-.575.744-.852,1.125s-.546.788-.786,1.108l-.746,1.021a9.155,9.155,0,0,1-.778.988,20.286,20.286,0,0,1-7.819,5.893,24.008,24.008,0,0,1-9.823,1.5,60.456,60.456,0,0,1-9.612-1.32,20.787,20.787,0,0,0-.5-2.1,15.26,15.26,0,0,0-1.559-3.6,9.94,9.94,0,0,0-2.631-2.928.55.55,0,0,0-.72.825,12.421,12.421,0,0,1,2.807,6.213,22.2,22.2,0,0,1,.316,2.521,1.345,1.345,0,0,0,.037.669,33.188,33.188,0,0,1-.062,3.82,24.946,24.946,0,0,1-.485,3.43,15.367,15.367,0,0,1-1.079,3.165,8.186,8.186,0,0,1-4.3,4.313,5.638,5.638,0,0,1-2.84.44,5.342,5.342,0,0,1-.677-.127,5.417,5.417,0,0,1-.645-.241,4.5,4.5,0,0,1-1.172-.741,5.741,5.741,0,0,1-1.624-2.341,10.931,10.931,0,0,1-.6-3.129c-.153-2.255.13-4.828-.342-7.534a36.712,36.712,0,0,0-2.057-7.418,31.9,31.9,0,0,0-8.831-12.58,33.874,33.874,0,0,0-6.4-4.3c-1.128-.584-2.2-1.1-3.209-1.686a12.412,12.412,0,0,1-2.663-1.95A3.754,3.754,0,0,1,2.748,157.5a3.3,3.3,0,0,1,.814-2.435,5.9,5.9,0,0,1,1.1-1.011,10.7,10.7,0,0,1,1.406-.8,13.68,13.68,0,0,1,3.212-1.057,11.457,11.457,0,0,1,6.648.5,10.437,10.437,0,0,1,2.931,1.733,10.148,10.148,0,0,1,2.215,2.663.49.49,0,0,0,.881-.423,10.842,10.842,0,0,0-5.282-5.627,12.03,12.03,0,0,0-1.932-.765,1.423,1.423,0,0,0,.006-.146c-.684-11.807,7.2-23.447,18.7-26.687,5.844-1.646,12.229-1.369,17.546-4.658a12.028,12.028,0,0,0,4.724-4.976c.806-1.738.722-5.557,2.332-6.692q-.4-1.312-.765-2.707a4.784,4.784,0,0,0-2.453,2.147c-1.571,2.827-.728,5.889-3.248,8.378-5.434,5.366-14.375,4.056-21.053,6.608a29.4,29.4,0,0,0-18.512,28.223,12.986,12.986,0,0,0-3.135.124,16.079,16.079,0,0,0-3.839,1.062,9.449,9.449,0,0,0-3.48,2.392,6.14,6.14,0,0,0-1.205,1.988,5.149,5.149,0,0,0-.284,1.16c-.026.2-.054.392-.072.59l.019.608a5.549,5.549,0,0,0,.2,1.2,7.282,7.282,0,0,0,.441,1.106,6.95,6.95,0,0,0,.609.968l.339.443.367.4a15.127,15.127,0,0,0,3.217,2.475c1.109.67,2.245,1.243,3.291,1.811a31.041,31.041,0,0,1,5.755,4.023,28.713,28.713,0,0,1,7.836,11.436,35.786,35.786,0,0,1,1.872,6.786c.4,2.161.155,4.546.314,7.2a13.993,13.993,0,0,0,.815,4.088,8.956,8.956,0,0,0,2.6,3.618,7.664,7.664,0,0,0,1.952,1.2,7.177,7.177,0,0,0,2.225.587,9.284,9.284,0,0,0,4.368-.7,10.284,10.284,0,0,0,3.537-2.439,12.686,12.686,0,0,0,2.308-3.471,19.385,19.385,0,0,0,1.589-7.728c.017-.882,0-1.767-.062-2.65a54.936,54.936,0,0,0,9.118,1.374c.459.042.925.039,1.389.043l1.395.005,1.4-.087.7-.045.7-.1,1.4-.2,1.39-.322.695-.165c.229-.067.453-.153.679-.228l1.355-.472a23.418,23.418,0,0,0,9.065-6.764,10.914,10.914,0,0,0,.872-1.1l.829-1.129c.291-.392.521-.723.76-1.064s.5-.672.759-1a28.629,28.629,0,0,1,3.5-3.637,35.25,35.25,0,0,1,8.512-5.578,29.518,29.518,0,0,0,4.934-2.665,11.4,11.4,0,0,0,2.216-2.11,8.62,8.62,0,0,0,1.507-2.821A6.544,6.544,0,0,0,96.9,156.6a6.854,6.854,0,0,0-1.548-2.958,8.159,8.159,0,0,0-3.116-1.988,6.242,6.242,0,0,1-1.944-.781c-.741-.688.252-1.539.676-2.068a8.181,8.181,0,0,0,1.337-2.95,6.69,6.69,0,0,0-.572-5.1,2.24,2.24,0,0,1-.251-.536,1.294,1.294,0,0,1,.465-1.1,4.667,4.667,0,0,0,1.023-1.7,9.605,9.605,0,0,0,.333-4.9,10.032,10.032,0,0,0-.757-2.38c-.3-.613-2.488-2.4-.753-2.519a37.451,37.451,0,0,0,5.641-.575,9.383,9.383,0,0,0,4.4-2.133,6.017,6.017,0,0,0,1.937-4.93" transform="translate(0 -57.835)" fill="#181818"/>
      </g>
    </g>
    <g id="Group_11402" data-name="Group 11402" transform="translate(252.888 650.821)">
      <circle id="Ellipse_443" data-name="Ellipse 443" cx="16.972" cy="16.972" r="16.972" fill="#f7c948"/>
    </g>
    <g id="Group_11492" data-name="Group 11492" transform="translate(260.055 657.981)">
      <g id="Group_11491" data-name="Group 11491" clip-path="url(#clip-path-2)">
        <path id="Path_19608" data-name="Path 19608" d="M19.609,3.672A3.829,3.829,0,0,1,18.5,6.459c-1.539,1.55-3.091,3.087-4.635,4.631q-3.559,3.558-7.118,7.115a.907.907,0,0,1-.423.229q-2.689.6-5.382,1.169a.771.771,0,0,1-.921-.956c.39-1.777.765-3.558,1.157-5.335a.948.948,0,0,1,.236-.444q4.695-4.705,9.4-9.4c.85-.849,1.661-1.744,2.565-2.532A3.746,3.746,0,0,1,19.54,3.083c.045.23.055.467.069.588m-8.053,1.2a.615.615,0,0,0-.056.047Q7.108,9.312,2.719,13.705a.559.559,0,0,0-.136.262c-.163.727-.316,1.456-.473,2.185-.121.564-.244,1.128-.369,1.71a.886.886,0,0,0,.114-.006c1.243-.266,2.487-.528,3.727-.805A.9.9,0,0,0,6,16.814q4.3-4.283,8.59-8.576a1.239,1.239,0,0,1,.2-.138L11.556,4.874m4.281,2.045c.541-.525,1.1-1.045,1.632-1.586a2.253,2.253,0,0,0-3.2-3.174c-.493.484-.981.973-1.47,1.46-.048.048-.091.1-.124.14l3.16,3.16" transform="translate(0 0)" fill="#fff"/>
      </g>
    </g>
  </g>
</svg>
