<svg xmlns="http://www.w3.org/2000/svg" width="50" height="59.978" viewBox="0 0 50 59.978">
  <g id="Group_1033" data-name="Group 1033" transform="translate(-12113.611 -3359.205)" opacity="0.6">
    <path id="Path_1075" data-name="Path 1075" d="M12122.856,3419.183c-.7-.148-1.411-.253-2.1-.451a9.372,9.372,0,0,1-7.109-8.968,32.011,32.011,0,0,1,2.074-13.545,12.46,12.46,0,0,1,5.558-6.707,10.964,10.964,0,0,1,5.455-1.309,4.2,4.2,0,0,1,1.792.618c.889.483,1.713,1.084,2.576,1.617a13.331,13.331,0,0,0,15.048-.011c.7-.432,1.406-.848,2.06-1.338a4.989,4.989,0,0,1,3.945-.8,11.112,11.112,0,0,1,8.491,6.1,25.074,25.074,0,0,1,2.729,9.727,48.218,48.218,0,0,1,.23,5.257,9.593,9.593,0,0,1-8.859,9.7,2.258,2.258,0,0,0-.38.109Zm15.761-3.514v-.009c4.958,0,9.917.044,14.874-.014,4.12-.047,6.648-2.674,6.615-6.789a45.522,45.522,0,0,0-.248-4.674,21.623,21.623,0,0,0-2.236-8c-1.4-2.592-3.425-4.27-6.476-4.439a1.541,1.541,0,0,0-.815.2c-.756.445-1.481.942-2.224,1.408-5.543,3.477-11.284,3.917-17.187,1.013-1.375-.677-2.632-1.594-3.95-2.391a1.281,1.281,0,0,0-.632-.252,7.154,7.154,0,0,0-4.959,2.052,11.411,11.411,0,0,0-2.5,3.989,30.136,30.136,0,0,0-1.73,11.789,5.822,5.822,0,0,0,2.952,5.146,8.066,8.066,0,0,0,4.223.974Z"/>
    <path id="Path_1076" data-name="Path 1076" d="M12152.693,3373.637a14.448,14.448,0,1,1-14.447-14.432A14.436,14.436,0,0,1,12152.693,3373.637Zm-14.451,10.948a10.932,10.932,0,1,0-10.931-10.937A10.9,10.9,0,0,0,12138.242,3384.585Z"/>
  </g>
</svg>
