<svg xmlns="http://www.w3.org/2000/svg" xmlns:xlink="http://www.w3.org/1999/xlink" width="39.466" height="23.024" viewBox="0 0 39.466 23.024">
  <defs>
    <clipPath id="clip-path">
      <rect id="Rectangle_10514" data-name="Rectangle 10514" width="39.466" height="23.024" fill="none"/>
    </clipPath>
  </defs>
  <g id="Group_11609" data-name="Group 11609" opacity="0.4">
    <g id="Group_11608" data-name="Group 11608" clip-path="url(#clip-path)">
      <path id="Path_19659" data-name="Path 19659" d="M39.466,11.82a37.666,37.666,0,0,1-11.5,9.105,19.228,19.228,0,0,1-6.846,2.036,16.327,16.327,0,0,1-6.74-.86,28.053,28.053,0,0,1-7.6-4.061A40.541,40.541,0,0,1,.349,12.2a.855.855,0,0,1,0-1.38A37.721,37.721,0,0,1,11.4,2.155a18.964,18.964,0,0,1,7.065-2.1,19.323,19.323,0,0,1,8.554,1.319A27.283,27.283,0,0,1,37.235,8.525c.787.853,1.49,1.784,2.231,2.679Zm-1.833-.4c-.974-1.027-1.88-2.059-2.866-3.009A24.793,24.793,0,0,0,25.92,2.757a17.056,17.056,0,0,0-7.6-1.023A18.572,18.572,0,0,0,11.47,4a37.22,37.22,0,0,0-8.679,6.642c-.279.279-.544.57-.828.868.121.135.211.241.308.342a41.129,41.129,0,0,0,5.767,5.029A25.287,25.287,0,0,0,15.6,20.738a13.986,13.986,0,0,0,5.665.543A18.469,18.469,0,0,0,27.287,19.4a35.626,35.626,0,0,0,8.8-6.414c.506-.487.99-1,1.547-1.562" transform="translate(0.001 0)" fill="#1a1818"/>
      <path id="Path_19660" data-name="Path 19660" d="M134.483,47.922a6.579,6.579,0,1,1-6.581,6.586,6.58,6.58,0,0,1,6.581-6.586m0,1.647a4.932,4.932,0,1,0,4.932,4.921,4.97,4.97,0,0,0-4.932-4.921" transform="translate(-114.737 -42.99)" fill="#1a1818"/>
    </g>
  </g>
</svg>
