<svg xmlns="http://www.w3.org/2000/svg" width="59.999" height="60.002" viewBox="0 0 59.999 60.002">
  <g id="Group_1021" data-name="Group 1021" transform="translate(-12111.111 -4829.968)" opacity="0.6">
    <path id="Path_1053" data-name="Path 1053" d="M12111.111,4857.632a19.894,19.894,0,0,1,1.268-3.354,7.549,7.549,0,0,1,6.563-3.875c4.02-.1,8.045-.037,12.066-.031a1.193,1.193,0,0,1,1.3,1.148c.015.7-.535,1.186-1.379,1.188q-5.594.009-11.188,0a5.914,5.914,0,0,0-6.286,6.255q0,8.642,0,17.283a5.907,5.907,0,0,0,6.2,6.222c2.324,0,4.647.008,6.972-.005a1.7,1.7,0,0,1,1.359.637c.868.943,1.821,1.807,2.81,2.772,0-.684,0-1.315,0-1.947.009-1.027.438-1.454,1.476-1.455q6.006-.006,12.01,0a5.908,5.908,0,0,0,6.2-6.169c0-2.441,0-4.882,0-7.323a3.245,3.245,0,0,1,.051-.7,1.141,1.141,0,0,1,2.232-.02,2.447,2.447,0,0,1,.056.58c0,2.578.02,5.156,0,7.733a8.144,8.144,0,0,1-6.481,8.036,9.523,9.523,0,0,1-2.032.2c-3.689.018-7.38.009-11.167.009,0,.534,0,1.052,0,1.57,0,.664-.031,1.33.01,1.991a1.529,1.529,0,0,1-.829,1.594h-.7c-.392-.345-.8-.674-1.169-1.039-1.263-1.246-2.5-2.516-3.778-3.747a1.368,1.368,0,0,0-.85-.353c-2.28-.032-4.563.047-6.841-.044a7.672,7.672,0,0,1-6.6-3.889,19.807,19.807,0,0,1-1.265-3.348Z"/>
    <path id="Path_1054" data-name="Path 1054" d="M12152.637,4829.979a18.408,18.408,0,0,1,7.141,1.008,16.449,16.449,0,0,1,10.81,12.07c1.516,6.411-.284,11.956-5.061,16.495a2.1,2.1,0,0,0-.77,1.741c.054,1.814.011,3.631.022,5.447a1.267,1.267,0,0,1-.714,1.35,1.3,1.3,0,0,1-1.516-.447c-1.267-1.274-2.547-2.534-3.806-3.815a.78.78,0,0,0-.811-.246,25.8,25.8,0,0,1-11.431-.214,16.987,16.987,0,0,1-12.33-17.933,16.618,16.618,0,0,1,6.375-11.754,16.852,16.852,0,0,1,10.977-3.7C12151.895,4829.981,12152.266,4829.979,12152.637,4829.979Zm9.794,34.247c0-1.209.087-2.25-.021-3.27a3.213,3.213,0,0,1,1.4-3.026,13.714,13.714,0,0,0,4.824-9.139,14.225,14.225,0,0,0-3.048-10.857,13.8,13.8,0,0,0-9.1-5.356,40.927,40.927,0,0,0-5.428-.241,13.442,13.442,0,0,0-5.955,1.29,14.682,14.682,0,0,0-3.109,24.86,13.82,13.82,0,0,0,8.563,3.174,23.321,23.321,0,0,0,7.5-.527,1.6,1.6,0,0,1,1.791.48C12160.648,4862.462,12161.486,4863.275,12162.431,4864.226Z"/>
    <path id="Path_1055" data-name="Path 1055" d="M12130.912,4868.645h-11.833a3.935,3.935,0,0,1-.584-.021,1.155,1.155,0,0,1,0-2.3,4.012,4.012,0,0,1,.584-.02h23.9c.949.006,1.515.443,1.515,1.172s-.565,1.17-1.517,1.171Z"/>
    <path id="Path_1056" data-name="Path 1056" d="M12128.666,4875.207q-4.8,0-9.6,0a3.507,3.507,0,0,1-.642-.035,1.151,1.151,0,0,1,.03-2.279,2.7,2.7,0,0,1,.467-.027q9.749,0,19.5,0c.935,0,1.5.472,1.463,1.215a1.19,1.19,0,0,1-1.319,1.123c-1.249.013-2.5,0-3.746,0Z"/>
    <path id="Path_1057" data-name="Path 1057" d="M12127.223,4859.741h8.024a3.892,3.892,0,0,1,.585.021,1.155,1.155,0,0,1,0,2.3,4.1,4.1,0,0,1-.585.02h-16.284c-.95,0-1.515-.443-1.514-1.172s.564-1.17,1.515-1.171Q12123.092,4859.738,12127.223,4859.741Z"/>
    <path id="Path_1058" data-name="Path 1058" d="M12144.5,4874.015a1.162,1.162,0,1,1-1.184-1.142A1.207,1.207,0,0,1,12144.5,4874.015Z"/>
    <path id="Path_1059" data-name="Path 1059" d="M12151.76,4849.166c0-.448-.012-.9,0-1.346a2.145,2.145,0,0,1,1.485-2.034c.183-.067.371-.12.554-.186a2.6,2.6,0,0,0,1.686-2.936,2.636,2.636,0,0,0-2.645-2.124,2.587,2.587,0,0,0-2.5,2.273c-.022.174-.05.347-.086.519a1.111,1.111,0,0,1-1.256.955,1.139,1.139,0,0,1-1.025-1.151,5.014,5.014,0,0,1,3.41-4.7,4.952,4.952,0,0,1,6.472,4.977,4.856,4.856,0,0,1-3.2,4.35.69.69,0,0,0-.569.826c.038.642.024,1.288.006,1.932a1.224,1.224,0,0,1-1.181,1.337,1.209,1.209,0,0,1-1.157-1.345c-.008-.449,0-.9,0-1.347Z"/>
    <path id="Path_1060" data-name="Path 1060" d="M12154.082,4855.3a1.178,1.178,0,0,1-1.137,1.175,1.148,1.148,0,0,1-1.182-1.121,1.168,1.168,0,0,1,1.127-1.186A1.2,1.2,0,0,1,12154.082,4855.3Z"/>
  </g>
</svg>
