<svg xmlns="http://www.w3.org/2000/svg" xmlns:xlink="http://www.w3.org/1999/xlink" width="139.598" height="139.598" viewBox="0 0 139.598 139.598">
  <defs>
    <filter id="Ellipse_89" x="0" y="0" width="139.598" height="139.598" filterUnits="userSpaceOnUse">
      <feOffset dy="10" input="SourceAlpha"/>
      <feGaussianBlur stdDeviation="5" result="blur"/>
      <feFlood flood-opacity="0.071"/>
      <feComposite operator="in" in2="blur"/>
      <feComposite in="SourceGraphic"/>
    </filter>
    <clipPath id="clip-path">
      <rect id="Rectangle_10515" data-name="Rectangle 10515" width="64.893" height="65.015" fill="none"/>
    </clipPath>
  </defs>
  <g id="Group_11615" data-name="Group 11615" transform="translate(-939.291 -700.467)">
    <g transform="matrix(1, 0, 0, 1, 939.29, 700.47)" filter="url(#Ellipse_89)">
      <circle id="Ellipse_89-2" data-name="Ellipse 89" cx="54.799" cy="54.799" r="54.799" transform="translate(15 5)" fill="#fff"/>
    </g>
    <g id="Group_11613" data-name="Group 11613" transform="translate(973.644 727.758)" opacity="0.75">
      <g id="Group_11612" data-name="Group 11612" clip-path="url(#clip-path)">
        <path id="Path_19661" data-name="Path 19661" d="M40.684,65.015a15.559,15.559,0,0,1-1.538-.54A5.878,5.878,0,0,1,35.855,60.6q-3.409-11.952-6.811-23.906a1,1,0,0,0-.823-.786q-11.9-3.39-23.794-6.816a6,6,0,0,1-.113-11.549Q23.341,11.819,42.369,6.105,52.29,3.124,62.209.135A1.841,1.841,0,0,0,62.485,0H63.5a2.626,2.626,0,0,1,1.394,1.4V2.413a2.968,2.968,0,0,0-.148.338q-4.051,13.506-8.1,27.013Q52.027,45.18,47.409,60.6a5.975,5.975,0,0,1-3.876,4.117c-.311.113-.631.2-.947.3ZM56.222,6.172l-.141-.166c-.2.054-.4.1-.591.163l-44.7,13.42C9,20.129,7.2,20.658,5.412,21.215A2.2,2.2,0,0,0,3.8,23.332a2.181,2.181,0,0,0,1.651,2.074c.12.038.241.077.362.112q11.69,3.344,23.376,6.7a.993.993,0,0,0,1.143-.289q12.638-12.7,25.306-25.361a3.664,3.664,0,0,1,.581-.394m2.738,2.521c-.241.223-.351.32-.455.423Q45.716,21.927,32.917,34.728a.855.855,0,0,0-.191,1q2.591,9.064,5.175,18.129c.544,1.906,1.077,3.816,1.641,5.716a2.128,2.128,0,0,0,2.89,1.459,2.571,2.571,0,0,0,1.43-1.89q6.114-20.454,12.244-40.9c.937-3.128,1.87-6.257,2.853-9.549" transform="translate(0)" fill="#1a1818"/>
      </g>
    </g>
  </g>
</svg>
