<svg xmlns="http://www.w3.org/2000/svg" width="36.301" height="34.682" viewBox="0 0 36.301 34.682">
  <path id="Path_16150" data-name="Path 16150" d="M13859.442,599.1l4.357,8.83a1.616,1.616,0,0,0,1.215.883l9.745,1.416a1.615,1.615,0,0,1,.9,2.754l-7.052,6.873a1.615,1.615,0,0,0-.465,1.429l1.665,9.706a1.615,1.615,0,0,1-2.343,1.7l-8.716-4.583a1.615,1.615,0,0,0-1.5,0l-8.716,4.583a1.616,1.616,0,0,1-2.344-1.7l1.665-9.706a1.614,1.614,0,0,0-.464-1.429l-7.052-6.873a1.615,1.615,0,0,1,.895-2.754l9.745-1.416a1.614,1.614,0,0,0,1.216-.883l4.357-8.83A1.615,1.615,0,0,1,13859.442,599.1Z" transform="translate(-13839.844 -598.201)" fill="#efefef"/>
</svg>
