<svg xmlns="http://www.w3.org/2000/svg" width="53.001" height="68.781" viewBox="0 0 53.001 68.781">
  <path id="Path_1052" data-name="Path 1052" d="M12161.109,4721.7a5.981,5.981,0,0,0-.062-.96,6.6,6.6,0,0,0-6.675-5.5c-1.335.05-1.482-.138-1.483-1.458,0-2.291.009-4.582,0-6.873a15.28,15.28,0,0,0-.649-4.237,16.452,16.452,0,0,0-5.249-8.067,13.5,13.5,0,0,0-8.059-3.592,3.133,3.133,0,0,1-1.006-.111h-3.6c-.111.09-.244.053-.37.064a13.087,13.087,0,0,0-3.46.577,16.931,16.931,0,0,0-6.53,4.309,16.239,16.239,0,0,0-4.6,11.123c-.057,2.311-.006,4.625-.013,6.937,0,1.151-.187,1.327-1.355,1.337-.065,0-.129,0-.193,0a6.629,6.629,0,0,0-6.693,6.713c.077,6.658.021,13.318.021,19.977,0,2.934-.05,5.868.017,8.8a6.306,6.306,0,0,0,3.22,5.38,7.447,7.447,0,0,0,2.095.564h39.188a5.645,5.645,0,0,0,2.825-.942,6.6,6.6,0,0,0,2.635-5.329Q12161.11,4736.053,12161.109,4721.7Zm-21.7,14.644a1.244,1.244,0,0,0-.571,1.162c.032,1.775.022,3.55.008,5.326a2.733,2.733,0,1,1-5.455-.029c0-.471,0-.941,0-1.412,0-.406,0-.813,0-1.219,0-.941-.021-1.883.01-2.823a1,1,0,0,0-.491-.944,5.344,5.344,0,0,1-2.081-5.779,5.476,5.476,0,0,1,10.354-.7A5.366,5.366,0,0,1,12139.411,4736.342Zm6.973-20.762c-3.425-.03-6.851-.014-10.277-.014s-6.853-.013-10.277.012c-.545,0-.677-.157-.672-.683.027-2.591-.023-5.182.024-7.772a10.947,10.947,0,0,1,21.521-2.633,11.38,11.38,0,0,1,.373,3.048c0,2.441-.019,4.882.011,7.323C12147.093,4715.411,12146.967,4715.585,12146.384,4715.58Z" transform="translate(-12109.61 -4689.398)" fill="none" stroke="#000" stroke-width="3" opacity="0.6"/>
</svg>
