<svg xmlns="http://www.w3.org/2000/svg" width="36.3" height="34.682" viewBox="0 0 36.3 34.682">
  <path id="Path_16148" data-name="Path 16148" d="M13763.876,599.1l4.358,8.83a1.613,1.613,0,0,0,1.216.883l9.744,1.416a1.615,1.615,0,0,1,.895,2.754l-7.051,6.873a1.617,1.617,0,0,0-.465,1.429l1.665,9.706a1.615,1.615,0,0,1-2.342,1.7l-8.717-4.583a1.617,1.617,0,0,0-1.5,0l-8.716,4.583a1.614,1.614,0,0,1-2.342-1.7l1.664-9.706a1.617,1.617,0,0,0-.464-1.429l-7.052-6.873a1.614,1.614,0,0,1,.895-2.754l9.745-1.416a1.618,1.618,0,0,0,1.216-.883l4.358-8.83A1.614,1.614,0,0,1,13763.876,599.1Z" transform="translate(-13744.278 -598.201)" fill="#fdc350"/>
</svg>
